<svg width="80" height="80" viewBox="0 0 80 80" fill="none" xmlns="http://www.w3.org/2000/svg">
<path d="M66.6668 19.9999V22.6665C68.8721 22.6665 70.6668 24.4611 70.6668 26.6664V75.9988L67.4629 73.5988C66.9896 73.2414 66.3376 73.2414 65.8643 73.5988L61.331 76.9988L56.7978 73.5988C56.3245 73.2414 55.6725 73.2414 55.1992 73.5988L50.6659 76.9988L46.1327 73.5988C45.6594 73.2414 45.0073 73.2414 44.5341 73.5988L40.0008 76.9988L35.4675 73.5988C34.9943 73.2414 34.3408 73.2414 33.8675 73.5988L30.6676 75.9988V26.6664C30.6676 22.9905 27.6769 19.9999 24.001 19.9999C20.3251 19.9999 17.3345 22.9905 17.3345 26.6664V53.3326C17.3345 55.5379 15.5398 57.3326 13.3345 57.3326C11.1292 57.3326 9.33452 55.5379 9.33452 53.3326V4.00028L12.5345 6.40027C13.0078 6.75621 13.6612 6.75621 14.1345 6.40027L18.6678 3.00028L23.201 6.40027C23.6743 6.75621 24.3277 6.75621 24.801 6.40027L29.3343 3.00028L33.8675 6.40027C34.3408 6.75621 34.9943 6.75621 35.4675 6.40027L40.0008 3.00028L44.5353 6.40027C45.0086 6.75621 45.6606 6.75621 46.1339 6.40027L49.3339 4.00028V21.3332H52.0004V1.33357C52.0004 0.828261 51.7151 0.366857 51.2631 0.140295C50.8111 -0.0850168 50.2711 -0.0356419 49.8672 0.267013L45.3339 3.667L40.8006 0.267013C40.326 -0.088923 39.6739 -0.088923 39.2006 0.267013L34.6674 3.667L30.1341 0.267013C29.6608 -0.088923 29.0074 -0.088923 28.5341 0.267013L24.0009 3.667L19.4678 0.267013C18.9945 -0.088923 18.341 -0.088923 17.8678 0.267013L13.3345 3.667L8.80124 0.267013C8.39718 -0.0356419 7.85593 -0.0850168 7.40531 0.140295C6.95328 0.367013 6.66797 0.828261 6.66797 1.33357V53.3326C6.66797 57.0085 9.65858 59.9991 13.3345 59.9991C17.0104 59.9991 20.001 57.0085 20.001 53.3326V26.6664C20.001 24.4611 21.7957 22.6665 24.001 22.6665C26.2063 22.6665 28.001 24.4611 28.001 26.6664V78.6653C28.001 79.1706 28.2863 79.632 28.7383 79.8586C29.189 80.0812 29.7304 80.0359 30.1343 79.7319L34.6675 76.3319L39.2008 79.7319C39.6755 80.0892 40.3275 80.0892 40.8008 79.7319L45.3341 76.3319L49.8686 79.7319C50.3419 80.0892 50.9939 80.0892 51.4672 79.7319L56.0004 76.3319L60.5349 79.7319C61.0082 80.0892 61.6603 80.0892 62.1335 79.7319L66.6668 76.3319L71.2001 79.7319C71.4347 79.9092 71.7174 79.9986 72.0001 79.9986C72.2041 79.9986 72.408 79.9519 72.596 79.8586C73.048 79.6319 73.3333 79.1706 73.3333 78.6653V26.6664C73.3333 22.9905 70.3427 19.9999 66.6668 19.9999Z" fill="#282828"/>
<path d="M66.6658 19.9999H24V22.6665H66.6658V19.9999Z" fill="#282828"/>
<path d="M29.3336 57.3325H13.334V59.999H29.3336V57.3325Z" fill="#282828"/>
<path d="M51.9996 45.3328H36V47.9993H51.9996V45.3328Z" fill="#08BBF6"/>
<path d="M65.3333 45.3328H60V47.9993H65.3333V45.3328Z" fill="#08BBF6"/>
<path d="M46.6665 53.3326H36V55.9991H46.6665V53.3326Z" fill="#08BBF6"/>
<path d="M65.3333 53.3326H60V55.9991H65.3333V53.3326Z" fill="#08BBF6"/>
<path d="M51.9996 61.3324H36V63.999H51.9996V61.3324Z" fill="#08BBF6"/>
<path d="M65.3333 61.3324H60V63.999H65.3333V61.3324Z" fill="#08BBF6"/>
<path d="M51.9996 29.333H36V31.9996H51.9996V29.333Z" fill="#08BBF6"/>
<path d="M65.3333 29.333H60V31.9996H65.3333V29.333Z" fill="#08BBF6"/>
<path d="M46.6665 37.333H36V39.9996H46.6665V37.333Z" fill="#08BBF6"/>
<path d="M65.3333 37.333H60V39.9996H65.3333V37.333Z" fill="#08BBF6"/>
<path d="M18.668 35.9995H14.668V38.6661H18.668V35.9995Z" fill="#282828"/>
<path d="M18.668 43.9994H14.668V46.6659H18.668V43.9994Z" fill="#282828"/>
<path d="M24.001 19.9999H14.668V22.6665H24.001V19.9999Z" fill="#282828"/>
<path d="M18.668 27.9998H14.668V30.6663H18.668V27.9998Z" fill="#282828"/>
<path d="M30.6676 12.0001H14.668V14.6667H30.6676V12.0001Z" fill="#282828"/>
<path d="M43.9993 12.0001H38.666V14.6667H43.9993V12.0001Z" fill="#282828"/>
</svg>
