<svg width="80" height="80" viewBox="0 0 80 80" fill="none" xmlns="http://www.w3.org/2000/svg">
<path d="M76.25 11.25C74.194 11.2509 72.1603 11.6762 70.2762 12.4991C68.392 13.322 66.698 14.5249 65.3 16.0325L62.1338 12.8663C61.8993 12.6319 61.5815 12.5003 61.25 12.5003C60.9185 12.5003 60.6007 12.6319 60.3662 12.8663L56.0513 17.18C52.3257 14.8201 48.1255 13.311 43.75 12.76V10H46.25C46.5815 10 46.8995 9.8683 47.1339 9.63388C47.3683 9.39946 47.5 9.08152 47.5 8.75V3.75C47.5 3.41848 47.3683 3.10054 47.1339 2.86612C46.8995 2.6317 46.5815 2.5 46.25 2.5H33.75C33.4185 2.5 33.1005 2.6317 32.8661 2.86612C32.6317 3.10054 32.5 3.41848 32.5 3.75V8.75C32.5 9.08152 32.6317 9.39946 32.8661 9.63388C33.1005 9.8683 33.4185 10 33.75 10H36.25V12.77C33.1052 13.1586 30.0438 14.0522 27.1838 15.4163L16.7087 4.94125C15.1456 3.38428 13.0312 2.507 10.825 2.5C8.61789 2.50265 6.50193 3.38059 4.94126 4.94126C3.38059 6.50193 2.50265 8.61789 2.5 10.825C2.50794 13.0311 3.38508 15.1451 4.94125 16.7087L14.6788 26.445C12.5389 29.8092 11.0955 33.5683 10.4338 37.5H10C8.38954 37.5018 6.82242 38.0219 5.53048 38.9834C4.23855 39.9449 3.29043 41.2967 2.82638 42.8389C2.36233 44.3811 2.407 46.0316 2.95379 47.5464C3.50058 49.0612 4.52045 50.3598 5.8625 51.25C4.82899 51.9326 3.98088 52.8608 3.39409 53.9515C2.80731 55.0422 2.50016 56.2614 2.50016 57.5C2.50016 58.7386 2.80731 59.9578 3.39409 61.0485C3.98088 62.1392 4.82899 63.0674 5.8625 63.75C4.52045 64.6402 3.50058 65.9388 2.95379 67.4536C2.407 68.9684 2.36233 70.6189 2.82638 72.1611C3.29043 73.7033 4.23855 75.0551 5.53048 76.0166C6.82242 76.9781 8.38954 77.4982 10 77.5H20C20.295 77.4983 20.5897 77.4796 20.8825 77.4438C21.0015 77.4809 21.1254 77.4998 21.25 77.5H76.25C76.5815 77.5 76.8995 77.3683 77.1339 77.1339C77.3683 76.8995 77.5 76.5815 77.5 76.25V12.5C77.5 12.1685 77.3683 11.8505 77.1339 11.6161C76.8995 11.3817 76.5815 11.25 76.25 11.25ZM55.3438 49.9162L52.5375 48.2912L51.2875 50.4538L53.6763 51.8288C52.2946 53.539 51.0594 55.3625 49.9837 57.28L47.9588 53.78L45.7937 55.03L48.2937 59.36L49.1538 58.86C48.59 59.985 48.0875 61.1312 47.635 62.3013C45.203 63.2574 42.6132 63.7488 40 63.75C35.3916 63.7398 30.9109 62.2344 27.2313 59.46C27.5742 58.2211 27.5892 56.9145 27.275 55.668C26.9607 54.4216 26.328 53.2782 25.4387 52.35L28.7175 50.4575L27.4675 48.2925L26.3825 48.9175C27.0837 47.7827 27.4688 46.481 27.498 45.1474C27.5272 43.8137 27.1993 42.4965 26.5484 41.3321C25.8975 40.1677 24.9472 39.1984 23.7958 38.5247C22.6445 37.8509 21.334 37.4971 20 37.5H19.375C20.3897 33.2979 22.6628 29.5055 25.8905 26.6297C29.1181 23.754 33.1466 21.9318 37.4375 21.4068C41.7285 20.8817 46.0774 21.6788 49.9033 23.6915C53.7291 25.7041 56.8495 28.8365 58.8475 32.67C58.8625 32.705 58.8775 32.7388 58.895 32.7738C59.6167 34.1773 60.1785 35.6574 60.57 37.1862L60.0438 45.6012C58.36 46.9066 56.7879 48.3499 55.3438 49.9162ZM27.4875 69.75C30.8 71.2881 34.3692 72.1981 38.0137 72.4337C38.675 72.4725 39.3387 72.4987 40 72.4987C41.7566 72.4994 43.5097 72.3438 45.2388 72.0338C45.13 73.0163 45.0687 74.0062 45.0362 74.9987H25.575C26.8133 73.6282 27.4992 71.8471 27.5 70C27.5 69.9163 27.49 69.835 27.4875 69.75ZM45.625 69.3913C43.1678 69.9077 40.6524 70.0918 38.1463 69.9388C34.0995 69.6763 30.1643 68.5038 26.6337 66.5088C26.0435 65.3947 25.1841 64.4459 24.1337 63.7487C24.9251 63.2216 25.6104 62.5504 26.1538 61.77C30.1879 64.6729 35.0299 66.2396 40 66.25C42.2321 66.2498 44.4527 65.9316 46.595 65.305C46.1982 66.649 45.8744 68.0135 45.625 69.3925V69.3913ZM61.25 15.5175L63.735 18C63.1136 18.9457 62.6016 19.9588 62.2087 21.02L61.5588 21.6712C60.5021 20.5669 59.3594 19.5482 58.1413 18.625L61.25 15.5175ZM35 5H45V7.5H35V5ZM41.25 10V12.5562C40.415 12.52 39.585 12.52 38.75 12.5562V10H41.25ZM5 10.825C5.00231 9.28082 5.61676 7.80056 6.70866 6.70866C7.80056 5.61676 9.28082 5.00231 10.825 5C12.3685 5.00549 13.8476 5.61949 14.9412 6.70875L24.8512 16.625C24.545 16.8038 24.2475 17 23.9487 17.1862L19.6337 12.8725C19.3993 12.6382 19.0815 12.5065 18.75 12.5065C18.4185 12.5065 18.1007 12.6382 17.8663 12.8725L12.8663 17.8725C12.6319 18.1069 12.5003 18.4248 12.5003 18.7563C12.5003 19.0877 12.6319 19.4056 12.8663 19.64L16.78 23.555C16.5575 23.8237 16.3387 24.0912 16.1287 24.3662L6.70875 14.9412C5.62064 13.8469 5.00684 12.3683 5 10.825ZM18.4412 21.6738L15.5175 18.75L18.75 15.5175L21.8587 18.625C20.6402 19.5486 19.4974 20.5681 18.4412 21.6738ZM17.3088 26.9775C17.9503 26.0364 18.6553 25.1402 19.4188 24.295C21.6848 21.7112 24.4223 19.5829 27.485 18.0237C30.6022 16.4112 34.0041 15.4223 37.5 15.1125H37.525C37.5721 15.115 37.6192 15.115 37.6662 15.1125C39.2188 14.9688 40.7812 14.9688 42.3338 15.1125C42.3713 15.1125 42.4088 15.1125 42.445 15.1125C47.1342 15.5303 51.6372 17.1471 55.5212 19.8075C57.4114 21.0936 59.127 22.6192 60.625 24.3462C60.8525 24.58 61.0775 24.8463 61.305 25.1325C61.2787 25.49 61.2488 25.8463 61.2475 26.21L60.93 31.2963C58.6397 27.0094 55.0878 23.5295 50.7549 21.3274C46.422 19.1254 41.5173 18.3074 36.7043 18.9842C31.8913 19.661 27.4024 21.8 23.8449 25.1116C20.2874 28.4232 17.833 32.7477 16.8138 37.5H12.9638C13.6573 33.7264 15.1378 30.1411 17.3088 26.9775ZM5 45C5 43.6739 5.52678 42.4021 6.46447 41.4645C7.40215 40.5268 8.67392 40 10 40H20C21.3261 40 22.5979 40.5268 23.5355 41.4645C24.4732 42.4021 25 43.6739 25 45C25 46.3261 24.4732 47.5979 23.5355 48.5355C22.5979 49.4732 21.3261 50 20 50H10C8.67392 50 7.40215 49.4732 6.46447 48.5355C5.52678 47.5979 5 46.3261 5 45ZM5 57.5C5 56.1739 5.52678 54.9021 6.46447 53.9645C7.40215 53.0268 8.67392 52.5 10 52.5H20C21.3261 52.5 22.5979 53.0268 23.5355 53.9645C24.4732 54.9021 25 56.1739 25 57.5C25 58.8261 24.4732 60.0979 23.5355 61.0355C22.5979 61.9732 21.3261 62.5 20 62.5H10C8.67392 62.5 7.40215 61.9732 6.46447 61.0355C5.52678 60.0979 5 58.8261 5 57.5ZM10 75C8.67392 75 7.40215 74.4732 6.46447 73.5355C5.52678 72.5979 5 71.3261 5 70C5 68.6739 5.52678 67.4021 6.46447 66.4645C7.40215 65.5268 8.67392 65 10 65H20C21.3261 65 22.5979 65.5268 23.5355 66.4645C24.4732 67.4021 25 68.6739 25 70C25 71.3261 24.4732 72.5979 23.5355 73.5355C22.5979 74.4732 21.3261 75 20 75H10ZM75 75H47.5225C47.7224 69.5895 49.1255 64.2915 51.6299 59.4913C54.1342 54.6911 57.6768 50.5093 62 47.25C62.1452 47.1417 62.2651 47.003 62.3515 46.8438C62.4378 46.6845 62.4885 46.5083 62.5 46.3275L63.75 26.3275C63.75 26.3025 63.75 26.2763 63.75 26.25C63.7536 23.1522 64.9058 20.1658 66.9839 17.8684C69.0619 15.571 71.9181 14.1259 75 13.8125V75Z" fill="#282828"/>
<path d="M51.6172 29.1163L42.5247 38.2088C41.7627 37.7493 40.8907 37.5044 40.0009 37.5C38.6749 37.5 37.4031 38.0268 36.4654 38.9645C35.5277 39.9022 35.0009 41.1739 35.0009 42.5C35.0053 43.3898 35.2502 44.2618 35.7097 45.0238L32.8672 47.8663L34.6347 49.6338L37.4772 46.7913C38.2391 47.2508 39.1112 47.4957 40.0009 47.5C41.327 47.5 42.5988 46.9732 43.5365 46.0356C44.4742 45.0979 45.0009 43.8261 45.0009 42.5C44.9966 41.6103 44.7517 40.7382 44.2922 39.9763L53.3847 30.8838L51.6172 29.1163ZM40.0009 45C39.5065 45 39.0231 44.8534 38.612 44.5787C38.2009 44.304 37.8805 43.9135 37.6912 43.4567C37.502 42.9999 37.4525 42.4972 37.549 42.0123C37.6454 41.5273 37.8835 41.0819 38.2332 40.7323C38.5828 40.3826 39.0283 40.1445 39.5132 40.0481C39.9982 39.9516 40.5008 40.0011 40.9576 40.1903C41.4145 40.3795 41.8049 40.7 42.0796 41.1111C42.3543 41.5222 42.5009 42.0056 42.5009 42.5C42.5009 43.1631 42.2375 43.799 41.7687 44.2678C41.2999 44.7366 40.664 45 40.0009 45Z" fill="#FF5C8B"/>
<path d="M41.25 23.75H38.75V28.75H41.25V23.75Z" fill="#282828"/>
<path d="M41.25 56.25H38.75V61.25H41.25V56.25Z" fill="#282828"/>
<path d="M31.706 25.6374L29.541 26.8875L32.0412 31.2176L34.2062 29.9675L31.706 25.6374Z" fill="#282828"/>
<path d="M24.3868 32.0425L23.1367 34.2075L27.4668 36.7077L28.7168 34.5427L24.3868 32.0425Z" fill="#282828"/>
<path d="M58.75 41.25H53.75V43.75H58.75V41.25Z" fill="#282828"/>
<path d="M55.6113 32.0423L51.2812 34.5425L52.5313 36.7075L56.8614 34.2073L55.6113 32.0423Z" fill="#282828"/>
<path d="M32.0406 53.7835L29.541 58.1139L31.7062 59.3637L34.2058 55.0333L32.0406 53.7835Z" fill="#282828"/>
<path d="M48.2926 25.6369L45.793 29.9673L47.9582 31.2171L50.4578 26.8868L48.2926 25.6369Z" fill="#282828"/>
</svg>
