<svg width="80" height="80" viewBox="0 0 80 80" fill="none" xmlns="http://www.w3.org/2000/svg">
<g clip-path="url(#clip0)">
<path d="M35.0328 42.2333C34.5677 41.7682 33.8133 41.7682 33.3488 42.2333C32.8837 42.6978 32.8837 43.4521 33.3488 43.9166C35.1982 45.7666 37.628 46.6913 40.0578 46.6913C42.487 46.6913 44.9168 45.7666 46.7668 43.9166C47.2319 43.4521 47.2319 42.6978 46.7668 42.2333C46.3017 41.7682 45.5479 41.7682 45.0828 42.2333C42.3118 45.0037 37.8032 45.0037 35.0328 42.2333Z" fill="#FF5C8B"/>
<path d="M34.1655 34.4098C34.6306 34.8749 35.3843 34.8749 35.8494 34.4098C36.3145 33.9447 36.3145 33.1909 35.8494 32.7258C32.7849 29.6619 27.7995 29.6619 24.7355 32.7258C24.2704 33.1909 24.2704 33.9453 24.7355 34.4098C24.9681 34.6423 25.2726 34.7589 25.5772 34.7589C25.8818 34.7589 26.187 34.6423 26.4195 34.4098C28.5551 32.2742 32.0298 32.2748 34.1655 34.4098Z" fill="#282828"/>
<path d="M44.2648 32.7258C43.7997 33.1909 43.7997 33.9447 44.2648 34.4098C44.7299 34.8749 45.4837 34.8749 45.9488 34.4098C48.0844 32.2748 51.5591 32.2742 53.6954 34.4098C53.9273 34.6423 54.2325 34.7589 54.537 34.7589C54.8416 34.7589 55.1468 34.6423 55.3793 34.4098C55.8444 33.9447 55.8444 33.1909 55.3793 32.7258C52.3148 29.6619 47.3288 29.6619 44.2648 32.7258Z" fill="#282828"/>
<path d="M64.3554 59.9426C63.7456 57.8693 63.4307 55.8362 63.4026 53.7451C63.3941 53.0933 62.8624 52.5708 62.2124 52.5708C62.2069 52.5708 62.2014 52.5708 62.1959 52.5708C61.5386 52.5793 61.0125 53.1195 61.0216 53.7769C61.0473 55.719 61.2963 57.6123 61.773 59.5221C61.2652 59.6246 60.7952 59.8315 60.385 60.1184C59.2833 57.8088 57.7819 55.6732 55.9704 53.8605C55.8135 53.7036 55.6524 53.5492 55.4894 53.396C59.8742 49.2554 62.5615 43.3966 62.5615 37.019V27.8882C62.5615 27.2308 62.0287 26.698 61.3708 26.698C54.0539 26.698 47.9156 26.0968 43.1267 24.9109C42.4883 24.7528 41.8426 25.1422 41.6851 25.7806C41.527 26.4191 41.9164 27.0648 42.5542 27.2229C47.2655 28.3893 53.1902 29.0112 60.18 29.0741V37.019C60.18 46.6522 53.3251 54.9622 43.8799 56.7786C42.6311 57.019 41.3445 57.1411 40.0567 57.1411C28.9611 57.1411 19.9346 48.114 19.9346 37.019V29.4629C21.5319 29.0369 24.815 27.9736 27.564 25.8661C29.3273 24.5142 30.5742 22.9694 31.3042 21.2488C32.5384 22.7966 34.7155 24.5502 38.5552 25.9967C38.6931 26.0486 38.8354 26.073 38.9745 26.073C39.4561 26.073 39.9096 25.7788 40.089 25.3021C40.3209 24.6863 40.0097 23.9996 39.3944 23.7677C35.5877 22.334 33.7938 20.6555 32.9589 19.4995C32.0971 18.3069 32.0733 17.4536 32.0727 17.4213V17.4103C32.0727 16.7529 31.5398 16.2256 30.8825 16.225H30.8819C30.3063 16.225 29.8266 16.6376 29.7155 17.1808C29.713 17.1912 29.7124 17.2009 29.7106 17.2113C29.7057 17.24 29.7002 17.2693 29.6972 17.2986C29.6953 17.3181 29.6953 17.3376 29.6941 17.3572C29.6935 17.3779 29.6911 17.3987 29.6911 17.4194C29.6874 19.9542 28.4844 22.16 26.1156 23.9764C22.8588 26.4728 18.557 27.3468 18.5149 27.3553C17.9564 27.4646 17.5536 27.9541 17.5536 28.5236V37.019C17.5536 43.4637 20.2776 49.2834 24.6337 53.3899C22.5933 55.3113 20.9282 57.5958 19.7277 60.1166C19.3175 59.8303 18.8482 59.624 18.3416 59.5221C20.1275 52.3602 18.4112 46.5546 16.599 40.434C14.8357 34.4769 13.0126 28.3173 14.1216 20.1099C15.1238 12.6935 18.3898 7.76306 24.107 5.03662C29.013 2.69714 34.9224 2.38159 40.0567 2.38159C45.1903 2.38159 51.0998 2.69714 56.0064 5.03662C61.7235 7.76306 64.9895 12.6935 65.9917 20.1099C67.1007 28.3173 65.2776 34.4769 63.5137 40.434C62.5969 43.5327 61.7302 46.4594 61.2969 49.5697C61.2066 50.2216 61.6607 50.8228 62.3125 50.9137C62.9625 51.0034 63.5656 50.5499 63.6559 49.8981C64.0642 46.9641 64.9065 44.1205 65.7976 41.1102C67.5469 35.2014 69.5293 28.504 68.352 19.7913C67.249 11.6309 63.4405 5.9436 57.0318 2.88757C51.6961 0.343018 45.4564 0 40.0567 0C34.6563 0 28.4166 0.343018 23.0816 2.88757C16.6729 5.9436 12.8643 11.6309 11.7614 19.7913C10.584 28.5034 12.5664 35.2008 14.3157 41.1102C16.1925 47.4512 17.8173 52.948 15.7592 59.942C14.6447 60.5841 13.8915 61.7871 13.8915 63.1628V73.5602C13.8915 77.1112 16.7809 80 20.3319 80H59.7832C63.3343 80 66.223 77.1112 66.223 73.5602V63.1628C66.2224 61.7871 65.4699 60.5841 64.3554 59.9426ZM62.5084 61.8304C63.2433 61.8304 63.8415 62.428 63.8415 63.1628V66.9495C63.0779 66.3281 62.1697 65.8789 61.1754 65.6586V63.1628C61.1754 62.428 61.7736 61.8304 62.5084 61.8304ZM44.3297 59.1168C45.9667 58.8025 47.5335 58.313 49.0136 57.6709C48.5106 59.1431 47.6488 60.4797 46.4818 61.5594C44.7283 63.1812 42.4468 64.0741 40.0567 64.0741C37.5286 64.0741 35.1519 63.0896 33.3635 61.3013C32.3314 60.2698 31.5606 59.0198 31.0973 57.6599C33.8439 58.8568 36.8743 59.5227 40.0567 59.5227C41.4953 59.5227 42.9333 59.386 44.3297 59.1168ZM26.4641 54.9408C27.0604 55.3943 27.6793 55.8191 28.3202 56.2122C28.6657 58.7653 29.8443 61.1517 31.6796 62.9852C33.9177 65.2234 36.8926 66.4557 40.0567 66.4557C43.048 66.4557 45.9038 65.3375 48.0987 63.3075C50.1262 61.4325 51.4214 58.9368 51.7919 56.2262C52.4376 55.8301 53.062 55.4034 53.662 54.9475C53.875 55.1422 54.0838 55.3418 54.2858 55.5438C56.2713 57.5305 57.8417 59.95 58.8445 62.5574C58.8122 62.7545 58.7938 62.9565 58.7938 63.1628V65.5811C55.711 66.0583 53.3428 68.7299 53.3428 71.9446V73.5596C53.3428 75.097 53.8854 76.51 54.7875 77.6184H25.327C26.2291 76.51 26.7711 75.097 26.7711 73.5596V71.9446C26.7711 68.7299 24.4036 66.0583 21.3207 65.5811V63.1628C21.3207 62.9559 21.303 62.7533 21.27 62.5555C22.3864 59.6558 24.1686 57.0459 26.4641 54.9408ZM18.9391 63.1628V65.6586C17.9455 65.8789 17.0366 66.3281 16.2731 66.9495V63.1628C16.2731 62.428 16.8712 61.8304 17.6061 61.8304C18.3416 61.8304 18.9391 62.428 18.9391 63.1628ZM16.2731 73.5602V71.9452C16.2731 69.707 18.0938 67.887 20.3319 67.887C22.5695 67.887 24.3902 69.707 24.3902 71.9452V73.5602C24.3902 75.7977 22.5695 77.6184 20.3319 77.6184C18.0938 77.6184 16.2731 75.7977 16.2731 73.5602ZM63.8415 73.5602C63.8415 75.7977 62.0208 77.6184 59.7826 77.6184C57.5451 77.6184 55.7244 75.7977 55.7244 73.5602V71.9452C55.7244 69.707 57.5451 67.887 59.7826 67.887C62.0208 67.887 63.8415 69.707 63.8415 71.9452V73.5602Z" fill="#282828"/>
<path d="M52.3613 39.2139C52.3613 39.8718 52.8942 40.4047 53.5515 40.4047H56.198C56.856 40.4047 57.3888 39.8718 57.3888 39.2139C57.3888 38.5565 56.856 38.0231 56.198 38.0231H53.5515C52.8942 38.0231 52.3613 38.5565 52.3613 39.2139Z" fill="#FF5C8B"/>
<path d="M23.9174 38.0231C23.2594 38.0231 22.7266 38.5565 22.7266 39.2139C22.7266 39.8718 23.2594 40.4047 23.9174 40.4047H26.5632C27.2212 40.4047 27.754 39.8718 27.754 39.2139C27.754 38.5565 27.2212 38.0231 26.5632 38.0231H23.9174Z" fill="#FF5C8B"/>
</g>
<defs>
<clipPath id="clip0">
<rect width="80" height="80" fill="white"/>
</clipPath>
</defs>
</svg>
