<svg width="80" height="80" viewBox="0 0 80 80" fill="none" xmlns="http://www.w3.org/2000/svg">
<path d="M5.33333 58.6667H8V56H5.33333C3.86033 56 2.66667 54.8063 2.66667 53.3333V5.33333C2.66667 3.86033 3.86033 2.66667 5.33333 2.66667H64C65.473 2.66667 66.6667 3.86033 66.6667 5.33333V8H69.3333V5.33333C69.3333 2.388 66.9453 0 64 0H5.33333C2.388 0 0 2.388 0 5.33333V53.3333C0 56.2787 2.388 58.6667 5.33333 58.6667Z" fill="white"/>
<path d="M5.3335 5.33325H8.00016V7.99992H5.3335V5.33325Z" fill="white"/>
<path d="M10.6665 5.33325H13.3332V7.99992H10.6665V5.33325Z" fill="white"/>
<path d="M16 5.33325H18.6667V7.99992H16V5.33325Z" fill="white"/>
<path d="M74.6665 10.6667H15.9998C13.0545 10.6667 10.6665 13.0547 10.6665 16.0001V64.0001C10.6665 66.9454 13.0545 69.3334 15.9998 69.3334H74.6665C77.6118 69.3334 79.9998 66.9454 79.9998 64.0001V16.0001C79.9998 13.0547 77.6118 10.6667 74.6665 10.6667ZM77.3332 64.0001C77.3332 65.4731 76.1395 66.6667 74.6665 66.6667H15.9998C14.5268 66.6667 13.3332 65.4731 13.3332 64.0001V16.0001C13.3332 14.5271 14.5268 13.3334 15.9998 13.3334H74.6665C76.1395 13.3334 77.3332 14.5271 77.3332 16.0001V64.0001Z" fill="white"/>
<path d="M16 16H18.6667V18.6667H16V16Z" fill="white"/>
<path d="M21.3335 16H24.0002V18.6667H21.3335V16Z" fill="white"/>
<path d="M26.6665 16H29.3332V18.6667H26.6665V16Z" fill="white"/>
<path d="M16 21.3333H74.6667V23.9999H16V21.3333Z" fill="white"/>
<path d="M18.6665 44H26.6665V46.6667H18.6665V44Z" fill="white"/>
<path d="M18.6665 50.6667H46.6665V53.3334H18.6665V50.6667Z" fill="white"/>
<path d="M18.6665 57.3333H33.3332V59.9999H18.6665V57.3333Z" fill="white"/>
<path d="M42.6665 37.3333H55.9999V39.9999H42.6665V37.3333Z" fill="white"/>
<path d="M62.6665 50.6667H71.9998V53.3334H62.6665V50.6667Z" fill="white"/>
<path d="M50.6665 57.3333H71.9998V59.9999H50.6665V57.3333Z" fill="white"/>
<path d="M30.6665 44H50.6665V46.6667H30.6665V44Z" fill="white"/>
<path d="M42.6665 30.6667H51.9999V33.3334H42.6665V30.6667Z" fill="white"/>
<path d="M54.6665 30.6667H71.9998V33.3334H54.6665V30.6667Z" fill="white"/>
<path d="M36 57.3333H48V59.9999H36V57.3333Z" fill="white"/>
<path d="M53.3335 44H72.0002V46.6667H53.3335V44Z" fill="white"/>
<path d="M58.6665 37.3333H71.9998V39.9999H58.6665V37.3333Z" fill="white"/>
<path d="M49.3335 50.6667H60.0002V53.3334H49.3335V50.6667Z" fill="white"/>
<path d="M23.0572 29.724L19.0572 33.724C18.5369 34.245 18.5369 35.0883 19.0572 35.6093L23.0572 39.6093L24.9426 37.724L21.8852 34.6667L24.9426 31.6093L23.0572 29.724Z" fill="white"/>
<path d="M35.6095 39.6093L39.6094 35.6093C40.1298 35.0883 40.1298 34.245 39.6094 33.724L35.6095 29.724L33.7241 31.6093L36.7815 34.6667L33.7241 37.724L35.6095 39.6093Z" fill="white"/>
<path d="M26.7061 39.6769L29.3741 29.0103L31.9604 29.6573L29.2921 40.3233L26.7061 39.6769Z" fill="white"/>
<path d="M59.9999 72H30.6666C30.3129 72 29.9739 72.1407 29.7239 72.3907L27.0572 75.0573C26.5369 75.5783 26.5369 76.4217 27.0572 76.9427L29.7239 79.6093C29.9739 79.8593 30.3129 80 30.6666 80H59.9999C62.2086 80 63.9999 78.2087 63.9999 76C63.9999 73.7913 62.2086 72 59.9999 72ZM55.9999 77.3333H31.2186L29.8852 76L31.2186 74.6667H55.9999V77.3333ZM59.9999 77.3333H58.6666V74.6667H59.9999C60.7366 74.6667 61.3332 75.2633 61.3332 76C61.3332 76.7367 60.7366 77.3333 59.9999 77.3333Z" fill="white"/>
</svg>
