<svg width="80" height="60" viewBox="0 0 80 60" fill="none" xmlns="http://www.w3.org/2000/svg">
<path d="M78.6667 48.7095H76V7.37614C75.9953 3.69614 73.0133 0.714139 69.3333 0.709473H10.6667C6.98667 0.714139 4.00467 3.69614 4 7.37614V48.7095H1.33333C0.596667 48.7095 0 49.3061 0 50.0428V54.0428C0 56.9881 2.388 59.3761 5.33333 59.3761H74.6667C77.612 59.3761 80 56.9881 80 54.0428V50.0428C80 49.3061 79.4033 48.7095 78.6667 48.7095ZM6.66667 7.37614C6.66667 5.16747 8.458 3.37614 10.6667 3.37614H69.3333C71.542 3.37614 73.3333 5.16747 73.3333 7.37614V48.7095H70.6667V10.0428C70.6667 7.83414 68.8753 6.04281 66.6667 6.04281H13.3333C11.1247 6.04281 9.33333 7.83414 9.33333 10.0428V48.7095H6.66667V7.37614ZM68 10.0428V48.7095H48.1573C46.734 48.7015 45.4317 49.5058 44.8 50.7801C44.62 51.1468 44.245 51.3788 43.836 51.3761H36.1573C35.748 51.3788 35.374 51.1468 35.1933 50.7801C34.5627 49.5075 33.263 48.7045 31.8427 48.7095H12V10.0428C12 9.30614 12.5967 8.70947 13.3333 8.70947H66.6667C67.4033 8.70947 68 9.30614 68 10.0428ZM77.3333 54.0428C77.3333 55.5158 76.1397 56.7095 74.6667 56.7095H5.33333C3.86033 56.7095 2.66667 55.5158 2.66667 54.0428V51.3761H31.8427C32.252 51.3735 32.626 51.6055 32.8067 51.9721C33.4373 53.2448 34.737 54.0478 36.1573 54.0428H43.8427C45.266 54.0508 46.5683 53.2465 47.2 51.9721C47.3797 51.6075 47.7503 51.3761 48.1573 51.3761H77.3333V54.0428Z" fill="white"/>
<path d="M40.0001 16.7095C32.8048 16.7128 26.0961 20.3408 22.1541 26.3598C18.2128 32.3795 17.5688 39.9798 20.4428 46.5762L22.8868 45.5095C22.0421 43.5658 21.5398 41.4908 21.4008 39.3762H24.0601C24.2768 42.0135 25.1481 44.5545 26.5934 46.7712L28.8284 45.3145C25.2034 39.7408 26.2384 32.3478 31.2561 27.9848C36.2731 23.6211 43.7374 23.6211 48.7551 27.9848C53.7718 32.3478 54.8081 39.7408 51.1831 45.3145L53.4171 46.7712C54.8594 44.5535 55.7268 42.0122 55.9401 39.3762H58.5994C58.4604 41.4908 57.9581 43.5658 57.1134 45.5095L59.5574 46.5762C62.4314 39.9798 61.7874 32.3795 57.8461 26.3598C53.9041 20.3408 47.1954 16.7128 40.0001 16.7095ZM24.0674 36.7095H21.4008C21.6851 32.6928 23.2668 28.8762 25.9094 25.8378L27.7938 27.7211C25.6438 30.2555 24.3418 33.3978 24.0674 36.7095ZM38.6668 22.1101C35.3551 22.3845 32.2128 23.6865 29.6784 25.8365L27.7951 23.9521C30.8334 21.3095 34.6501 19.7278 38.6668 19.4435V22.1101ZM50.3218 25.8365C47.7874 23.6865 44.6451 22.3845 41.3334 22.1101V19.4435C45.3501 19.7278 49.1668 21.3095 52.2051 23.9521L50.3218 25.8365ZM55.9328 36.7095C55.6584 33.3978 54.3564 30.2555 52.2064 27.7211L54.0908 25.8378C56.7334 28.8762 58.3151 32.6928 58.5994 36.7095H55.9328Z" fill="white"/>
<path d="M41.7133 34.4429C41.1797 34.1825 40.5937 34.0455 40 34.0429C37.7913 34.0429 36 35.8342 36 38.0429C36 40.2515 37.7913 42.0429 40 42.0429C42.2087 42.0429 44 40.2515 44 38.0429C43.9974 37.4492 43.8604 36.8632 43.6 36.3295L48.9437 30.9856L47.0584 29.1002L41.7133 34.4429ZM40 39.3762C39.2633 39.3762 38.6667 38.7795 38.6667 38.0429C38.6667 37.3062 39.2633 36.7095 40 36.7095C40.7367 36.7095 41.3333 37.3062 41.3333 38.0429C41.3333 38.7795 40.7367 39.3762 40 39.3762Z" fill="white"/>
<path d="M34.667 44.7095H41.3336V47.3761H34.667V44.7095Z" fill="white"/>
<path d="M44 44.7095H46.6667V47.3761H44V44.7095Z" fill="white"/>
<path d="M14.667 11.3762H17.3337V14.0429H14.667V11.3762Z" fill="white"/>
<path d="M25.333 11.3762H27.9997V14.0429H25.333V11.3762Z" fill="white"/>
<path d="M14.667 16.7095H21.3337V19.3761H14.667V16.7095Z" fill="white"/>
<path d="M53.3335 11.3762H65.3335V14.0429H53.3335V11.3762Z" fill="white"/>
<path d="M57.3335 16.7095H65.3335V19.3761H57.3335V16.7095Z" fill="white"/>
<path d="M20 11.3762H22.6667V14.0429H20V11.3762Z" fill="white"/>
</svg>
