<svg width="80" height="80" viewBox="0 0 80 80" fill="none" xmlns="http://www.w3.org/2000/svg">
<path d="M78.6545 69.3164H75.9882V66.6501H73.322V69.3164H70.6557V66.6501H67.9895V69.3164H48.1501C46.7271 69.3092 45.4246 70.1125 44.7932 71.387C44.6129 71.7535 44.2379 71.9852 43.8291 71.9826H36.152C35.7425 71.9852 35.3682 71.7535 35.1879 71.387C34.5571 70.1144 33.2579 69.3111 31.8375 69.3164H11.9981V45.3201H9.33189V69.3164H6.66563V45.3201H3.99938V69.3164H1.33313C0.596913 69.3164 0 69.9133 0 70.6495V74.6489C0 77.5937 2.38765 79.9814 5.33251 79.9814H74.6551C77.6 79.9814 79.9876 77.5937 79.9876 74.6489V70.6495C79.9876 69.9133 79.3907 69.3164 78.6545 69.3164ZM77.3214 74.6489C77.3214 76.1213 76.1275 77.3151 74.6551 77.3151H5.33251C3.86008 77.3151 2.66625 76.1213 2.66625 74.6489V71.9826H31.8375C32.247 71.98 32.6212 72.2117 32.8016 72.5782C33.4323 73.8508 34.7316 74.6541 36.152 74.6489H43.8357C45.2586 74.6567 46.5611 73.8528 47.1926 72.5782C47.3722 72.2137 47.7433 71.9826 48.1501 71.9826H77.3214V74.6489Z" fill="white"/>
<path d="M34.6614 21.324V18.6577H10.6651C6.98538 18.6623 4.00407 21.6436 3.99951 25.3233V26.6565H6.66576V25.3233C6.66576 23.1147 8.4565 21.324 10.6651 21.324H34.6614Z" fill="white"/>
<path d="M9.33203 26.6564H37.3277V23.9901H11.9983C10.5259 23.9901 9.33203 25.1839 9.33203 26.6564Z" fill="white"/>
<path d="M75.6388 16.7739L77.2388 11.7311C77.3527 11.3737 77.311 10.9844 77.1242 10.6596C76.9367 10.3348 76.621 10.1037 76.2552 10.023L71.0835 8.8923L69.9587 3.72644C69.8792 3.36061 69.6501 3.04425 69.3259 2.85613C69.0018 2.66736 68.6138 2.62374 68.2564 2.73635L63.213 4.33572L59.6425 0.428769C59.3841 0.162534 59.0287 0.0128174 58.6577 0.0128174C58.2866 0.0128174 57.9312 0.162534 57.6728 0.428769L54.1076 4.34288L49.0589 2.73635C48.7015 2.62179 48.3129 2.6641 47.9874 2.85157C47.6626 3.03904 47.4315 3.35475 47.3515 3.72123L46.2208 8.8923L41.0601 10.023C40.6937 10.1031 40.3779 10.3341 40.1905 10.659C40.003 10.9844 39.9613 11.373 40.0753 11.7311L41.6753 16.7739L37.7612 20.3391C37.4839 20.5917 37.3257 20.949 37.3257 21.324C37.3257 21.6989 37.4839 22.0563 37.7612 22.3088L41.6753 25.8741L40.0753 30.9169C39.9613 31.2749 40.003 31.6635 40.1905 31.989C40.3779 32.3138 40.6937 32.5449 41.0601 32.625L46.2319 33.7556L47.3619 38.9267C47.442 39.2932 47.673 39.6089 47.9985 39.7964C48.3233 39.9839 48.7126 40.0262 49.07 39.9116L54.1128 38.3051L57.678 42.2192C57.9306 42.4965 58.2879 42.6547 58.6629 42.6547C59.0378 42.6547 59.3958 42.4965 59.6484 42.2192L63.213 38.3051L68.2564 39.9116C68.6138 40.0262 69.0024 39.9839 69.3279 39.7964C69.6527 39.6089 69.8838 39.2932 69.9639 38.9267L71.0945 33.7556L76.2656 32.625C76.6321 32.5449 76.9478 32.3138 77.1353 31.989C77.3228 31.6635 77.3651 31.2749 77.2505 30.9169L75.6511 25.8741L79.5652 22.3088C79.8419 22.0563 80.0001 21.6989 80.0001 21.324C80.0001 20.949 79.8419 20.5917 79.5652 20.3391L75.6388 16.7739ZM73.2114 24.4784C72.8267 24.8293 72.6809 25.3722 72.8397 25.8688L74.2555 30.333L69.6787 31.3341C69.171 31.4461 68.7746 31.8425 68.6626 32.3503L67.6667 36.9218L63.2025 35.5002C62.7059 35.3439 62.1636 35.4891 61.8121 35.8725L58.6577 39.3414L55.5032 35.8751C55.2506 35.5978 54.8933 35.4403 54.5183 35.4403C54.3823 35.4409 54.2475 35.4618 54.1187 35.5034L49.6486 36.9218L48.6475 32.3451C48.5355 31.8373 48.1391 31.4409 47.6314 31.3289L43.0598 30.333L44.4815 25.8688C44.6397 25.3722 44.4945 24.8293 44.1091 24.4784L40.6403 21.324L44.1065 18.1695C44.4919 17.8187 44.6371 17.2758 44.4782 16.7791L43.0598 12.315L47.6366 11.3138C48.1443 11.2018 48.5407 10.8054 48.6527 10.2977L49.6486 5.72613L54.1128 7.14778C54.6095 7.30596 55.1524 7.1608 55.5032 6.77544L58.6577 3.30658L61.8121 6.77284C62.163 7.1582 62.7059 7.30336 63.2025 7.14453L67.6667 5.72613L68.6678 10.3029C68.7798 10.8106 69.1762 11.2071 69.684 11.319L74.2607 12.3202L72.8397 16.785C72.6809 17.281 72.8267 17.8239 73.2114 18.1754L76.6751 21.324L73.2114 24.4784Z" fill="white"/>
<path d="M51.0493 27.047L64.3799 13.7157L66.2657 15.6008L52.9344 28.9321L51.0493 27.047Z" fill="white"/>
<path d="M55.991 17.3243C55.991 15.1157 54.2002 13.325 51.9916 13.325C49.7829 13.325 47.9922 15.1157 47.9922 17.3243C47.9922 19.533 49.7829 21.3237 51.9916 21.3237C54.2002 21.3237 55.991 19.533 55.991 17.3243ZM50.6584 17.3243C50.6584 16.5881 51.2554 15.9912 51.9916 15.9912C52.7278 15.9912 53.3247 16.5881 53.3247 17.3243C53.3247 18.0605 52.7278 18.6575 51.9916 18.6575C51.2554 18.6575 50.6584 18.0605 50.6584 17.3243Z" fill="white"/>
<path d="M65.3231 21.3239C63.1145 21.3239 61.3237 23.1146 61.3237 25.3232C61.3237 27.5319 63.1145 29.3226 65.3231 29.3226C67.5318 29.3226 69.3225 27.5319 69.3225 25.3232C69.3225 23.1146 67.5318 21.3239 65.3231 21.3239ZM65.3231 26.6564C64.5869 26.6564 63.99 26.0595 63.99 25.3232C63.99 24.587 64.5869 23.9901 65.3231 23.9901C66.0593 23.9901 66.6562 24.587 66.6562 25.3232C66.6562 26.0595 66.0593 26.6564 65.3231 26.6564Z" fill="white"/>
<path d="M34.6131 35.6777C34.1672 35.5709 33.6973 35.7031 33.3724 36.0266L20.3608 48.9035L17.1972 50.786C15.0973 52.0072 14.1495 54.5393 14.9313 56.8398C15.5432 58.7047 17.1783 60.0476 19.1266 60.2872L21.9035 65.9061C22.1287 66.3624 22.5942 66.6508 23.1032 66.6488H28.3478C28.7976 66.6494 29.2175 66.4229 29.4642 66.0467C29.7109 65.6704 29.7513 65.1946 29.5716 64.7826L26.8116 58.4111L41.3042 58.6513H41.3269C41.7579 58.6513 42.1621 58.443 42.4121 58.0922C42.662 57.7413 42.7271 57.2909 42.5865 56.8834L35.5707 36.5402C35.4209 36.1073 35.0597 35.7818 34.6131 35.6777ZM17.4641 55.9851C17.0892 54.8772 17.5468 53.6593 18.5583 53.0721L20.6407 51.8366L22.9724 56.4479L20.9981 57.425C20.336 57.7537 19.5634 57.7784 18.8812 57.494C18.2107 57.2225 17.6926 56.6712 17.4641 55.9851ZM23.9325 63.9838L21.9165 59.9122C22.0005 59.8751 22.091 59.8608 22.175 59.8191L24.0978 58.8675L26.313 63.9838H23.9325ZM25.5963 55.7306L22.8181 50.2301L33.7493 39.4128L39.4542 55.9545L25.5963 55.7306Z" fill="white"/>
<path d="M41.5405 45.66L45.9494 44.1277L46.8236 46.6449L42.4154 48.1772L41.5405 45.66Z" fill="white"/>
<path d="M38.0762 36.7973L41.0165 33.7327L42.9407 35.5787L39.9997 38.6434L38.0762 36.7973Z" fill="white"/>
<path d="M45.3262 54.6521H49.3256V57.3183H45.3262V54.6521Z" fill="white"/>
<path d="M78.6547 45.3202H75.9885V35.9883H73.3222V45.3202H70.656V42.6539H67.9897V45.3202H53.3253C52.5891 45.3202 51.9922 45.9171 51.9922 46.6533V62.6508C51.9922 63.387 52.5891 63.9839 53.3253 63.9839H78.6547C79.3909 63.9839 79.9879 63.387 79.9879 62.6508V46.6533C79.9879 45.9171 79.3909 45.3202 78.6547 45.3202ZM77.3216 61.3177H54.6584V47.9864H77.3216V61.3177Z" fill="white"/>
<path d="M57.3242 50.6526H62.6567V53.3189H57.3242V50.6526Z" fill="white"/>
<path d="M65.3232 50.6526H74.6552V53.3189H65.3232V50.6526Z" fill="white"/>
<path d="M57.3242 55.9852H74.6549V58.6515H57.3242V55.9852Z" fill="white"/>
<path d="M1.33313 42.6538H21.33C22.0662 42.6538 22.6632 42.0569 22.6632 41.3207V30.6556C22.6632 29.9194 22.0662 29.3225 21.33 29.3225H1.33313C0.596913 29.3225 0 29.9194 0 30.6556V41.3207C0 42.0569 0.596913 42.6538 1.33313 42.6538ZM2.66625 31.9888H19.9969V39.9875H2.66625V31.9888Z" fill="white"/>
<path d="M5.33252 34.6552H7.99877V37.3214H5.33252V34.6552Z" fill="white"/>
<path d="M10.665 34.6552H17.3307V37.3214H10.665V34.6552Z" fill="white"/>
</svg>
