<svg width="69" height="54" viewBox="0 0 69 54" fill="none" xmlns="http://www.w3.org/2000/svg">
<path d="M12.996 40.36C11.916 40.36 10.956 40.216 10.116 39.928C9.3 39.64 8.532 39.22 7.812 38.668L7.488 40H1.62V15.736H8.388V23.548C8.964 23.236 9.636 22.996 10.404 22.828C11.196 22.66 11.988 22.576 12.78 22.576C18.228 22.576 20.952 25.492 20.952 31.324C20.952 34.3 20.244 36.556 18.828 38.092C17.412 39.604 15.468 40.36 12.996 40.36ZM11.052 35.464C12.108 35.464 12.864 35.152 13.32 34.528C13.8 33.88 14.04 32.836 14.04 31.396C14.04 29.98 13.8 28.972 13.32 28.372C12.84 27.772 12.084 27.472 11.052 27.472C9.948 27.472 9.06 27.772 8.388 28.372V34.42C9.132 35.116 10.02 35.464 11.052 35.464ZM29.2832 40.36C27.2192 40.36 25.7312 39.928 24.8192 39.064C23.9312 38.176 23.4872 36.772 23.4872 34.852V15.736H30.2552V34.096C30.2552 34.6 30.3512 34.948 30.5432 35.14C30.7592 35.332 31.1072 35.428 31.5872 35.428C32.2832 35.428 32.8712 35.332 33.3512 35.14V39.64C32.7032 39.904 32.0792 40.084 31.4792 40.18C30.9032 40.3 30.1712 40.36 29.2832 40.36ZM43.3212 40.36C36.6732 40.36 33.3492 37.396 33.3492 31.468C33.3492 28.564 34.1772 26.356 35.8332 24.844C37.4892 23.332 39.9852 22.576 43.3212 22.576C46.6812 22.576 49.1892 23.332 50.8452 24.844C52.5252 26.356 53.3652 28.564 53.3652 31.468C53.3652 37.396 50.0172 40.36 43.3212 40.36ZM43.3212 35.428C44.4252 35.428 45.2172 35.116 45.6972 34.492C46.2012 33.868 46.4532 32.86 46.4532 31.468C46.4532 30.1 46.2012 29.104 45.6972 28.48C45.2172 27.832 44.4252 27.508 43.3212 27.508C42.2412 27.508 41.4612 27.832 40.9812 28.48C40.5012 29.104 40.2612 30.1 40.2612 31.468C40.2612 32.86 40.5012 33.868 40.9812 34.492C41.4612 35.116 42.2412 35.428 43.3212 35.428ZM55.9013 22.936H62.4173L62.5973 24.304C63.3413 23.872 64.2413 23.5 65.2973 23.188C66.3773 22.852 67.4573 22.648 68.5373 22.576V27.616C67.5293 27.688 66.4613 27.844 65.3333 28.084C64.2053 28.324 63.3173 28.6 62.6693 28.912V40H55.9013V22.936Z" fill="#372F31"/>
<rect x="9" y="49" width="29" height="4" fill="#D02659"/>
</svg>
