<svg width="176" height="31" viewBox="0 0 176 31" fill="none" xmlns="http://www.w3.org/2000/svg">
<path fill-rule="evenodd" clip-rule="evenodd" d="M14.0469 16.5729V8.8922L25.7225 0V7.70496L14.4511 16.2822L14.0469 16.5729ZM39.8236 16.5729V8.8922L28.1717 0V7.70496L39.4431 16.2822L39.8236 16.5729Z" fill="#B6B6B6"/>
<path d="M0 21.9927V14.312L0.404243 14.6028L11.6756 23.2042V30.8849L0 21.9927Z" fill="#646464"/>
<path d="M25.7534 21.9927V14.312L25.3729 14.6028L14.1016 23.2042V30.8849L25.7534 21.9927Z" fill="#646464"/>
<path d="M58.7066 24C56.933 24 55.3852 23.6266 54.0631 22.8797C52.7571 22.1328 51.7494 21.0788 51.04 19.7178C50.3467 18.3568 50 16.7801 50 14.9876C50 13.195 50.3467 11.6266 51.04 10.2822C51.7494 8.92116 52.7571 7.86722 54.0631 7.12033C55.3852 6.37344 56.933 6 58.7066 6C59.8191 6 60.8913 6.17427 61.9232 6.52282C62.9712 6.87137 63.8257 7.3361 64.4868 7.91701L63.1082 11.1535C61.7055 10.1411 60.2705 9.63485 58.8033 9.63485C57.4167 9.63485 56.3526 10.083 55.6109 10.9793C54.8854 11.8755 54.5226 13.2116 54.5226 14.9876C54.5226 16.7635 54.8854 18.1079 55.6109 19.0207C56.3526 19.917 57.4167 20.3651 58.8033 20.3651C60.2705 20.3651 61.7055 19.8589 63.1082 18.8465L64.4868 22.083C63.8257 22.6639 62.9712 23.1286 61.9232 23.4772C60.8913 23.8257 59.8191 24 58.7066 24Z" fill="#818181"/>
<path d="M75.7596 24C74.0183 24 72.5027 23.6349 71.2128 22.9046C69.9391 22.1577 68.9556 21.112 68.2623 19.7676C67.569 18.4066 67.2223 16.8133 67.2223 14.9876C67.2223 13.1618 67.569 11.5768 68.2623 10.2324C68.9556 8.87137 69.9391 7.82573 71.2128 7.09544C72.5027 6.36515 74.0183 6 75.7596 6C77.5009 6 79.0085 6.36515 80.2822 7.09544C81.5721 7.82573 82.5556 8.87137 83.2328 10.2324C83.9261 11.5768 84.2727 13.1618 84.2727 14.9876C84.2727 16.8133 83.9261 18.4066 83.2328 19.7676C82.5395 21.112 81.5479 22.1577 80.258 22.9046C78.9843 23.6349 77.4848 24 75.7596 24ZM75.7596 20.4896C77.0495 20.4896 78.0572 20.0249 78.7827 19.0954C79.5083 18.1494 79.8711 16.7801 79.8711 14.9876C79.8711 13.195 79.5002 11.834 78.7586 10.9046C78.033 9.9751 77.0334 9.51037 75.7596 9.51037C74.4698 9.51037 73.462 9.9751 72.7365 10.9046C72.011 11.8174 71.6482 13.1784 71.6482 14.9876C71.6482 16.7967 72.011 18.166 72.7365 19.0954C73.462 20.0249 74.4698 20.4896 75.7596 20.4896Z" fill="#818181"/>
<path d="M88.1157 6.22407H95.0568C96.9432 6.22407 98.5636 6.57261 99.9179 7.26971C101.288 7.9668 102.336 8.97925 103.062 10.3071C103.788 11.6183 104.15 13.1784 104.15 14.9876C104.15 16.8133 103.788 18.39 103.062 19.7178C102.353 21.029 101.313 22.0332 99.9421 22.7303C98.5878 23.4274 96.9593 23.7759 95.0568 23.7759H88.1157V6.22407ZM94.7423 20.0913C96.4192 20.0913 97.6687 19.668 98.491 18.8216C99.3133 17.9751 99.7244 16.6971 99.7244 14.9876C99.7244 13.278 99.3133 12.0083 98.491 11.1784C97.6687 10.3319 96.4192 9.90871 94.7423 9.90871H92.5657V20.0913H94.7423Z" fill="#818181"/>
<path d="M108.03 6.22407H120.147V9.75934H112.36V13.0954H119.663V16.6058H112.36V20.2407H120.147V23.7759H108.03V6.22407Z" fill="#818181"/>
<path d="M129.601 24C128.328 24 127.07 23.8257 125.829 23.4772C124.587 23.1286 123.579 22.6639 122.805 22.083L124.184 18.8465C125.006 19.3776 125.885 19.7842 126.82 20.0664C127.755 20.3485 128.698 20.4896 129.65 20.4896C130.617 20.4896 131.351 20.3568 131.851 20.0913C132.367 19.8091 132.624 19.4191 132.624 18.9212C132.624 18.473 132.391 18.1079 131.923 17.8257C131.472 17.5436 130.601 17.2614 129.311 16.9793C127.715 16.6307 126.465 16.2158 125.562 15.7344C124.66 15.2531 124.023 14.6888 123.652 14.0415C123.297 13.3942 123.12 12.5975 123.12 11.6515C123.12 10.5726 123.41 9.60996 123.99 8.76348C124.587 7.90041 125.417 7.22822 126.482 6.74689C127.562 6.24896 128.795 6 130.182 6C131.407 6 132.592 6.18257 133.737 6.54772C134.898 6.89627 135.801 7.3527 136.446 7.91701L135.091 11.1535C133.544 10.0581 131.915 9.51037 130.206 9.51037C129.384 9.51037 128.723 9.67635 128.223 10.0083C127.723 10.3237 127.473 10.7469 127.473 11.278C127.473 11.5934 127.562 11.8506 127.739 12.0498C127.916 12.249 128.247 12.4481 128.731 12.6473C129.214 12.8299 129.932 13.0207 130.883 13.2199C132.431 13.5685 133.648 13.9917 134.535 14.4896C135.422 14.971 136.051 15.5353 136.422 16.1826C136.792 16.8299 136.978 17.6017 136.978 18.4979C136.978 20.2241 136.333 21.5768 135.043 22.556C133.753 23.5187 131.939 24 129.601 24Z" fill="#818181"/>
<path d="M152.022 23.7759L145.154 15.834V23.7759H140.704V6.22407H145.154V13.7676L151.829 6.22407H157.029L149.507 14.5643L157.295 23.7759H152.022Z" fill="#818181"/>
<path d="M170.075 20.1411H162.529L161.005 23.7759H156.531L164.488 6.22407H168.019L176 23.7759H171.598L170.075 20.1411ZM168.648 16.7054L166.302 11.0788L163.956 16.7054H168.648Z" fill="#818181"/>
</svg>
