<svg width="124" height="35" viewBox="0 0 124 35" fill="none" xmlns="http://www.w3.org/2000/svg">
<g clip-path="url(#clip0)">
<path d="M39.3549 27.7264V28.7393C39.1766 28.5125 38.9514 28.3298 38.6958 28.2047C38.4492 28.0788 38.1782 28.0125 37.9032 28.0107C37.6858 28.006 37.4698 28.0468 37.2681 28.1308C37.0664 28.2147 36.8833 28.3401 36.7297 28.4993C36.5656 28.6756 36.439 28.8856 36.3582 29.1157C36.2774 29.3457 36.2442 29.5908 36.2608 29.835C36.2469 30.0808 36.2825 30.3269 36.3651 30.5578C36.4478 30.7887 36.5757 30.9994 36.741 31.1767C36.8914 31.3325 37.0712 31.4546 37.2692 31.5355C37.4672 31.6164 37.6791 31.6544 37.8919 31.6469C38.1775 31.6464 38.4589 31.5759 38.7131 31.4413C38.9741 31.3069 39.2044 31.1167 39.3889 30.8832V31.896C39.1785 32.0652 38.9411 32.1949 38.6873 32.2791C38.4349 32.3614 38.1718 32.403 37.9072 32.4024C37.5768 32.4104 37.2482 32.3499 36.9408 32.2244C36.6334 32.099 36.3534 31.9111 36.1174 31.6719C35.8854 31.4339 35.7034 31.1489 35.5826 30.8348C35.4619 30.5207 35.4051 30.1842 35.4158 29.8464C35.4022 29.5036 35.4572 29.1616 35.5774 28.8418C35.6976 28.5221 35.8804 28.2314 36.1143 27.9881C36.3482 27.7448 36.6282 27.5541 36.9367 27.4279C37.2452 27.3018 37.5756 27.2429 37.9072 27.2549C38.1639 27.2622 38.4186 27.3038 38.6649 27.3788C38.9116 27.4553 39.1446 27.5726 39.3549 27.7264ZM44.002 32.4024C43.6742 32.4123 43.3477 32.3532 43.0426 32.2287C42.7374 32.1043 42.46 31.9169 42.227 31.6782C41.993 31.4381 41.8101 31.1501 41.6901 30.8326C41.5702 30.5152 41.5157 30.1753 41.5303 29.8348C41.5197 29.495 41.5763 29.1567 41.6965 28.8403C41.8167 28.5239 41.998 28.2362 42.2293 27.9948C42.4606 27.7533 42.7372 27.5632 43.042 27.436C43.3468 27.3088 43.6734 27.2472 44.002 27.2549C44.3301 27.245 44.6566 27.3053 44.961 27.432C45.2655 27.5587 45.5414 27.7491 45.7713 27.9912C46.0028 28.2335 46.1844 28.5218 46.3051 28.8387C46.4258 29.1556 46.4831 29.4945 46.4737 29.835C46.4849 30.1751 46.4277 30.514 46.3059 30.8302C46.1841 31.1465 46.0002 31.4331 45.7659 31.6721C45.5335 31.9089 45.2578 32.0954 44.955 32.2208C44.6522 32.3461 44.3282 32.4079 44.002 32.4024ZM44.002 28.0107C43.7878 28.0065 43.575 28.0477 43.3766 28.1317C43.1783 28.2157 42.9988 28.3408 42.8489 28.4993C42.6866 28.6771 42.5609 28.8872 42.4795 29.1168C42.3981 29.3464 42.3628 29.5908 42.3756 29.835C42.3615 30.0793 42.3962 30.3241 42.4776 30.5539C42.5591 30.7838 42.6855 30.9938 42.8489 31.1708C43.1591 31.4764 43.571 31.6468 43.9994 31.6468C44.4278 31.6468 44.8397 31.4764 45.1499 31.1708C45.315 30.9947 45.4429 30.785 45.5254 30.555C45.6079 30.325 45.6433 30.0798 45.6292 29.835C45.6419 29.5903 45.6059 29.3455 45.5235 29.1157C45.441 28.886 45.3139 28.6762 45.1499 28.4993C45.0005 28.3418 44.8217 28.2172 44.6244 28.1333C44.4271 28.0493 44.2154 28.0076 44.002 28.0107ZM48.9006 32.2727V27.3734H49.7228V27.9403C49.8802 27.7298 50.081 27.5583 50.3107 27.4384C50.5499 27.3146 50.8142 27.2518 51.0817 27.2551C51.3496 27.2617 51.6135 27.3241 51.8576 27.4384C52.0911 27.5441 52.2923 27.7134 52.4398 27.9282C52.5392 28.0866 52.609 28.2628 52.6456 28.4478C52.6901 28.7089 52.7129 28.9734 52.7138 29.2385V32.2729H51.892V29.2622C51.8965 29.0814 51.8772 28.9008 51.8347 28.7254C51.8008 28.5971 51.7469 28.4753 51.6752 28.3649C51.5897 28.2536 51.4802 28.1647 51.3554 28.1051C51.2118 28.0392 51.0558 28.0071 50.8987 28.0109C50.7344 28.0149 50.5721 28.0489 50.4194 28.1115C50.2806 28.1717 50.1588 28.2671 50.0653 28.3889C49.9432 28.5466 49.8556 28.7298 49.8086 28.926C49.7467 29.1826 49.7179 29.4466 49.7228 29.7111V32.2729H48.9006V32.2727ZM57.9218 28.1388L57.2627 28.5032C57.2049 28.3652 57.1146 28.2444 57.0001 28.1517C56.8913 28.0602 56.7552 28.0104 56.6149 28.0107C56.4697 28.0066 56.3282 28.059 56.2185 28.1575C56.164 28.2085 56.1211 28.2714 56.0931 28.3417C56.065 28.412 56.0525 28.4878 56.0564 28.5637C56.0507 28.6889 56.0929 28.8114 56.1738 28.9047C56.3643 29.0571 56.5777 29.1762 56.8054 29.2573C57.0636 29.373 57.3139 29.5068 57.5545 29.6577C57.7082 29.7541 57.8476 29.8733 57.968 30.0115C58.048 30.117 58.1087 30.2369 58.147 30.365C58.1867 30.5068 58.2091 30.6532 58.2139 30.8007C58.2259 31.0186 58.1913 31.2366 58.1126 31.4391C58.034 31.6416 57.9132 31.8237 57.7588 31.9725C57.4388 32.2576 57.0284 32.4106 56.6062 32.4022C56.2365 32.4138 55.874 32.2955 55.5778 32.0665C55.2909 31.8338 55.0809 31.5149 54.9765 31.1537L55.6696 30.8473C55.7345 31.0794 55.865 31.2861 56.0442 31.4411C56.2037 31.5752 56.4032 31.6479 56.6087 31.6468C56.7073 31.6502 56.8056 31.6332 56.8977 31.5969C56.9899 31.5605 57.074 31.5054 57.1453 31.4349C57.2172 31.361 57.2741 31.2729 57.3126 31.1758C57.3511 31.0788 57.3704 30.9748 57.3694 30.8699C57.3682 30.7168 57.3192 30.5683 57.2296 30.4464C57.0537 30.2765 56.8467 30.1445 56.6209 30.0581C56.3577 29.9462 56.1018 29.8165 55.8552 29.6697C55.7145 29.5855 55.5912 29.4734 55.4924 29.3399C55.414 29.2527 55.3565 29.1478 55.3246 29.0335C55.2918 28.8989 55.2768 28.7604 55.2799 28.6216C55.2704 28.4367 55.299 28.2518 55.3639 28.0791C55.4289 27.9065 55.5286 27.7502 55.6565 27.6205C55.9253 27.37 56.2786 27.2387 56.6402 27.2551C56.9033 27.2533 57.1612 27.331 57.3821 27.4788C57.6185 27.6418 57.8056 27.8706 57.9218 28.1388ZM61.3 27.3732V30.2222C61.2873 30.4428 61.3003 30.6641 61.3386 30.8815C61.3687 31.0244 61.4317 31.1576 61.5222 31.2699C61.6024 31.3951 61.7163 31.4934 61.8499 31.5526C62.0028 31.6188 62.1675 31.6509 62.3332 31.6468C62.4952 31.6501 62.6562 31.618 62.8054 31.5526C62.9409 31.4916 63.0579 31.3939 63.1442 31.2699C63.228 31.1549 63.2867 31.0224 63.316 30.8815C63.3553 30.6642 63.3721 30.4432 63.3661 30.2222V27.3732H64.1882V30.3178C64.19 30.6174 64.1558 30.916 64.0866 31.2069C64.025 31.4256 63.9132 31.6256 63.7609 31.7902C63.582 31.9857 63.3654 32.1402 63.1251 32.2437C62.874 32.351 62.6047 32.4049 62.333 32.4024C62.0576 32.398 61.7852 32.3421 61.5291 32.2375C61.2908 32.1395 61.0774 31.9865 60.9051 31.7902C60.7464 31.6286 60.6303 31.4278 60.5675 31.2069C60.4995 30.916 60.4693 30.617 60.4777 30.3178V27.3732H61.3ZM66.8776 23.6661H67.6997V32.2727H66.8776V23.6661ZM72.1258 28.1523H71.3037V32.2727H70.482V28.1523H69.9794V27.3732H70.482V25.6021H71.3037V27.3732H72.1258V28.1523ZM73.9675 25.5194C73.9662 25.4408 73.9801 25.3628 74.0085 25.2898C74.0368 25.2169 74.079 25.1505 74.1325 25.0946C74.1868 25.0384 74.2513 24.9938 74.3223 24.9634C74.3934 24.933 74.4695 24.9173 74.5463 24.9173C74.6232 24.9172 74.6993 24.9329 74.7703 24.9633C74.8413 24.9937 74.9059 25.0383 74.9602 25.0945C75.0146 25.1507 75.0577 25.2174 75.0872 25.2908C75.1166 25.3642 75.1317 25.4429 75.1318 25.5224C75.1318 25.6019 75.1167 25.6806 75.0872 25.7541C75.0579 25.8275 75.0148 25.8942 74.9604 25.9505C74.8792 26.0363 74.775 26.0949 74.6612 26.1187C74.5474 26.1425 74.4293 26.1304 74.3223 26.0839C74.2153 26.0374 74.1242 25.9588 74.0609 25.8581C73.9976 25.7575 73.9651 25.6395 73.9675 25.5194ZM74.1387 27.3732H74.9604V32.2723H74.1387V27.3732ZM77.6343 32.2727V27.3734H78.4561V27.9403C78.6135 27.7298 78.8143 27.5584 79.0439 27.4384C79.2831 27.3147 79.5473 27.2518 79.8148 27.2551C80.0828 27.2618 80.3469 27.3241 80.5912 27.4384C80.8246 27.544 81.0257 27.7134 81.1731 27.9282C81.2725 28.0866 81.3423 28.2628 81.3788 28.4478C81.4234 28.7089 81.4464 28.9734 81.4473 29.2385V32.2729H80.6252V29.2622C80.6296 29.0815 80.6105 28.9009 80.5683 28.7254C80.5342 28.597 80.4802 28.4753 80.4082 28.3649C80.3229 28.2535 80.2133 28.1645 80.0885 28.1051C79.9448 28.0392 79.7888 28.007 79.6317 28.0109C79.4675 28.0148 79.3052 28.0489 79.1524 28.1115C79.0136 28.1716 78.8918 28.2671 78.7983 28.3889C78.6764 28.5467 78.5888 28.7299 78.5417 28.926C78.4797 29.1826 78.4508 29.4466 78.4557 29.7111V32.2729H77.6343V32.2727ZM87.7627 28.0683V27.3734H88.5843V32.1667C88.5971 32.5698 88.5569 32.9729 88.4647 33.3648C88.3937 33.6252 88.2797 33.8709 88.1277 34.0911C87.9071 34.3822 87.621 34.6131 87.2943 34.7636C86.9611 34.9209 86.5989 35.0016 86.2326 35.0001C85.9092 35.0034 85.588 34.9454 85.2849 34.8288C85.0127 34.7241 84.7645 34.5618 84.5563 34.3525C84.348 34.1432 84.1841 33.8913 84.0751 33.6129C83.9685 33.3413 83.918 33.0498 83.9266 32.7569H84.7483C84.7472 32.9465 84.7801 33.1346 84.8454 33.3118C84.9073 33.4805 84.9978 33.6364 85.1128 33.7721C85.246 33.9274 85.4138 34.047 85.6015 34.1206C85.8095 34.1988 86.0286 34.2408 86.2499 34.2446C86.5045 34.2527 86.7568 34.1935 86.9831 34.0726C87.1944 33.9479 87.3723 33.7708 87.501 33.5572C87.5858 33.395 87.6488 33.2216 87.6884 33.0418C87.736 32.7981 87.7609 32.5501 87.7625 32.3014V31.5785C87.5726 31.8306 87.3307 32.0356 87.0546 32.1789C86.7699 32.3228 86.4578 32.3992 86.141 32.4026C85.8379 32.4097 85.5364 32.3534 85.2549 32.237C84.9733 32.1205 84.7174 31.9465 84.5026 31.7251C84.0576 31.2739 83.8351 30.6359 83.835 29.8113C83.8273 29.0104 84.0481 28.3841 84.4971 27.9324C84.7133 27.7114 84.9702 27.5376 85.2526 27.4212C85.535 27.3048 85.8371 27.2483 86.141 27.2549C86.453 27.2514 86.7616 27.322 87.0431 27.4611C87.3243 27.6046 87.5703 27.8122 87.7627 28.0683ZM86.2326 28.0107C86.0266 28.007 85.822 28.048 85.6323 28.1311C85.4425 28.2142 85.2717 28.3376 85.131 28.4933C84.9753 28.6712 84.8553 28.8794 84.7779 29.1056C84.7006 29.3318 84.6673 29.5717 84.6802 29.8113C84.6599 30.2901 84.808 30.7603 85.097 31.1349C85.2358 31.3044 85.4104 31.4387 85.6072 31.5274C85.8041 31.6162 86.0181 31.6571 86.2326 31.6469C86.4503 31.6558 86.6671 31.6127 86.8661 31.5209C87.0651 31.4291 87.241 31.2912 87.3801 31.1178C87.6693 30.7538 87.8213 30.2938 87.808 29.8229C87.8185 29.3495 87.66 28.8887 87.3626 28.5286C87.2217 28.3629 87.0477 28.2307 86.8526 28.1413C86.6575 28.0519 86.446 28.0074 86.2326 28.0107ZM5.35438 8.65834C5.52603 7.73895 5.9423 6.88731 6.55638 6.19919C7.45665 5.16594 8.7159 4.64941 10.3238 4.64941C11.0998 4.6396 11.8703 4.78579 12.5924 5.07985C13.2831 5.37211 13.9229 5.7793 14.4865 6.28527V1.11941C13.7487 0.752315 12.9738 0.470784 12.1761 0.279952C11.3357 0.0869726 10.4768 -0.00691996 9.61599 7.12305e-05C8.42572 -0.00639682 7.24312 0.197471 6.11924 0.602878C5.01775 1.00228 4.00036 1.616 3.12197 2.41092C2.13853 3.31694 1.35733 4.43324 0.832489 5.68247C0.26371 7.04043 -0.0200269 8.50772 1.58992e-05 9.98745C-0.0155189 11.3677 0.239343 12.7369 0.749242 14.0126C1.22707 15.2013 1.95186 16.2668 2.87223 17.1335C3.75651 18.0004 4.8056 18.6675 5.95274 19.0923C7.19219 19.57 8.50155 19.8248 9.82411 19.8457C10.6378 19.8473 11.4487 19.746 12.2386 19.5442C13.016 19.3426 13.7697 19.0539 14.4865 18.6833V13.5605C13.9329 14.0857 13.2909 14.5015 12.5924 14.7873C11.9227 15.0589 11.2096 15.1977 10.4903 15.1964C8.96564 15.1964 7.70639 14.7013 6.72287 13.7111C6.04055 13.034 5.571 12.1603 5.37529 11.2036L3.58001 10.1327C3.5454 10.1107 3.51683 10.0798 3.49701 10.043C3.47719 10.0063 3.46678 9.96495 3.46678 9.92288C3.46678 9.88082 3.47719 9.83946 3.49701 9.80272C3.51683 9.76599 3.5454 9.73511 3.58001 9.71302L5.35438 8.65834ZM32.091 3.01354V0.602878H37.1696V19.2429H32.091V16.8319C31.4865 17.7787 30.6639 18.5554 29.6971 19.092C28.7246 19.6045 27.6455 19.8633 26.5541 19.8457C23.8341 19.8457 21.6209 18.8914 19.9147 16.9828C18.2078 15.0747 17.3544 12.7141 17.3545 9.90117C17.3545 7.11815 18.1871 4.77209 19.8521 2.86298C21.5173 0.95475 23.668 0.000572473 26.3042 0.000447162C27.472 -0.0249848 28.6287 0.240771 29.6762 0.775243C30.6523 1.29661 31.4834 2.06704 32.091 3.01354ZM27.5949 4.64941C26.1232 4.64941 24.9229 5.1588 23.994 6.17757C23.0708 7.17889 22.5693 8.51801 22.5997 9.90117C22.5997 11.4231 23.0644 12.6859 23.994 13.6896C24.9235 14.6949 26.1238 15.1972 27.5949 15.1967C29.0376 15.1967 30.2239 14.6944 31.154 13.6896C32.0834 12.6854 32.5621 11.4226 32.5901 9.90117C32.6044 9.21452 32.4866 8.53177 32.2437 7.89256C32.0007 7.25335 31.6374 6.6704 31.1749 6.17757C30.2312 5.15942 29.0378 4.65003 27.5949 4.64941ZM41.8145 19.2429V0.60269H46.893V3.01354C47.5168 2.10893 48.3273 1.35898 49.2657 0.817911C50.2477 0.26295 51.3522 -0.018795 52.4711 0.000259196C53.4988 -0.00516914 54.5173 0.199566 55.4682 0.60269C56.3606 0.968138 57.1587 1.54294 57.7997 2.28179C58.2558 2.91016 58.6011 3.61694 58.8195 4.36953C59.0547 5.15936 59.1866 6.2141 59.2152 7.53374V19.2429H54.1364V9.08352C54.156 8.32885 54.0719 7.57512 53.8868 6.84485C53.748 6.32597 53.507 5.84237 53.1789 5.42439C52.8663 5.13291 52.5071 4.89981 52.1174 4.7355C51.7012 4.56058 51.2556 4.47279 50.8063 4.47723C50.1732 4.4635 49.5458 4.60352 48.9745 4.88606C48.4429 5.16347 47.9961 5.58814 47.6842 6.11272C47.3833 6.56051 47.1711 7.06543 47.0597 7.5984C46.934 8.301 46.8782 9.01503 46.893 9.72937V19.2429H41.8145ZM77.5983 3.01354V0.602878H82.6768V19.2429H77.5983V16.8319C76.9938 17.7787 76.1711 18.5554 75.2043 19.092C74.2319 19.6045 73.1529 19.8633 72.0615 19.8457C69.3412 19.8457 67.128 18.8914 65.4219 16.9828C63.715 15.0748 62.8617 12.7143 62.8619 9.90117C62.8619 7.11815 63.6944 4.77209 65.3593 2.86298C67.0247 0.95475 69.1753 0.000572473 71.8114 0.000447162C72.9793 -0.0249855 74.136 0.240769 75.1836 0.775243C76.1597 1.2966 76.9908 2.06703 77.5983 3.01354ZM73.1023 4.64941C71.6306 4.64941 70.4303 5.1588 69.5014 6.17757C68.5781 7.17889 68.0767 8.51801 68.1071 9.90117C68.1071 11.4231 68.5718 12.6859 69.5014 13.6896C70.4308 14.6949 71.6311 15.1972 73.1023 15.1967C74.545 15.1967 75.7313 14.6944 76.6614 13.6896C77.5908 12.6854 78.0694 11.4226 78.0973 9.90117C78.1116 9.21451 77.9939 8.53175 77.751 7.89253C77.508 7.25331 77.1447 6.67037 76.6821 6.17757C75.7386 5.15942 74.5453 4.65003 73.1023 4.64941ZM87.3219 19.2429V0.60269H92.4004V3.40094C92.6497 2.85624 92.9797 2.35511 93.3784 1.91563C93.7539 1.49429 94.1808 1.12528 94.6484 0.817911C95.0585 0.550082 95.5085 0.353798 95.9802 0.236908C96.5263 0.101228 97.0841 0.0219557 97.6453 0.000259196C98.0018 9.2019e-05 98.3574 0.0361035 98.707 0.107776C99.0817 0.187973 99.4503 0.295892 99.8101 0.430701L99.1439 5.3383C98.8057 5.11945 98.442 4.94583 98.0615 4.82158C97.6419 4.69867 97.2069 4.64059 96.7708 4.64922C96.0767 4.62589 95.3866 4.7658 94.7524 5.05842C94.2288 5.31692 93.7668 5.69167 93.3993 6.15595C93.0392 6.64231 92.7774 7.19865 92.6296 7.79182C92.4551 8.61143 92.3781 9.45002 92.4004 10.2889V19.2429H87.3219ZM103.736 29.2301L110.284 16.3296L101.77 0.60269H107.686L113.26 11.2055L118.266 0.60269H124L109.472 29.2301H103.736Z" fill="#FFCE00"/>
<path d="M9.57235 8.23022C9.57235 8.37774 9.53005 8.52194 9.4508 8.6446C9.37155 8.76725 9.25891 8.86285 9.12712 8.9193C8.99533 8.97575 8.85032 8.99052 8.71041 8.96174C8.57051 8.93296 8.44199 8.86193 8.34113 8.75762C8.24026 8.65331 8.17157 8.52041 8.14374 8.37573C8.11591 8.23105 8.13019 8.08109 8.18478 7.9448C8.23937 7.80851 8.33181 7.69203 8.45042 7.61007C8.56903 7.52812 8.70847 7.48437 8.85112 7.48438C9.0424 7.48438 9.22585 7.56296 9.36111 7.70283C9.49636 7.8427 9.57235 8.03241 9.57235 8.23022Z" fill="#FFCE00"/>
</g>
<defs>
<clipPath id="clip0">
<rect width="124" height="35" fill="white"/>
</clipPath>
</defs>
</svg>
