<svg width="137" height="34" viewBox="0 0 137 34" fill="none" xmlns="http://www.w3.org/2000/svg">
<path d="M49.7624 9.35695C52.023 9.35695 53.7477 9.83441 54.9364 10.7893C56.1252 11.7442 56.7196 13.1376 56.7196 14.9695C56.7196 16.8598 56.1252 18.2922 54.9364 19.2666C53.7477 20.241 52.023 20.7282 49.7624 20.7282H47.9792V23.6222H50.9316V26.5746H42.1328V23.6222H44.5883V12.3094H42.1328V9.35695H49.7624ZM49.7331 18.0681C52.0327 18.0681 53.1825 17.0645 53.1825 15.0572C53.1825 14.1218 52.8999 13.4299 52.3348 12.9817C51.7696 12.5335 50.9024 12.3094 49.7331 12.3094H48.0084V18.0681H49.7331Z" fill="#818181"/>
<path d="M65.0742 12.9525C67.2569 12.9525 68.9523 13.5858 70.1606 14.8526C71.3883 16.0998 72.0022 17.8342 72.0022 20.0559C72.0022 22.2775 71.3883 24.0119 70.1606 25.2592C68.9523 26.5064 67.2569 27.13 65.0742 27.13C62.9305 27.13 61.2546 26.5064 60.0463 25.2592C58.8575 24.0119 58.2632 22.2775 58.2632 20.0559C58.2632 17.8342 58.8575 16.0998 60.0463 14.8526C61.2546 13.5858 62.9305 12.9525 65.0742 12.9525ZM65.1035 15.6711C63.9342 15.6711 63.0475 16.0511 62.4433 16.8111C61.8392 17.5517 61.5371 18.6332 61.5371 20.0559C61.5371 21.498 61.8392 22.599 62.4433 23.3591C63.0475 24.0996 63.9342 24.4699 65.1035 24.4699C66.2922 24.4699 67.1887 24.0996 67.7928 23.3591C68.3969 22.599 68.699 21.498 68.699 20.0559C68.699 18.6332 68.3872 17.5517 67.7636 16.8111C67.1594 16.0511 66.2727 15.6711 65.1035 15.6711Z" fill="#818181"/>
<path d="M78.8178 14.6187C80.4548 13.5469 81.9944 13.011 83.4365 13.011C84.1575 13.011 84.8494 13.1376 85.512 13.391L86.0089 17.0157L83.2611 17.6004L82.9688 16.0218C81.6631 16.0998 80.5912 16.4506 79.7533 17.0742L79.724 23.9145H82.5888V26.5746H73.9653V23.9145H76.4208V16.7819L73.6145 15.8465L74.4915 13.1863L78.8178 14.6187Z" fill="#818181"/>
<path d="M94.3891 27.13C92.8885 27.13 91.7193 26.7013 90.8813 25.8438C90.0628 24.9668 89.6535 23.6319 89.6535 21.839V16.1388H87.2273V13.5079H89.6535V10.9939L92.8691 10.0293V13.5079H96.4061V16.1388H92.8691V20.9036C92.8691 23.2616 93.5219 24.4407 94.8276 24.4407C95.3538 24.4407 96.0066 24.2458 96.7861 23.856L97.4 26.3115C96.2697 26.8572 95.2661 27.13 94.3891 27.13Z" fill="#818181"/>
<path d="M99.3401 13.5079H105.128V23.9145H107.554V26.5746H99.3401V23.9145H101.766V16.1388H99.3401V13.5079ZM103.14 7.16455C103.744 7.16455 104.232 7.34969 104.602 7.71996C104.972 8.09023 105.157 8.57743 105.157 9.18156C105.157 9.78569 104.972 10.2729 104.602 10.6432C104.232 11.0134 103.744 11.1986 103.14 11.1986C102.536 11.1986 102.049 11.0134 101.679 10.6432C101.328 10.2729 101.152 9.78569 101.152 9.18156C101.152 8.57743 101.328 8.09023 101.679 7.71996C102.049 7.34969 102.536 7.16455 103.14 7.16455Z" fill="#818181"/>
<path d="M122.104 24.9668C120.408 26.4089 118.567 27.13 116.579 27.13C115.117 27.13 113.831 26.8377 112.72 26.253C111.629 25.6489 110.781 24.8207 110.177 23.7683C109.573 22.6965 109.271 21.4687 109.271 20.0851C109.271 18.682 109.554 17.4445 110.119 16.3726C110.684 15.2813 111.483 14.4433 112.516 13.8587C113.549 13.2546 114.728 12.9525 116.053 12.9525C117.378 12.9525 118.537 13.2253 119.531 13.771C120.545 14.3166 121.324 15.0864 121.87 16.0803C122.416 17.0742 122.688 18.224 122.688 19.5297C122.688 20.0364 122.64 20.582 122.542 21.1667H112.486C112.564 22.258 112.983 23.0862 113.743 23.6514C114.523 24.2165 115.468 24.4991 116.579 24.4991C118.196 24.4991 119.648 23.9924 120.935 22.9791L122.104 24.9668ZM119.385 18.8866C119.366 17.9122 119.064 17.1327 118.479 16.548C117.894 15.9439 117.115 15.6418 116.14 15.6418C115.186 15.6418 114.367 15.9439 113.685 16.548C113.003 17.1522 112.623 17.9317 112.545 18.8866H119.385Z" fill="#818181"/>
<path d="M129.517 14.6187C131.154 13.5469 132.694 13.011 134.136 13.011C134.857 13.011 135.549 13.1376 136.211 13.391L136.708 17.0157L133.96 17.6004L133.668 16.0218C132.362 16.0998 131.29 16.4506 130.452 17.0742L130.423 23.9145H133.288V26.5746H124.665V23.9145H127.12V16.7819L124.314 15.8465L125.191 13.1863L129.517 14.6187Z" fill="#818181"/>
<path d="M15.9375 6.10938C14.8393 6.10938 13.9453 7.00334 13.9453 8.10156C13.9453 9.19979 14.8393 10.0938 15.9375 10.0938C17.0357 10.0938 17.9297 9.19979 17.9297 8.10156C17.9297 7.00334 17.0357 6.10938 15.9375 6.10938Z" fill="#646464"/>
<path d="M14.8418 15.5557C14.8433 15.5563 14.8431 15.5562 14.8418 15.5557V15.5557Z" fill="#646464"/>
<path d="M14.8411 15.555C14.8393 15.5543 14.8348 15.5525 14.8284 15.5499C14.8283 15.5499 14.8282 15.5499 14.8281 15.5498C14.8353 15.5527 14.8394 15.5543 14.8411 15.555Z" fill="#646464"/>
<path d="M31.875 9.61901V2.98828C31.875 1.34048 30.5345 0 28.8867 0H2.98828C1.34048 0 0 1.34048 0 2.98828V9.61908C0.327582 9.75017 14.3086 15.3422 14.8279 15.5501C15.5429 15.8359 16.3306 15.8358 17.0474 15.5499C17.248 15.4697 32.4221 9.40027 31.875 9.61901ZM15.9375 12.0859C13.7401 12.0859 11.9531 10.299 11.9531 8.10156C11.9531 5.90411 13.7401 4.11719 15.9375 4.11719C18.135 4.11719 19.9219 5.90411 19.9219 8.10156C19.9219 10.299 18.135 12.0859 15.9375 12.0859Z" fill="#646464"/>
<path d="M27.8906 13.3584V14.6752C27.8906 15.2258 27.4451 15.6713 26.8945 15.6713C26.344 15.6713 25.8984 15.2258 25.8984 14.6752V14.1553L17.7867 17.3999C17.1905 17.6382 16.564 17.7569 15.9375 17.7569C15.311 17.7569 14.6846 17.6382 14.0883 17.3999L5.97656 14.1553V14.6752C5.97656 15.2258 5.53104 15.6713 4.98047 15.6713C4.4299 15.6713 3.98438 15.2258 3.98438 14.6752V13.3584L0 11.7646V18.0624C0 26.8502 7.1497 33.9999 15.9375 33.9999C24.7253 33.9999 31.875 26.8502 31.875 18.0624V11.7646L27.8906 13.3584ZM6.22751 22.9485C5.71984 23.154 5.13745 22.9121 4.92887 22.4009C4.41914 21.147 4.11174 19.826 4.01645 18.4768C3.9776 17.9271 4.39005 17.4515 4.93863 17.4126C5.49505 17.3581 5.96488 17.7871 6.00279 18.3348C6.08447 19.4758 6.34326 20.5906 6.77517 21.6499C6.98235 22.1596 6.73725 22.7403 6.22751 22.9485ZM11.4755 28.0963C11.1986 28.5716 10.5872 28.732 10.1137 28.4543C8.95123 27.7763 7.90846 26.8988 7.01642 25.8483C6.65942 25.4291 6.71095 24.8007 7.13024 24.4446C7.55046 24.0866 8.17986 24.141 8.53394 24.5583C9.28101 25.4377 10.1497 26.1692 11.1175 26.7344C11.5932 27.0117 11.7527 27.6215 11.4755 28.0963ZM17.9794 29.8413C16.6231 30.0758 15.2294 30.0691 13.9308 29.8471C13.388 29.7547 13.0232 29.2401 13.1166 28.6983C13.2089 28.1566 13.7235 27.7927 14.2654 27.8842C15.3696 28.0723 16.5098 28.0725 17.6408 27.8783C18.1826 27.783 18.6982 28.1478 18.7916 28.6905C18.8849 29.2324 18.5212 29.7479 17.9794 29.8413ZM24.9364 25.9231C24.0395 26.9494 22.9831 27.8093 21.7973 28.4795C21.3033 28.7543 20.7048 28.5698 20.4394 28.1021C20.169 27.6225 20.3383 27.0155 20.8168 26.7441C21.8071 26.1858 22.6884 25.4678 23.4364 24.6119C23.7974 24.1955 24.4277 24.1537 24.8421 24.5175C25.2564 24.8794 25.2983 25.5088 24.9364 25.9231ZM27.0481 22.4708C26.8427 22.9888 26.2551 23.229 25.7544 23.0272C25.2438 22.8239 24.9938 22.2452 25.1981 21.7335C25.6164 20.6819 25.8498 19.572 25.8916 18.4339C25.9111 17.8833 26.4081 17.4378 26.9227 17.4748C27.4733 17.4942 27.9023 17.9563 27.8818 18.5059C27.8322 19.8726 27.552 21.2062 27.0481 22.4708Z" fill="#646464"/>
</svg>
