<svg width="109" height="40" viewBox="0 0 109 40" fill="none" xmlns="http://www.w3.org/2000/svg">
<path fill-rule="evenodd" clip-rule="evenodd" d="M27.2344 19.7241C28.2057 19.2714 29.2507 18.6891 30.3575 17.9786C30.7945 17.6978 31.3835 17.8149 31.6725 18.2392C31.9611 18.6639 31.841 19.2359 31.404 19.5163C29.8929 20.487 28.4715 21.2464 27.1789 21.7741C25.5563 22.4364 24.0846 22.7642 22.6861 22.7642C21.825 22.7642 20.9918 22.6399 20.1682 22.3931C19.0547 22.0599 18.0916 21.53 17.1601 21.0173C15.6163 20.1679 14.2823 19.4344 12.509 19.6609C11.7547 19.7577 11.5412 19.9723 11.1882 20.3273L11.188 20.3274L11.1814 20.334C11.0165 20.4992 10.8304 20.6857 10.5852 20.8658C10.1675 21.1715 9.57294 21.0911 9.25677 20.6852C8.9414 20.2788 9.02447 19.7007 9.44261 19.3935C9.57165 19.2993 9.6871 19.1831 9.82059 19.0489L9.82335 19.0461L9.82389 19.0455C10.2573 18.6102 10.8508 18.0141 12.2617 17.8332C13.5134 17.6737 14.5859 17.8592 15.5651 18.2028C15.5651 18.1956 15.5657 18.1885 15.5663 18.1813C15.5669 18.174 15.5674 18.1667 15.5674 18.1592C15.5674 16.3166 14.6016 14.6553 13.1074 13.9272C12.7645 13.7604 12.5594 13.4095 12.5861 13.038C12.6133 12.6669 12.868 12.3478 13.2315 12.2292C14.2961 11.883 15.4009 11.7073 16.5155 11.7073C21.2596 11.7073 25.5327 14.9545 27.2344 19.7241ZM18.094 19.4129C18.976 19.8984 19.8091 20.3564 20.7261 20.6315C21.7565 20.9403 23.2046 21.1718 25.4788 20.4287C24.0637 16.3406 20.4804 13.5506 16.5155 13.5506C16.2466 13.5506 15.9777 13.5629 15.7108 13.5881C16.812 14.7777 17.464 16.4144 17.464 18.1587C17.464 18.4587 17.4424 18.7518 17.4058 19.0387C17.6373 19.1623 17.866 19.2874 18.094 19.4129Z" fill="#003AAB"/>
<path d="M30.3579 22.3258C28.9441 23.2723 27.6266 24.0077 26.4439 24.512C23.6015 25.7223 21.8955 25.4585 20.7265 25.093C19.8095 24.8061 18.9764 24.3285 18.094 23.8221C16.4077 22.8545 14.6646 21.8561 12.2613 22.1741C10.8502 22.3625 10.2564 22.985 9.82332 23.4394C9.68867 23.5807 9.57252 23.7028 9.44259 23.8026C9.02484 24.1222 8.94097 24.7251 9.25714 25.1489C9.57291 25.5722 10.167 25.6552 10.5856 25.3372C10.8336 25.1469 11.0218 24.9497 11.1876 24.7758C11.5412 24.4055 11.7538 24.1816 12.509 24.0811C14.2823 23.8448 15.6163 24.6098 17.1597 25.4952C18.0913 26.0299 19.0543 26.5825 20.1682 26.9301C20.9919 27.1875 21.825 27.3171 22.6861 27.3171C24.0842 27.3171 25.5564 26.9752 27.179 26.2845C28.4708 25.7342 29.8922 24.9426 31.4041 23.9302C31.8411 23.6378 31.9612 23.0412 31.6722 22.5987C31.384 22.1554 30.7962 22.0345 30.3579 22.3258Z" fill="#5F95FF"/>
<circle cx="20" cy="20" r="18.5" stroke="url(#paint0_linear)" stroke-width="3"/>
<path d="M60.9 27.24C59.7267 27.24 58.7267 27.0267 57.9 26.6C57.0867 26.1733 56.3867 25.6 55.8 24.88L57.36 23.42C57.8533 24.02 58.3933 24.4733 58.98 24.78C59.58 25.0867 60.26 25.24 61.02 25.24C61.9133 25.24 62.5867 25.04 63.04 24.64C63.4933 24.24 63.72 23.7 63.72 23.02C63.72 22.4733 63.56 22.04 63.24 21.72C62.92 21.4 62.3533 21.16 61.54 21L60.3 20.78C58.94 20.5267 57.92 20.08 57.24 19.44C56.56 18.8 56.22 17.92 56.22 16.8C56.22 16.1867 56.3333 15.6333 56.56 15.14C56.8 14.6333 57.1267 14.2133 57.54 13.88C57.9667 13.5333 58.48 13.2667 59.08 13.08C59.68 12.8933 60.3533 12.8 61.1 12.8C62.1533 12.8 63.0667 12.9867 63.84 13.36C64.6133 13.72 65.2733 14.2467 65.82 14.94L64.24 16.34C63.88 15.8733 63.44 15.5 62.92 15.22C62.4 14.94 61.7533 14.8 60.98 14.8C60.18 14.8 59.56 14.96 59.12 15.28C58.68 15.6 58.46 16.0667 58.46 16.68C58.46 17.2667 58.64 17.7067 59 18C59.36 18.28 59.92 18.4933 60.68 18.64L61.92 18.9C63.32 19.1667 64.34 19.62 64.98 20.26C65.6333 20.9 65.96 21.78 65.96 22.9C65.96 23.5533 65.8467 24.1467 65.62 24.68C65.3933 25.2133 65.06 25.6733 64.62 26.06C64.1933 26.4333 63.6667 26.7267 63.04 26.94C62.4133 27.14 61.7 27.24 60.9 27.24ZM68.5131 12.2H70.6931V18.32H70.7931C71.0198 17.76 71.3598 17.2933 71.8131 16.92C72.2798 16.5467 72.9131 16.36 73.7131 16.36C74.7798 16.36 75.6065 16.7133 76.1931 17.42C76.7931 18.1133 77.0931 19.1067 77.0931 20.4V27H74.9131V20.66C74.9131 19.0467 74.2598 18.24 72.9531 18.24C72.6731 18.24 72.3931 18.28 72.1131 18.36C71.8465 18.4267 71.6065 18.5333 71.3931 18.68C71.1798 18.8267 71.0065 19.0133 70.8731 19.24C70.7531 19.4667 70.6931 19.7267 70.6931 20.02V27H68.5131V12.2ZM87.7347 27C87.1614 27 86.7214 26.84 86.4147 26.52C86.108 26.1867 85.9214 25.7667 85.8547 25.26H85.7547C85.5547 25.9133 85.188 26.4067 84.6547 26.74C84.1214 27.0733 83.4747 27.24 82.7147 27.24C81.6347 27.24 80.8014 26.96 80.2147 26.4C79.6414 25.84 79.3547 25.0867 79.3547 24.14C79.3547 23.1 79.728 22.32 80.4747 21.8C81.2347 21.28 82.3414 21.02 83.7947 21.02H85.6747V20.14C85.6747 19.5 85.5014 19.0067 85.1547 18.66C84.808 18.3133 84.268 18.14 83.5347 18.14C82.9214 18.14 82.4214 18.2733 82.0347 18.54C81.648 18.8067 81.3214 19.1467 81.0547 19.56L79.7547 18.38C80.1014 17.7933 80.588 17.3133 81.2147 16.94C81.8414 16.5533 82.6614 16.36 83.6747 16.36C85.0214 16.36 86.0547 16.6733 86.7747 17.3C87.4947 17.9267 87.8547 18.8267 87.8547 20V25.22H88.9547V27H87.7347ZM83.3347 25.58C84.0147 25.58 84.5747 25.4333 85.0147 25.14C85.4547 24.8333 85.6747 24.4267 85.6747 23.92V22.42H83.8347C82.328 22.42 81.5747 22.8867 81.5747 23.82V24.18C81.5747 24.6467 81.728 25 82.0347 25.24C82.3547 25.4667 82.788 25.58 83.3347 25.58ZM91.0913 27V16.6H93.2713V18.6H93.3713C93.5179 18.0667 93.8246 17.6 94.2913 17.2C94.7579 16.8 95.4046 16.6 96.2313 16.6H96.8113V18.7H95.9513C95.0846 18.7 94.4179 18.84 93.9513 19.12C93.4979 19.4 93.2713 19.8133 93.2713 20.36V27H91.0913ZM98.7475 12.2H100.928V21.28H101.028L102.467 19.42L104.968 16.6H107.508L103.868 20.62L107.948 27H105.348L102.368 22.04L100.928 23.6V27H98.7475V12.2Z" fill="#292929"/>
<defs>
<linearGradient id="paint0_linear" x1="20" y1="0" x2="20" y2="40" gradientUnits="userSpaceOnUse">
<stop stop-color="#003AAB"/>
<stop offset="1" stop-color="#5F95FF"/>
</linearGradient>
</defs>
</svg>
