<svg width="151" height="37" viewBox="0 0 151 37" fill="none" xmlns="http://www.w3.org/2000/svg">
<g clip-path="url(#clip0)">
<path fill-rule="evenodd" clip-rule="evenodd" d="M70.0591 2.2238C70.1645 1.69827 69.7028 1.235 69.1814 1.34289L57.3452 3.7913C56.7686 3.9106 56.5522 4.62556 56.9647 5.0484L59.52 7.66752L37.9057 28.7511L31.4908 22.6507C30.1299 21.3565 28.0015 21.3565 26.6407 22.6507L20.2292 28.7478L6.44055 15.2495L11.3368 10.3194L17.7039 16.7305C19.0828 18.119 21.3197 18.119 22.6986 16.7305L29.0657 10.3194L35.4328 16.7305C36.8118 18.119 39.0486 18.119 40.4276 16.7305L46.7947 10.3194L48.0241 11.5573L51.9673 7.59272L49.292 4.89896C47.913 3.51047 45.6762 3.51047 44.2972 4.89896L37.9302 11.31L31.5631 4.89896C30.1841 3.51047 27.9473 3.51047 26.5684 4.89896L20.2013 11.31L13.8341 4.89896C12.4552 3.51047 10.2184 3.51047 8.83942 4.89896L1.03315 12.7592C-0.35812 14.16 -0.342208 16.4352 1.06854 17.8162L17.7467 34.1431C19.103 35.4709 21.2585 35.4866 22.6338 34.1788L29.0657 28.0622L35.4986 34.1796C36.872 35.4858 39.0242 35.472 40.3811 34.1485L63.4249 11.6704L66.3753 14.6943C66.7925 15.1222 67.5155 14.9061 67.6332 14.318L70.0591 2.2238Z" fill="#646464"/>
<path fill-rule="evenodd" clip-rule="evenodd" d="M57.5354 32.9776C57.5087 33.8553 57.4956 34.3269 57.496 34.3922C57.4915 34.4585 57.5038 34.5248 57.5316 34.5851C57.5593 34.6454 57.6018 34.6979 57.655 34.7376C58.0162 34.909 58.4019 35.0227 58.7983 35.0749C59.3747 35.1806 59.9596 35.233 60.5456 35.2315C61.5076 35.2781 62.4639 35.059 63.3098 34.5982C63.6478 34.391 63.9227 34.0951 64.1047 33.7427C64.2867 33.3903 64.3688 32.9948 64.3421 32.599C64.3888 32.1496 64.269 31.6988 64.0056 31.3319C63.7421 30.965 63.3533 30.7076 62.9129 30.6084C63.2546 30.4681 63.5416 30.2207 63.7305 29.9031C63.9195 29.5856 64.0002 29.2152 63.9606 28.8478C63.9803 28.5431 63.9211 28.2385 63.789 27.9633C63.6569 27.6882 63.4562 27.4516 63.2062 27.2765C62.4761 26.8764 61.6457 26.6965 60.8155 26.7585C59.6368 26.7792 58.4642 26.9338 57.3203 27.2192L57.3819 27.5645C57.423 27.7947 57.4656 28.1403 57.5095 28.6011C57.5535 29.062 57.574 29.5226 57.5712 29.9831C57.574 31.1021 57.5621 32.1003 57.5354 32.9776ZM60.7206 33.8329C60.1956 33.8273 59.6736 33.755 59.1668 33.6177C59.2198 32.5541 59.2463 31.8687 59.2463 31.5611C59.7546 31.5286 60.3159 31.5122 60.9301 31.5118C62.021 31.5118 62.5665 31.8684 62.5665 32.5817C62.5665 33.4146 61.9522 33.8313 60.7237 33.8317L60.7206 33.8329ZM62.1819 29.1604C62.1819 29.9066 61.5995 30.2795 60.4346 30.2791C59.9789 30.2791 59.5818 30.2735 59.2432 30.2624L59.1668 28.2885L59.4053 28.2391C59.5637 28.2176 59.7751 28.1923 60.0328 28.1651C60.2675 28.1391 60.5035 28.1254 60.7397 28.1238C61.7028 28.1238 62.1846 28.4694 62.185 29.1604H62.1819ZM72.9202 31.2337C72.9411 31.1239 72.965 30.9566 72.9916 30.7317C73.0178 30.5105 73.031 30.2879 73.0311 30.0651C73.0586 29.2002 72.7643 28.356 72.2052 27.6959C71.8805 27.3601 71.4855 27.1004 71.0486 26.9355C70.6117 26.7706 70.1437 26.7044 69.6783 26.7419C69.1352 26.7219 68.5944 26.8214 68.0939 27.0332C67.5934 27.245 67.1455 27.564 66.7815 27.9678C66.0148 28.8715 65.6201 30.033 65.6777 31.217C65.6525 31.7533 65.7359 32.2893 65.9229 32.7926C66.11 33.2958 66.3968 33.756 66.7661 34.1456C67.1712 34.5271 67.65 34.8217 68.1731 35.0113C68.6961 35.2009 69.2524 35.2815 69.8077 35.2482C70.4819 35.2653 71.1531 35.1535 71.7855 34.9189C72.3311 34.6993 72.604 34.4307 72.604 34.1129C72.6034 33.7056 72.4757 33.3086 72.2385 32.9776L72.016 33.1749C71.7727 33.3539 71.4977 33.4851 71.2055 33.5616C70.784 33.6923 70.3446 33.7562 69.9032 33.7509C69.5917 33.7743 69.2786 33.7329 68.9839 33.6292C68.6891 33.5256 68.4189 33.3619 68.1906 33.1486C67.9622 32.9352 67.7804 32.6769 67.6568 32.3897C67.5332 32.1026 67.4705 31.7929 67.4724 31.4803C69.7602 31.5239 71.5607 31.4966 72.8739 31.3983L72.9202 31.2337ZM68.2657 28.7491C68.6483 28.3908 69.1556 28.1961 69.6795 28.2065C69.9124 28.1882 70.1463 28.223 70.3637 28.3085C70.5811 28.394 70.7763 28.5278 70.9344 28.6998C71.2181 29.0532 71.3648 29.4973 71.3473 29.9504V30.2304C70.1721 30.2632 68.8962 30.2632 67.5193 30.2304C67.5933 29.6663 67.8564 29.1441 68.2657 28.7491ZM75.6363 33.9563C75.994 34.38 76.4465 34.7132 76.9571 34.9291C77.4677 35.1448 78.022 35.2371 78.575 35.1982C79.0893 35.2281 79.6038 35.1425 80.0807 34.9476C80.5577 34.7526 80.9849 34.4533 81.3312 34.0716C81.9991 33.274 82.3472 32.2568 82.308 31.217C82.3691 30.1933 82.0386 29.1846 81.3836 28.3958C81.0331 28.0504 80.6141 27.7825 80.1537 27.6093C79.6933 27.436 79.2018 27.3613 78.7107 27.3901C78.2196 27.4188 77.7401 27.5502 77.303 27.7759C76.8659 28.0016 76.481 28.3166 76.1731 28.7004C76.2263 28.0784 76.3736 27.4681 76.6101 26.8905C76.8119 26.4679 77.1505 26.1259 77.571 25.9199C78.1756 25.6687 78.8164 25.5159 79.4692 25.4672C80.3432 25.3632 80.8383 25.2948 80.9546 25.2619C81.133 25.209 81.286 25.0931 81.3855 24.9358C81.4849 24.7785 81.5238 24.5904 81.4951 24.4066C81.4924 24.0398 81.4452 23.6747 81.3546 23.3194C80.9416 23.4706 80.5164 23.5862 80.0837 23.6647C78.9579 23.8217 77.8577 24.1258 76.811 24.5694C75.3705 25.3155 74.6514 27.1528 74.6539 30.0811C74.6522 31.8366 74.9797 33.1283 75.6363 33.9563ZM80.0209 29.5224C80.3637 30.0439 80.536 30.6592 80.5139 31.283C80.5139 32.983 79.8466 33.8329 78.5121 33.8329C78.2301 33.8481 77.9488 33.7903 77.6957 33.665C77.4425 33.5396 77.2259 33.3511 77.0668 33.1176C76.7215 32.5818 76.5493 31.9527 76.5737 31.3157C76.5408 30.6658 76.7313 30.0242 77.1136 29.4978C77.2906 29.2736 77.5183 29.0948 77.778 28.976C78.0376 28.8573 78.3218 28.8022 78.607 28.8151C78.8834 28.8023 79.1586 28.8606 79.4061 28.9844C79.6536 29.1082 79.8652 29.2935 80.0209 29.5224ZM85.7231 30.9537C86.9837 30.9101 87.7621 30.6908 88.0584 30.2957C88.1949 30.0803 88.2565 29.8258 88.2334 29.5718C88.2369 29.2946 88.2047 29.0181 88.1379 28.7491C87.4872 29.1439 86.7416 29.3543 85.9807 29.3578C85.6627 29.38 85.3395 29.3937 85.0112 29.3991C84.6834 29.4046 84.4566 29.4157 84.3284 29.4318C84.2319 29.4375 84.1387 29.4687 84.0584 29.5224C83.9881 29.6025 83.9361 29.6969 83.9059 29.7992C83.8758 29.9014 83.8683 30.009 83.884 30.1144C83.884 30.3451 83.8938 30.6189 83.9154 30.9371C84.518 30.9821 85.1229 30.9877 85.7262 30.9537H85.7231ZM96.4534 35.9062C96.427 36.268 96.4139 36.531 96.4139 36.6955C96.3956 36.8572 96.4411 37.0196 96.5409 37.1481C96.6848 37.2477 96.8601 37.2914 97.0339 37.2715C97.3768 37.2842 97.7196 37.2454 98.0509 37.1561C98.0398 36.9366 98.0345 36.5637 98.0348 36.0375C98.0348 35.873 98.0402 35.5715 98.0509 35.1329C98.0616 34.6942 98.0667 34.4309 98.0663 34.3429C98.0718 34.2547 98.0581 34.1664 98.0261 34.084C97.9942 34.0015 97.9449 33.9271 97.8814 33.8656C97.6812 33.734 97.4416 33.6761 97.2034 33.7016H96.8854L96.8694 30.9882C96.8694 30.3851 96.9012 29.6394 96.9649 28.751C97.0286 27.8626 97.0604 27.4128 97.0604 27.4017C97.0668 27.3296 97.0549 27.2571 97.0257 27.1909C96.9965 27.1246 96.951 27.0669 96.8934 27.0231C96.6665 26.9217 96.4185 26.8767 96.1705 26.8917C95.027 26.837 93.4492 26.8535 91.4371 26.9411C91.537 27.3502 91.5868 27.7699 91.5856 28.191C91.6125 29.2732 91.4813 30.3535 91.1961 31.3977C90.9472 32.2191 90.592 33.0044 90.1397 33.7336H89.9967C89.8841 33.7219 89.7704 33.7366 89.6645 33.7764C89.5585 33.8162 89.4633 33.8801 89.3862 33.963C89.3092 34.046 89.2525 34.1457 89.2206 34.2543C89.1886 34.363 89.1824 34.4775 89.2023 34.589C89.2023 35.8396 89.2129 36.5855 89.2343 36.8268C89.2481 36.9518 89.2887 37.0723 89.3533 37.1802C89.3953 37.2163 89.4445 37.243 89.4976 37.2586C89.5507 37.2742 89.6066 37.2784 89.6614 37.2708C90.087 37.2655 90.5096 37.1991 90.9163 37.0735L90.8546 36.7935C90.8226 36.6184 90.7881 36.3711 90.7511 36.0535C90.7155 35.7587 90.697 35.462 90.6956 35.1649C91.8605 35.1102 92.9619 35.0829 93.9998 35.0829C94.8047 35.0829 95.6415 35.0994 96.5101 35.1322C96.4986 35.286 96.48 35.544 96.4546 35.9062H96.4534ZM94.2457 28.2724C94.727 28.2724 95.0691 28.278 95.27 28.2891C95.2289 29.1113 95.2084 30.1972 95.2084 31.5469C95.2084 32.2376 95.2137 32.9571 95.2244 33.7053H94.128C93.9167 33.7053 93.5569 33.7079 93.0481 33.7133C92.5395 33.7187 92.1528 33.7213 91.8882 33.7213C92.7619 32.049 93.1939 30.181 93.1431 28.2946C93.3966 28.2798 93.7641 28.2724 94.2457 28.2724ZM102.14 33.3723C102.463 32.8025 102.718 32.3691 102.903 32.0723C103.089 31.7755 103.415 31.2573 103.88 30.5177C104.346 29.7777 104.632 29.3197 104.737 29.1438C104.737 30.0104 104.711 31.0587 104.659 32.2888C104.606 33.5189 104.579 34.2648 104.579 34.5267C104.567 34.6156 104.574 34.7059 104.599 34.7922C104.623 34.8784 104.665 34.9587 104.722 35.028C104.872 35.1258 105.051 35.1693 105.23 35.1514C105.612 35.1414 105.991 35.0806 106.358 34.9707L106.31 32.8481C106.31 32.5521 106.334 31.6748 106.382 30.2162C106.429 28.7576 106.453 27.902 106.453 27.6496C106.466 27.5383 106.456 27.4255 106.425 27.318C106.393 27.2106 106.34 27.1107 106.268 27.0243C106.085 26.8967 105.863 26.8383 105.641 26.8597C105.275 26.8544 104.911 26.9043 104.561 27.0077C103.3 28.9053 102.172 30.6986 101.177 32.3875C101.177 31.6528 101.206 30.7617 101.264 29.7142C101.323 28.6667 101.352 27.9785 101.352 27.6496C101.367 27.5353 101.357 27.4189 101.321 27.3092C101.285 27.1995 101.225 27.0994 101.145 27.0163C100.89 26.8858 100.604 26.8315 100.319 26.8597C99.9753 26.8663 99.6338 26.916 99.3026 27.0077L99.3643 27.2543C99.4326 27.4915 99.4831 27.7335 99.5153 27.9783C99.5627 28.2941 99.5865 28.613 99.5868 28.9323C99.5868 29.4256 99.5707 30.366 99.5387 31.7535C99.5066 33.141 99.4908 34.0377 99.4912 34.4434C99.469 34.6422 99.5077 34.8431 99.6022 35.0194C99.6714 35.0732 99.7507 35.1125 99.8354 35.135C99.9201 35.1576 100.008 35.163 100.095 35.1507C100.493 35.1433 100.889 35.0826 101.271 34.9701C101.528 34.4755 101.817 33.9425 102.14 33.371V33.3723ZM113.172 30.625C113.489 30.4371 113.748 30.1661 113.922 29.8413C114.096 29.5165 114.178 29.1503 114.159 28.7824C114.159 27.4225 113.206 26.7425 111.299 26.7425C110.722 26.7495 110.145 26.7963 109.574 26.8825C108.911 26.9758 108.474 27.0278 108.263 27.0385V27.0878C108.263 27.1264 108.26 27.1649 108.255 27.2031C108.249 27.2467 108.247 27.2906 108.247 27.3345C108.247 28.1567 108.459 28.5678 108.882 28.5678C109.202 28.5355 109.518 28.4751 109.828 28.3871C110.25 28.2758 110.685 28.215 111.122 28.2058C112.001 28.2058 112.441 28.5238 112.441 29.1598C112.441 29.906 111.885 30.2789 110.772 30.2785C110.222 30.2785 109.751 30.262 109.359 30.2291L109.311 30.3444C109.285 30.4501 109.264 30.5572 109.25 30.6651C109.229 30.793 109.219 30.9223 109.218 31.0518C109.218 31.5344 109.393 31.7757 109.742 31.7757C109.816 31.7757 110.012 31.7566 110.33 31.7184C110.609 31.6825 110.89 31.6631 111.172 31.6604C112.231 31.6604 112.76 32.0059 112.76 32.697C112.76 33.4432 112.167 33.8161 110.981 33.8157C110.062 33.8252 109.159 33.5744 108.376 33.0923C108.114 33.4579 107.964 33.8924 107.945 34.3423C107.945 35.0001 108.914 35.329 110.851 35.329C111.798 35.3791 112.738 35.1379 113.544 34.6377C113.871 34.4082 114.134 34.0987 114.308 33.7389C114.482 33.379 114.56 32.9807 114.537 32.5817C114.553 32.151 114.429 31.7268 114.182 31.3735C113.935 31.0201 113.58 30.7569 113.171 30.6238L113.172 30.625ZM123.244 34.9516C123.002 34.0005 122.896 33.0203 122.926 32.0397V30.1311C123.001 29.2272 122.741 28.3274 122.195 27.6027C121.895 27.3111 121.535 27.0874 121.14 26.9469C120.745 26.8064 120.325 26.7522 119.908 26.7881C119.314 26.7911 118.72 26.824 118.129 26.8868C117.483 26.9526 117.085 26.9855 116.938 26.9855C116.837 26.9851 116.736 26.9796 116.636 26.9688L116.525 27.8735C116.505 28.0792 116.55 28.2859 116.652 28.4655C116.713 28.5275 116.788 28.5745 116.871 28.6031C116.953 28.6316 117.041 28.6409 117.128 28.6301C117.516 28.6068 117.902 28.5491 118.28 28.4574C118.72 28.3551 119.17 28.2973 119.622 28.2848C120.745 28.2848 121.305 28.8716 121.306 30.0454V30.3253C120.541 30.1137 119.749 30.014 118.955 30.0293C118.113 29.9623 117.279 30.2315 116.636 30.778C116.153 31.2969 115.881 31.9768 115.872 32.6854C115.864 33.394 116.119 34.0805 116.588 34.6112C117.154 35.0754 117.875 35.3077 118.605 35.2611C119.217 35.2844 119.819 35.1082 120.321 34.7592C120.764 34.44 121.11 34.0047 121.322 33.5012C121.296 33.9351 121.35 34.37 121.481 34.7844C121.548 34.9112 121.652 35.0139 121.781 35.0786C121.909 35.1433 122.054 35.1668 122.195 35.1458C122.555 35.1585 122.913 35.0911 123.243 34.9485L123.244 34.9516ZM117.653 32.599C117.643 32.4071 117.683 32.2161 117.77 32.0445C117.856 31.873 117.986 31.7268 118.146 31.6203C118.551 31.3745 119.022 31.2569 119.495 31.283C120.105 31.2775 120.714 31.3494 121.307 31.497V31.5957C121.202 32.1491 120.93 32.6572 120.528 33.0516C120.306 33.2797 120.039 33.4583 119.743 33.576C119.447 33.6936 119.13 33.7475 118.812 33.7343C118.657 33.7582 118.498 33.7456 118.348 33.6974C118.198 33.6492 118.062 33.5668 117.949 33.4566C117.837 33.3464 117.751 33.2116 117.7 33.0628C117.649 32.9139 117.633 32.7551 117.653 32.599H117.653ZM127.668 33.3723C127.991 32.8025 128.245 32.3691 128.43 32.0723C128.616 31.7755 128.941 31.2573 129.407 30.5177C129.873 29.7777 130.159 29.3197 130.265 29.1438C130.265 30.0104 130.239 31.0587 130.186 32.2888C130.133 33.5189 130.106 34.264 130.106 34.5242C130.094 34.6131 130.101 34.7035 130.126 34.7897C130.15 34.876 130.192 34.9562 130.249 35.0256C130.399 35.1233 130.579 35.1668 130.757 35.1489C131.14 35.1388 131.519 35.078 131.885 34.9682L131.837 32.8456C131.837 32.5496 131.861 31.6723 131.909 30.2137C131.956 28.7551 131.98 27.8996 131.98 27.6471C131.993 27.5358 131.983 27.423 131.952 27.3156C131.92 27.2081 131.867 27.1082 131.795 27.0218C131.612 26.8942 131.39 26.8358 131.168 26.8572C130.802 26.852 130.438 26.9019 130.088 27.0052C128.827 28.9029 127.699 30.6961 126.704 32.385C126.704 31.6504 126.733 30.7593 126.791 29.7117C126.85 28.6642 126.879 27.976 126.879 27.6471C126.894 27.5328 126.884 27.4165 126.848 27.3068C126.812 27.1972 126.753 27.097 126.672 27.0138C126.418 26.8834 126.131 26.8291 125.847 26.8572C125.503 26.8638 125.161 26.9135 124.83 27.0052L124.891 27.2519C124.96 27.489 125.01 27.731 125.042 27.9758C125.09 28.2916 125.114 28.6105 125.114 28.9298C125.114 29.4231 125.098 30.3636 125.066 31.7511C125.035 33.1386 125.019 34.0352 125.018 34.441C124.996 34.6398 125.035 34.8409 125.13 35.0169C125.199 35.0708 125.278 35.1101 125.363 35.1327C125.448 35.1552 125.536 35.1606 125.623 35.1483C126.021 35.1409 126.416 35.0801 126.798 34.9676C127.055 34.4747 127.344 33.9425 127.668 33.371V33.3723ZM128.597 24.3566C127.834 24.3566 127.373 23.8904 127.215 22.958L126.945 23.1387C126.749 23.2607 126.571 23.4072 126.413 23.5747C126.271 23.6931 126.177 23.86 126.15 24.0433C126.202 24.4488 126.41 24.8179 126.73 25.0713C126.953 25.2704 127.213 25.4231 127.496 25.5206C127.778 25.6181 128.076 25.6584 128.375 25.6393C129.014 25.6575 129.636 25.4242 130.106 24.9893C130.313 24.8227 130.482 24.6142 130.603 24.3773C130.723 24.1405 130.792 23.8808 130.805 23.6154C130.806 23.5045 130.784 23.3945 130.74 23.2926C130.696 23.1907 130.632 23.099 130.551 23.0234C130.384 23.4073 130.112 23.7361 129.766 23.9719C129.42 24.2077 129.015 24.3409 128.597 24.356V24.3566ZM140.638 27.0299C140.447 26.8991 140.217 26.8381 139.986 26.8572C139.621 26.8534 139.257 26.9033 138.907 27.0052L138.954 27.2519C138.986 27.4163 139.015 27.6356 139.042 27.9098C139.068 28.1841 139.081 28.4307 139.081 28.6498C139.081 29.3191 139.075 29.8071 139.065 30.1138L138.874 30.1465C138.748 30.1576 138.557 30.1713 138.303 30.1878C138.048 30.2043 137.794 30.2125 137.54 30.2125C136.94 30.2145 136.341 30.1815 135.745 30.1138C135.809 28.7983 135.84 27.976 135.84 27.6471C135.845 27.5172 135.821 27.3877 135.769 27.2685C135.731 27.1827 135.677 27.1046 135.61 27.0379C135.54 26.9769 135.455 26.9345 135.364 26.9145C135.276 26.8904 135.185 26.8739 135.094 26.8652C135.02 26.8599 134.914 26.8572 134.776 26.8572C134.433 26.8653 134.091 26.915 133.76 27.0052L133.821 27.3178C133.863 27.5374 133.909 27.8062 133.956 28.1238C133.999 28.3904 134.023 28.6598 134.028 28.9298C134.028 29.5333 134.012 30.4435 133.98 31.6604C133.949 32.8773 133.933 33.7492 133.932 34.2763C133.914 34.5086 133.958 34.7415 134.06 34.9509C134.118 35.0235 134.194 35.0797 134.28 35.1143C134.367 35.1488 134.46 35.1606 134.553 35.1483C134.967 35.148 135.379 35.0871 135.776 34.9676L135.76 34.6876C135.739 34.5125 135.718 34.2494 135.698 33.8983C135.678 33.5472 135.667 33.2016 135.667 32.8617V31.5784L137.446 31.6771C138.007 31.6771 138.536 31.6606 139.034 31.6277C138.971 33.3166 138.939 34.2827 138.939 34.5261C138.927 34.615 138.934 34.7053 138.958 34.7915C138.983 34.8777 139.025 34.958 139.082 35.0274C139.238 35.1263 139.422 35.1697 139.606 35.1507C139.994 35.1479 140.38 35.087 140.75 34.9701L140.702 32.8641C140.702 32.4362 140.726 31.5616 140.773 30.2402C140.821 28.9189 140.845 28.0556 140.845 27.6502C140.858 27.538 140.846 27.4242 140.81 27.317C140.775 27.2098 140.715 27.1118 140.638 27.0299ZM149.835 34.9516C149.594 34.0005 149.487 33.0203 149.518 32.0397V30.1311C149.592 29.2272 149.332 28.3274 148.787 27.6027C148.486 27.3117 148.126 27.0887 147.732 26.9487C147.337 26.8087 146.918 26.755 146.5 26.7912C145.906 26.7941 145.312 26.8271 144.721 26.8899C144.075 26.9557 143.678 26.9885 143.53 26.9885C143.429 26.9882 143.328 26.9827 143.228 26.9719L143.117 27.8765C143.097 28.0822 143.141 28.2889 143.244 28.4685C143.305 28.5305 143.38 28.5776 143.463 28.6061C143.546 28.6347 143.633 28.6439 143.72 28.6332C144.108 28.61 144.494 28.5522 144.872 28.4605C145.313 28.3583 145.762 28.3004 146.214 28.2879C147.337 28.2879 147.898 28.8747 147.898 30.0484V30.3284C147.133 30.1168 146.341 30.0171 145.547 30.0324C144.706 29.9654 143.872 30.2346 143.228 30.781C142.745 31.3 142.473 31.9799 142.465 32.6885C142.456 33.3971 142.711 34.0835 143.18 34.6142C143.746 35.0785 144.467 35.3108 145.197 35.2642C145.809 35.2875 146.411 35.1113 146.913 34.7622C147.356 34.4431 147.703 34.0078 147.914 33.5042C147.888 33.9381 147.942 34.373 148.073 34.7875C148.14 34.9143 148.244 35.017 148.373 35.0817C148.501 35.1464 148.646 35.1699 148.787 35.1489C149.147 35.1616 149.505 35.0942 149.835 34.9516ZM144.244 32.599C144.235 32.4071 144.275 32.2161 144.361 32.0445C144.448 31.873 144.577 31.7268 144.737 31.6203C145.143 31.3745 145.613 31.257 146.087 31.283C146.698 31.2776 147.306 31.3495 147.898 31.497V31.5957C147.793 32.1491 147.522 32.6572 147.12 33.0516C146.898 33.2797 146.63 33.4583 146.335 33.576C146.039 33.6936 145.722 33.7475 145.404 33.7343C145.249 33.7582 145.09 33.7456 144.939 33.6974C144.789 33.6492 144.653 33.5668 144.54 33.4566C144.428 33.3464 144.343 33.2116 144.291 33.0628C144.24 32.9139 144.224 32.7551 144.245 32.599H144.244Z" fill="#818181"/>
<path fill-rule="evenodd" clip-rule="evenodd" d="M92.3902 15.3449C89.9746 15.4271 88.1511 15.4754 86.9196 15.4898C86.9196 13.345 86.9607 10.6674 87.0429 7.45707C87.1251 4.24673 87.1662 2.2627 87.1662 1.50503C87.1783 1.38077 87.1613 1.25542 87.1167 1.13883C87.0721 1.02224 87.0011 0.917604 86.9092 0.833179C86.8173 0.748753 86.707 0.686843 86.5871 0.652329C86.4672 0.617814 86.3409 0.611641 86.2183 0.634293C85.5242 0.624577 84.8312 0.689494 84.151 0.827926L84.2485 5.40051C84.2485 9.57822 84.1918 12.9413 84.0784 15.4898C81.7926 15.4737 79.9042 15.4255 78.4131 15.3449C78.7364 7.65095 78.8985 2.925 78.8994 1.16709C78.8994 0.812303 78.5752 0.634909 77.9268 0.634909C77.165 0.652854 76.4071 0.750197 75.6655 0.92536C75.8522 2.02093 75.9577 3.12881 75.9811 4.23994C75.9811 6.09488 75.9285 8.53852 75.8233 11.5709C75.7181 14.6033 75.6655 16.2477 75.6655 16.5042C75.6285 16.6658 75.6328 16.8342 75.678 16.9936C75.7232 17.1531 75.8079 17.2986 75.9242 17.4168C76.0404 17.5349 76.1846 17.6218 76.3433 17.6694C76.502 17.7171 76.6701 17.724 76.8322 17.6894C77.9671 17.7536 80.2528 17.7859 83.6895 17.7862H88.5522C90.8169 17.837 93.0825 17.748 95.3362 17.5198C95.1855 16.4868 95.1366 15.4415 95.1901 14.3989C95.1901 12.2057 95.2267 9.70544 95.2998 6.89837C95.3729 4.09133 95.4093 2.27668 95.4089 1.45446C95.4186 1.33484 95.4004 1.21461 95.3557 1.10323C95.3111 0.991856 95.2412 0.892374 95.1515 0.812623C95.0619 0.732873 94.955 0.675032 94.8393 0.643658C94.7234 0.612284 94.602 0.608234 94.4844 0.631825C93.7742 0.641174 93.0663 0.714026 92.3691 0.849509L92.5152 3.84959C92.5152 6.46261 92.4742 10.2934 92.392 15.3418L92.3902 15.3449ZM106.994 17.4255C107.396 17.6824 107.867 17.8091 108.343 17.7881C108.528 17.8099 108.715 17.7857 108.888 17.7179C109.061 17.65 109.215 17.5404 109.336 17.399C109.54 17.0388 109.633 16.6265 109.603 16.2137C109.602 15.9221 109.577 15.6309 109.53 15.343C109.184 15.3665 108.838 15.2881 108.535 15.1173C108.205 14.8343 107.939 14.4837 107.756 14.0893L106.906 12.5409C106.636 12.0041 106.224 11.552 105.714 11.2342C106.85 9.6167 108.163 8.13159 109.629 6.80649L109.506 6.66159C109.387 6.52584 109.261 6.39656 109.128 6.27433C108.973 6.12524 108.806 5.98776 108.63 5.86301C107.998 5.39516 107.447 5.37893 106.977 5.81429C106.102 6.65296 105.007 8.25794 103.694 10.6292C103.049 10.5534 102.399 10.521 101.749 10.5324C101.749 10.065 101.765 9.34716 101.798 8.37899C101.83 7.41082 101.846 6.84639 101.846 6.68564C101.886 6.3686 101.804 6.04828 101.615 5.79024C101.363 5.61662 101.057 5.53938 100.752 5.57256C100.133 5.57259 99.5151 5.62104 98.9035 5.71748C99.0699 6.69396 99.1755 7.67988 99.2197 8.66944C99.2197 9.66967 99.1991 11.0529 99.158 12.819C99.1169 14.5851 99.0964 15.8635 99.0964 16.654C99.0715 16.8 99.0808 16.9498 99.1237 17.0915C99.1665 17.2332 99.2418 17.363 99.3434 17.4707C99.445 17.5784 99.5702 17.6609 99.7092 17.7118C99.8482 17.7627 99.9971 17.7806 100.144 17.764C100.778 17.7639 101.408 17.6744 102.016 17.4983C101.89 16.8196 101.817 16.1319 101.798 15.4417C101.798 15.1029 101.794 14.5948 101.785 13.9173C101.777 13.2398 101.773 12.7317 101.773 12.3929C102.453 12.3449 103.135 12.4353 103.779 12.6587C104.259 12.9899 104.635 13.4516 104.862 13.9894L105.883 15.9732C106.142 16.5335 106.521 17.0294 106.994 17.4255ZM119.832 8.66883C120.432 9.5239 120.735 10.5522 120.695 11.5961C120.737 12.6542 120.458 13.7003 119.894 14.5962C119.606 14.9627 119.239 15.2596 118.82 15.4648C118.402 15.6701 117.943 15.7785 117.477 15.782C117.011 15.7855 116.55 15.684 116.129 15.485C115.707 15.286 115.336 14.9947 115.043 14.6326C114.454 13.7686 114.16 12.7377 114.204 11.693C114.152 10.6188 114.441 9.55584 115.03 8.65649C115.311 8.27465 115.683 7.96928 116.112 7.76849C116.541 7.56764 117.014 7.4778 117.486 7.50702C117.942 7.49241 118.395 7.59065 118.803 7.79297C119.212 7.99536 119.565 8.29556 119.83 8.66698L119.832 8.66883ZM117.41 17.9096C118.235 17.9527 119.059 17.8136 119.823 17.5021C120.588 17.1905 121.275 16.7142 121.835 16.1071C122.932 14.8285 123.505 13.1818 123.438 11.4981C123.519 9.86923 122.956 8.27379 121.869 7.05809C121.307 6.49376 120.632 6.05445 119.889 5.76892C119.145 5.48339 118.35 5.35806 117.555 5.40113C116.728 5.3622 115.903 5.50177 115.135 5.81036C114.368 6.11894 113.675 6.5893 113.106 7.18944C111.975 8.45644 111.382 10.1139 111.452 11.8107C111.361 13.446 111.92 15.0508 113.008 16.2748C113.587 16.8392 114.278 17.276 115.036 17.5572C115.794 17.8385 116.602 17.9579 117.409 17.9077L117.41 17.9096ZM128.278 7.48174C128.288 8.82367 128.149 10.1626 127.865 11.474C127.719 12.1605 127.511 12.8324 127.245 13.4819C127.078 13.9249 126.827 14.3314 126.506 14.6795C126.306 14.8851 126.078 15.0605 125.828 15.1999C125.647 15.2932 125.447 15.3428 125.244 15.3449C125.097 15.3488 124.949 15.3326 124.806 15.2968L124.656 16.844C124.625 17.1095 124.694 17.3771 124.851 17.5938C125.069 17.7495 125.338 17.8186 125.605 17.7875C126.167 17.7749 126.719 17.6357 127.22 17.3802C127.72 17.1247 128.157 16.7596 128.498 16.3118C129.341 15.328 129.941 13.715 130.297 11.4728C130.482 10.2303 130.595 8.97833 130.637 7.72286C131.966 7.69079 133.052 7.69079 133.896 7.72286C133.814 10.354 133.773 11.9267 133.773 12.441C133.736 13.9743 133.777 15.5085 133.896 17.0376C133.908 17.2606 133.993 17.4733 134.139 17.6426C134.361 17.7653 134.616 17.816 134.869 17.7875C135.53 17.788 136.186 17.6818 136.814 17.473C136.7 17.0701 136.619 16.7354 136.57 16.469C136.498 15.9435 136.453 15.4145 136.436 14.8842C136.395 14.0941 136.375 13.0295 136.375 11.6905C136.375 10.8037 136.399 9.95686 136.448 9.14983C136.496 8.34285 136.541 7.70559 136.581 7.23816C136.621 6.77074 136.643 6.48831 136.643 6.39149C136.652 6.28472 136.634 6.17738 136.589 6.08006C136.544 5.98274 136.474 5.89879 136.387 5.83649C136.038 5.68304 135.659 5.6087 135.278 5.61881C133.527 5.53659 131.12 5.56084 128.056 5.69158C128.193 6.27808 128.267 6.87766 128.275 7.47989L128.278 7.48174ZM150.307 17.4717C149.939 16.0756 149.775 14.633 149.821 13.1896V10.385C149.821 8.70767 149.448 7.46984 148.702 6.67146C147.957 5.87308 146.79 5.47389 145.201 5.47389C144.375 5.47389 143.467 5.5222 142.478 5.61881C141.49 5.71542 140.881 5.76373 140.654 5.76373C140.508 5.76373 140.354 5.75571 140.192 5.73968L140.022 7.07043C139.993 7.37401 140.061 7.67907 140.217 7.94116C140.313 8.03298 140.428 8.10229 140.555 8.1441C140.68 8.18591 140.814 8.19917 140.946 8.18289C141.54 8.14879 142.13 8.06381 142.709 7.92882C143.385 7.7783 144.073 7.6932 144.763 7.67476C146.482 7.67476 147.341 8.53809 147.341 10.2648V10.6773C146.167 10.3658 144.956 10.2192 143.742 10.2419C142.153 10.2419 140.97 10.6089 140.192 11.3427C139.456 12.0918 139.038 13.0963 139.025 14.1466C139.011 15.1969 139.403 16.2118 140.119 16.9796C140.997 17.6661 142.096 18.0062 143.207 17.9355C144.139 17.9703 145.057 17.7114 145.833 17.1955C146.506 16.7332 147.036 16.0926 147.366 15.3455C147.327 15.9842 147.409 16.6246 147.608 17.2325C147.716 17.4215 147.878 17.5737 148.073 17.6687C148.269 17.7637 148.488 17.7972 148.702 17.7647C149.252 17.783 149.798 17.6841 150.305 17.4742L150.307 17.4717ZM141.748 14.0122C141.736 13.7272 141.8 13.4438 141.932 13.191C142.064 12.9383 142.261 12.725 142.502 12.5729C143.129 12.2115 143.847 12.0401 144.569 12.0796C145.504 12.0713 146.435 12.177 147.343 12.3941V12.539C147.179 13.3597 146.762 14.1084 146.151 14.6801C145.806 15.0181 145.394 15.2816 144.942 15.4543C144.491 15.6269 144.008 15.7051 143.525 15.684C142.342 15.684 141.75 15.1276 141.75 14.0147L141.748 14.0122Z" fill="#818181"/>
</g>
<defs>
<clipPath id="clip0">
<rect width="151" height="37" fill="white"/>
</clipPath>
</defs>
</svg>
