<svg width="107" height="26" viewBox="0 0 107 26" fill="none" xmlns="http://www.w3.org/2000/svg">
<g clip-path="url(#clip0)">
<path fill-rule="evenodd" clip-rule="evenodd" d="M103.266 25.351L95.129 14.67V25.351H91.481V8.54902H94.889L102.762 18.894V8.54902H106.41V25.351H103.266ZM83.585 8.54902H87.281V25.351H83.585V8.54902ZM75.714 14.382L70.986 21.559H70.89L66.21 14.454V25.351H62.585V8.54902H66.57L70.986 15.654L75.402 8.54902H79.387V25.351H75.714V14.382ZM50.346 25.639C45.162 25.639 41.441 21.775 41.441 16.95C41.441 12.174 45.21 8.26102 50.394 8.26102C55.579 8.26102 59.299 12.126 59.299 16.95C59.299 21.727 55.531 25.639 50.346 25.639ZM50.346 11.67C47.37 11.67 45.306 14.022 45.306 16.95C45.306 19.83 47.418 22.231 50.394 22.231C53.37 22.231 55.435 19.878 55.435 16.95C55.435 14.07 53.322 11.67 50.346 11.67ZM35.035 25.351L31.386 19.974H28.53V25.351H24.834V8.54902H32.514C34.651 8.54902 36.307 9.14902 37.411 10.254C38.347 11.19 38.851 12.51 38.851 14.142C38.851 16.854 37.387 18.558 35.251 19.35L39.355 25.351H35.035ZM32.202 11.886H28.53V16.71H32.274C34.074 16.71 35.107 15.75 35.107 14.286C35.107 12.702 34.002 11.886 32.202 11.886ZM8.75405 8.54902H21.427V11.838H12.426V15.246H20.347V18.534H12.426V22.063H21.547V25.351H8.75405V8.54902ZM-0.00195312 -0.000976562H4.99805V4.99902H-0.00195312V-0.000976562ZM4.55405 25.351H0.858047V8.54902H4.55405V25.351Z" fill="#818181"/>
</g>
<defs>
<clipPath id="clip0">
<rect width="107" height="26" fill="white"/>
</clipPath>
</defs>
</svg>
