<svg width="150" height="33" viewBox="0 0 150 33" fill="none" xmlns="http://www.w3.org/2000/svg">
<path d="M45.1094 5.66151H50.2737C51.9953 5.66151 53.1429 6.11489 53.9463 7.02165C54.7497 7.81506 55.2087 9.17522 55.2087 10.7621V21.3032C55.2087 23.0034 54.8644 24.2502 53.9463 25.1569C53.1429 25.9504 51.8805 26.4037 50.2737 26.4037H45.1094V5.66151ZM108.001 26.4037H107.657C107.657 24.4768 107.657 22.55 107.657 20.6231C107.657 19.603 107.542 18.9229 107.083 18.5829C106.739 18.2429 106.165 18.0162 105.476 18.0162H104.329V26.4037H101V5.66151H106.05C107.772 5.66151 109.034 6.11489 109.723 6.90831C110.526 7.70172 110.87 8.83519 110.87 10.422V12.0089C110.87 14.1624 110.182 15.5226 108.69 16.2026C109.493 16.5427 110.067 17.1094 110.411 17.9028C110.755 18.6962 110.87 19.603 110.87 20.6231C110.87 22.55 110.87 24.3635 110.87 26.2904H108.001V26.4037ZM48.4376 8.60849V23.4567H50.2737C50.7328 23.4567 51.1919 23.3434 51.5362 23.0034C51.8805 22.6633 51.9953 22.21 51.9953 21.4165V10.6487C51.9953 9.85529 51.8805 9.4019 51.5362 9.06187C51.1919 8.72183 50.8476 8.60849 50.2737 8.60849H48.4376ZM59.9142 21.6432C59.9142 22.4366 60.0289 22.8901 60.3733 23.2301C60.7174 23.5701 61.0617 23.6834 61.6356 23.6834C62.2094 23.6834 62.5538 23.5701 62.8981 23.2301C63.2424 22.8901 63.3571 22.4366 63.3571 21.6432V10.422C63.3571 9.6286 63.2424 9.17522 62.8981 8.83519C62.5538 8.49515 62.2094 8.38179 61.6356 8.38179C61.0617 8.38179 60.7174 8.49515 60.3733 8.83519C60.0289 9.17522 59.9142 9.6286 59.9142 10.422V21.6432ZM56.7006 10.6487C56.7006 8.94853 57.1597 7.70172 57.9631 6.79496C58.7665 5.8882 60.029 5.43481 61.6356 5.43481C63.2424 5.43481 64.5047 5.8882 65.3081 6.79496C66.1115 7.70172 66.5706 8.94853 66.5706 10.6487V21.4165C66.5706 23.1167 66.1115 24.3635 65.3081 25.2703C64.5047 26.177 63.2424 26.6305 61.6356 26.6305C60.029 26.6305 58.7665 26.177 57.9631 25.2703C57.1597 24.3635 56.7006 23.1167 56.7006 21.4165V10.6487ZM77.8176 18.6962V21.4165C77.8176 23.1167 77.3586 24.3635 76.5552 25.2703C75.7518 26.177 74.4895 26.6305 72.8827 26.6305C71.276 26.6305 70.0135 26.177 69.2102 25.2703C68.4068 24.3635 67.9478 23.1167 67.9478 21.4165V10.6487C68.0624 8.94853 68.4068 7.70172 69.2102 6.79496C70.1283 5.8882 71.3908 5.43481 72.9974 5.43481C74.6042 5.43481 75.8665 5.8882 76.6699 6.79496C77.4733 7.70172 77.9324 8.94853 77.9324 10.6487V12.6889H74.8338V10.422C74.8338 9.6286 74.719 9.17522 74.3747 8.83519C74.0304 8.49515 73.6861 8.38179 73.1122 8.38179C72.5383 8.38179 72.0793 8.49515 71.8497 8.83519C71.5056 9.17522 71.3908 9.6286 71.3908 10.422V21.6432C71.3908 22.4366 71.5056 22.8901 71.8497 23.2301C72.194 23.5701 72.5383 23.6834 73.1122 23.6834C73.6861 23.6834 74.0304 23.5701 74.3747 23.2301C74.719 22.8901 74.8338 22.4366 74.8338 21.6432V18.6962H77.8176ZM78.8506 5.66151H89.0647V8.60849H85.6218V26.4037H82.2936V8.60849H78.8506V5.66151ZM92.9668 21.6432C92.9668 22.4366 93.0815 22.8901 93.4259 23.2301C93.7702 23.5701 94.1143 23.6834 94.6882 23.6834C95.262 23.6834 95.6064 23.5701 95.9507 23.2301C96.295 22.8901 96.4097 22.4366 96.4097 21.6432V10.422C96.4097 9.6286 96.295 9.17522 95.9507 8.83519C95.6064 8.49515 95.262 8.38179 94.6882 8.38179C94.1143 8.38179 93.7702 8.49515 93.4259 8.83519C93.0815 9.17522 92.9668 9.6286 92.9668 10.422V21.6432ZM89.7534 10.6487C89.7534 8.94853 90.2124 7.70172 91.0157 6.79496C91.8191 5.8882 93.0816 5.43481 94.6882 5.43481C96.295 5.43481 97.5575 5.8882 98.3607 6.79496C99.1641 7.70172 99.6232 8.94853 99.6232 10.6487V21.4165C99.6232 23.1167 99.1641 24.3635 98.3607 25.2703C97.5575 26.177 96.295 26.6305 94.6882 26.6305C93.0816 26.6305 91.8191 26.177 91.0157 25.2703C90.2124 24.3635 89.7534 23.1167 89.7534 21.4165V10.6487ZM104.443 8.60849V14.9558H105.706C106.28 14.9558 106.739 14.8425 107.198 14.5024C107.542 14.1624 107.772 13.5957 107.772 12.8023V10.7621C107.772 9.96863 107.657 9.51526 107.427 9.17522C107.083 8.83519 106.739 8.72183 106.165 8.72183H104.443V8.60849Z" fill="#818181"/>
<path d="M30.5871 0C31.3831 0 32.0652 0.682239 32.0652 1.47819V4.66197C32.0652 13.3037 32.0652 21.9453 32.0652 30.5871C32.0652 31.383 31.3831 32.0652 30.5871 32.0652C20.922 32.0652 11.1433 32.0652 1.47819 32.0652C0.68224 32.0652 0 31.383 0 30.5871C0 20.9219 0 11.1432 0 1.47819C0 0.682239 0.68224 0 1.47819 0C11.257 0 20.922 0 30.5871 0ZM28.7677 6.25387H27.2896C26.4937 6.25387 25.8114 5.57163 25.8114 4.77567V3.4112H6.36757V4.77567C6.36757 5.57163 5.68534 6.25387 4.88939 6.25387H3.4112V25.9251H4.88939C5.68534 25.9251 6.36757 26.6073 6.36757 27.4034V28.7678C12.8488 28.7678 19.3302 28.7678 25.8114 28.7678V27.4034C25.8114 26.6073 26.4937 25.9251 27.2896 25.9251H28.7677V6.25387Z" fill="#818181"/>
<path d="M20.8389 18.7872H22.9873C23.7789 18.7872 24.4572 19.4906 24.4572 20.3111C24.4572 21.1317 23.7789 21.835 22.9873 21.835H20.8389V23.476C20.8389 24.2966 20.2735 25 19.369 25C18.4644 25 17.899 24.2966 17.899 23.476V20.3111V8.58904C17.899 7.76851 18.4644 7.06519 19.369 7.06519C20.2735 7.06519 20.8389 7.76851 20.8389 8.58904V18.7872ZM11.1146 8.58904C11.1146 7.76851 11.7931 7.06519 12.5846 7.06519C13.3761 7.06519 14.0545 7.76851 14.0545 8.58904V20.3111V23.476C14.0545 24.2966 13.3761 25 12.5846 25C11.7931 25 11.1146 24.2966 11.1146 23.476V21.835H9.07932C8.28781 21.835 7.60938 21.1317 7.60938 20.3111C7.60938 19.4906 8.28781 18.7872 9.07932 18.7872H11.1146V8.58904Z" fill="#818181"/>
<path d="M118.479 5.97827H128.62V8.91337H125.167V26.417H121.877V8.91337H118.479V5.97827ZM133.061 14.57H137.556V17.4517H133.061V23.4286H138.762V26.3636H129.771V5.97827H138.762V8.91337H133.061V14.57ZM143.422 5.97827V21.7209C143.422 22.468 143.586 22.9483 143.915 23.2685C144.189 23.5353 144.628 23.6954 145.176 23.6954C145.724 23.6954 146.108 23.5353 146.437 23.2685C146.766 23.0016 146.876 22.468 146.876 21.7209V5.97827H150V21.5074C150 23.1617 149.616 24.4425 148.739 25.2964C147.917 26.1502 146.711 26.6304 145.066 26.6304C143.477 26.6304 142.216 26.2035 141.393 25.2964C140.571 24.3891 140.133 23.1617 140.133 21.5074V5.97827H143.422Z" fill="#818181"/>
</svg>
