<svg width="22" height="22" viewBox="0 0 22 22" fill="none" xmlns="http://www.w3.org/2000/svg">
<g clip-path="url(#clip0)">
<path opacity="0.8" d="M11 21.999C17.0751 21.999 22 17.0742 22 10.999C22 4.92389 17.0751 -0.000976562 11 -0.000976562C4.92487 -0.000976562 0 4.92389 0 10.999C0 17.0742 4.92487 21.999 11 21.999Z" fill="white"/>
<path d="M17.5733 11.8849V16.42H14.944V12.1888C14.944 11.1265 14.5644 10.4009 13.6124 10.4009C12.8859 10.4009 12.4543 10.8894 12.2637 11.3623C12.1945 11.5314 12.1767 11.7661 12.1767 12.0032V16.4198H9.54718C9.54718 16.4198 9.58247 9.25364 9.54718 8.51185H12.1769V9.63248C12.1716 9.6413 12.1641 9.64993 12.1594 9.65836H12.1769V9.63248C12.5263 9.09481 13.1495 8.32616 14.5466 8.32616C16.2764 8.32616 17.5733 9.45639 17.5733 11.8849ZM6.79649 4.69995C5.89705 4.69995 5.30859 5.29036 5.30859 6.06608C5.30859 6.82532 5.87999 7.43279 6.76198 7.43279H6.77904C7.69613 7.43279 8.26635 6.82532 8.26635 6.06608C8.24889 5.29036 7.69613 4.69995 6.79649 4.69995ZM5.46487 16.42H8.0934V8.51185H5.46487V16.42Z" fill="#282828"/>
</g>
<defs>
<clipPath id="clip0">
<rect width="22" height="22" fill="white"/>
</clipPath>
</defs>
</svg>
