<svg width="60" height="45" viewBox="0 0 60 45" fill="none" xmlns="http://www.w3.org/2000/svg">
<path d="M59 36.0321H57V5.0321C56.9965 2.2721 54.76 0.0356045 52 0.0321045H8C5.24 0.0356045 3.0035 2.2721 3 5.0321V36.0321H1C0.4475 36.0321 0 36.4796 0 37.0321V40.0321C0 42.2411 1.791 44.0321 4 44.0321H56C58.209 44.0321 60 42.2411 60 40.0321V37.0321C60 36.4796 59.5525 36.0321 59 36.0321ZM5 5.0321C5 3.3756 6.3435 2.0321 8 2.0321H52C53.6565 2.0321 55 3.3756 55 5.0321V36.0321H53V7.0321C53 5.3756 51.6565 4.0321 50 4.0321H10C8.3435 4.0321 7 5.3756 7 7.0321V36.0321H5V5.0321ZM51 7.0321V36.0321H36.118C35.0505 36.0261 34.0738 36.6294 33.6 37.5851C33.465 37.8601 33.1838 38.0341 32.877 38.0321H27.118C26.811 38.0341 26.5305 37.8601 26.395 37.5851C25.922 36.6306 24.9473 36.0284 23.882 36.0321H9V7.0321C9 6.4796 9.4475 6.0321 10 6.0321H50C50.5525 6.0321 51 6.4796 51 7.0321ZM58 40.0321C58 41.1369 57.1048 42.0321 56 42.0321H4C2.89525 42.0321 2 41.1369 2 40.0321V38.0321H23.882C24.189 38.0301 24.4695 38.2041 24.605 38.4791C25.078 39.4336 26.0528 40.0359 27.118 40.0321H32.882C33.9495 40.0381 34.9263 39.4349 35.4 38.4791C35.5348 38.2056 35.8128 38.0321 36.118 38.0321H58V40.0321Z" fill="#282828"/>
<path d="M29.9999 12.0321C24.6034 12.0346 19.5719 14.7556 16.6154 19.2699C13.6594 23.7846 13.1764 29.4849 15.3319 34.4321L17.1649 33.6321C16.5314 32.1744 16.1547 30.6181 16.0504 29.0321H18.0449C18.2074 31.0101 18.8609 32.9159 19.9449 34.5784L21.6212 33.4859C18.9024 29.3056 19.6787 23.7609 23.4419 20.4886C27.2047 17.2159 32.8029 17.2159 36.5662 20.4886C40.3287 23.7609 41.1059 29.3056 38.3872 33.4859L40.0627 34.5784C41.1444 32.9151 41.7949 31.0091 41.9549 29.0321H43.9494C43.8452 30.6181 43.4684 32.1744 42.8349 33.6321L44.6679 34.4321C46.8234 29.4849 46.3404 23.7846 43.3844 19.2699C40.4279 14.7556 35.3964 12.0346 29.9999 12.0321ZM18.0504 27.0321H16.0504C16.2637 24.0196 17.4499 21.1571 19.4319 18.8784L20.8452 20.2909C19.2327 22.1916 18.2562 24.5484 18.0504 27.0321ZM28.9999 16.0826C26.5162 16.2884 24.1594 17.2649 22.2587 18.8774L20.8462 17.4641C23.1249 15.4821 25.9874 14.2959 28.9999 14.0826V16.0826ZM37.7412 18.8774C35.8404 17.2649 33.4837 16.2884 30.9999 16.0826V14.0826C34.0124 14.2959 36.8749 15.4821 39.1537 17.4641L37.7412 18.8774ZM41.9494 27.0321C41.7437 24.5484 40.7672 22.1916 39.1547 20.2909L40.5679 18.8784C42.5499 21.1571 43.7362 24.0196 43.9494 27.0321H41.9494Z" fill="#FF5C8B"/>
<path d="M31.2851 25.3322C30.8849 25.1369 30.4454 25.0342 30.0001 25.0322C28.3436 25.0322 27.0001 26.3757 27.0001 28.0322C27.0001 29.6887 28.3436 31.0322 30.0001 31.0322C31.6566 31.0322 33.0001 29.6887 33.0001 28.0322C32.9981 27.5869 32.8954 27.1474 32.7001 26.7472L36.7079 22.7392L35.2939 21.3252L31.2851 25.3322ZM30.0001 29.0322C29.4476 29.0322 29.0001 28.5847 29.0001 28.0322C29.0001 27.4797 29.4476 27.0322 30.0001 27.0322C30.5526 27.0322 31.0001 27.4797 31.0001 28.0322C31.0001 28.5847 30.5526 29.0322 30.0001 29.0322Z" fill="#08BBF6"/>
<path d="M26.0001 34.0321C26.0001 33.4798 26.4478 33.0321 27.0001 33.0321H30.0001C30.5524 33.0321 31.0001 33.4798 31.0001 34.0321C31.0001 34.5844 30.5524 35.0321 30.0001 35.0321H27.0001C26.4478 35.0321 26.0001 34.5844 26.0001 34.0321Z" fill="#FF5C8B"/>
<path d="M32.9999 34.0321C32.9999 33.4798 33.4476 33.0321 33.9999 33.0321C34.5522 33.0321 34.9999 33.4798 34.9999 34.0321C34.9999 34.5844 34.5522 35.0321 33.9999 35.0321C33.4476 35.0321 32.9999 34.5844 32.9999 34.0321Z" fill="#08BBF6"/>
<path d="M11.0001 9.0321C11.0001 8.47982 11.4478 8.0321 12.0001 8.0321C12.5524 8.0321 13.0001 8.47982 13.0001 9.0321C13.0001 9.58438 12.5524 10.0321 12.0001 10.0321C11.4478 10.0321 11.0001 9.58438 11.0001 9.0321Z" fill="#FF5C8B"/>
<path d="M18.9999 9.0321C18.9999 8.47982 19.4476 8.0321 19.9999 8.0321C20.5522 8.0321 20.9999 8.47982 20.9999 9.0321C20.9999 9.58438 20.5522 10.0321 19.9999 10.0321C19.4476 10.0321 18.9999 9.58438 18.9999 9.0321Z" fill="#FF5C8B"/>
<path d="M11.0001 13.0321C11.0001 12.4798 11.4478 12.0321 12.0001 12.0321H15.0001C15.5524 12.0321 16.0001 12.4798 16.0001 13.0321C16.0001 13.5844 15.5524 14.0321 15.0001 14.0321H12.0001C11.4478 14.0321 11.0001 13.5844 11.0001 13.0321Z" fill="#08BBF6"/>
<path d="M40.0001 9.0321C40.0001 8.47982 40.4478 8.0321 41.0001 8.0321H48.0001C48.5524 8.0321 49.0001 8.47982 49.0001 9.0321C49.0001 9.58438 48.5524 10.0321 48.0001 10.0321H41.0001C40.4478 10.0321 40.0001 9.58438 40.0001 9.0321Z" fill="#FF5C8B"/>
<path d="M43 13.0321C43 12.4798 43.4477 12.0321 44 12.0321H48C48.5523 12.0321 49 12.4798 49 13.0321C49 13.5844 48.5523 14.0321 48 14.0321H44C43.4477 14.0321 43 13.5844 43 13.0321Z" fill="#08BBF6"/>
<path d="M15 9.0321C15 8.47982 15.4477 8.0321 16 8.0321C16.5523 8.0321 17 8.47982 17 9.0321C17 9.58438 16.5523 10.0321 16 10.0321C15.4477 10.0321 15 9.58438 15 9.0321Z" fill="#08BBF6"/>
</svg>
