<svg width="60" height="60" viewBox="0 0 60 60" fill="none" xmlns="http://www.w3.org/2000/svg">
<path d="M4 44H6V42H4C2.89525 42 2 41.1048 2 40V4C2 2.89525 2.89525 2 4 2H48C49.1048 2 50 2.89525 50 4V6H52V4C52 1.791 50.209 0 48 0H4C1.791 0 0 1.791 0 4V40C0 42.209 1.791 44 4 44Z" fill="#282828"/>
<path d="M4 5C4 4.44772 4.44772 4 5 4C5.55229 4 6 4.44772 6 5C6 5.55229 5.55229 6 5 6C4.44772 6 4 5.55229 4 5Z" fill="#FF5C8B"/>
<path d="M8 5C8 4.44772 8.44772 4 9 4C9.55229 4 10 4.44772 10 5C10 5.55229 9.55229 6 9 6C8.44772 6 8 5.55229 8 5Z" fill="#08BBF6"/>
<path d="M12 5C12 4.44772 12.4477 4 13 4C13.5523 4 14 4.44772 14 5C14 5.55228 13.5523 6 13 6C12.4477 6 12 5.55228 12 5Z" fill="#FF5C8B"/>
<path d="M56 8H12C9.791 8 8 9.791 8 12V48C8 50.209 9.791 52 12 52H56C58.209 52 60 50.209 60 48V12C60 9.791 58.209 8 56 8ZM58 48C58 49.1048 57.1048 50 56 50H12C10.8953 50 10 49.1048 10 48V12C10 10.8953 10.8953 10 12 10H56C57.1048 10 58 10.8953 58 12V48Z" fill="#282828"/>
<path d="M12 13C12 12.4477 12.4477 12 13 12C13.5523 12 14 12.4477 14 13C14 13.5523 13.5523 14 13 14C12.4477 14 12 13.5523 12 13Z" fill="#08BBF6"/>
<path d="M16 13C16 12.4477 16.4477 12 17 12C17.5523 12 18 12.4477 18 13C18 13.5523 17.5523 14 17 14C16.4477 14 16 13.5523 16 13Z" fill="#FF5C8B"/>
<path d="M20 13C20 12.4477 20.4477 12 21 12C21.5523 12 22 12.4477 22 13C22 13.5523 21.5523 14 21 14C20.4477 14 20 13.5523 20 13Z" fill="#08BBF6"/>
<path d="M12 17C12 16.4477 12.4477 16 13 16H55C55.5523 16 56 16.4477 56 17C56 17.5523 55.5523 18 55 18H13C12.4477 18 12 17.5523 12 17Z" fill="#282828"/>
<path d="M14 34C14 33.4477 14.4477 33 15 33H19C19.5523 33 20 33.4477 20 34C20 34.5523 19.5523 35 19 35H15C14.4477 35 14 34.5523 14 34Z" fill="#08BBF6"/>
<path d="M14 39C14 38.4477 14.4477 38 15 38H34C34.5523 38 35 38.4477 35 39C35 39.5523 34.5523 40 34 40H15C14.4477 40 14 39.5523 14 39Z" fill="#FF5C8B"/>
<path d="M14 44C14 43.4477 14.4477 43 15 43H24C24.5523 43 25 43.4477 25 44C25 44.5523 24.5523 45 24 45H15C14.4477 45 14 44.5523 14 44Z" fill="#08BBF6"/>
<path d="M31.9999 29C31.9999 28.4477 32.4476 28 32.9999 28H40.9999C41.5522 28 41.9999 28.4477 41.9999 29C41.9999 29.5523 41.5522 30 40.9999 30H32.9999C32.4476 30 31.9999 29.5523 31.9999 29Z" fill="#FF5C8B"/>
<path d="M47 39C47 38.4477 47.4477 38 48 38H53C53.5523 38 54 38.4477 54 39C54 39.5523 53.5523 40 53 40H48C47.4477 40 47 39.5523 47 39Z" fill="#08BBF6"/>
<path d="M38 44C38 43.4477 38.4477 43 39 43H53C53.5523 43 54 43.4477 54 44C54 44.5523 53.5523 45 53 45H39C38.4477 45 38 44.5523 38 44Z" fill="#FF5C8B"/>
<path d="M23 34C23 33.4477 23.4477 33 24 33H37C37.5523 33 38 33.4477 38 34C38 34.5523 37.5523 35 37 35H24C23.4477 35 23 34.5523 23 34Z" fill="#08BBF6"/>
<path d="M31.9999 24C31.9999 23.4477 32.4476 23 32.9999 23H37.9999C38.5522 23 38.9999 23.4477 38.9999 24C38.9999 24.5523 38.5522 25 37.9999 25H32.9999C32.4476 25 31.9999 24.5523 31.9999 24Z" fill="#08BBF6"/>
<path d="M41 24C41 23.4477 41.4477 23 42 23H53C53.5523 23 54 23.4477 54 24C54 24.5523 53.5523 25 53 25H42C41.4477 25 41 24.5523 41 24Z" fill="#FF5C8B"/>
<path d="M27 44C27 43.4477 27.4477 43 28 43H35C35.5523 43 36 43.4477 36 44C36 44.5523 35.5523 45 35 45H28C27.4477 45 27 44.5523 27 44Z" fill="#08BBF6"/>
<path d="M40 34C40 33.4477 40.4477 33 41 33H53C53.5523 33 54 33.4477 54 34C54 34.5523 53.5523 35 53 35H41C40.4477 35 40 34.5523 40 34Z" fill="#FF5C8B"/>
<path d="M44 29C44 28.4477 44.4477 28 45 28H53C53.5523 28 54 28.4477 54 29C54 29.5523 53.5523 30 53 30H45C44.4477 30 44 29.5523 44 29Z" fill="#08BBF6"/>
<path d="M37 39C37 38.4477 37.4477 38 38 38H44C44.5523 38 45 38.4477 45 39C45 39.5523 44.5523 40 44 40H38C37.4477 40 37 39.5523 37 39Z" fill="#08BBF6"/>
<path d="M17.2931 22.293L14.2931 25.293C13.9028 25.6837 13.9028 26.3162 14.2931 26.707L17.2931 29.707L18.7071 28.293L16.4141 26L18.7071 23.707L17.2931 22.293Z" fill="#FF5C8B"/>
<path d="M26.7071 29.707L29.7071 26.707C30.0973 26.3162 30.0973 25.6837 29.7071 25.293L26.7071 22.293L25.2931 23.707L27.5861 26L25.2931 28.293L26.7071 29.707Z" fill="#FF5C8B"/>
<path d="M20.9994 30.0002C20.4637 29.8664 20.138 29.3235 20.272 28.7879L21.7878 22.7277C21.9218 22.1921 22.4647 21.8664 23.0003 22.0004C23.5359 22.1344 23.8615 22.6773 23.7275 23.2129L22.2115 29.2731C22.0775 29.8085 21.5349 30.1341 20.9994 30.0002Z" fill="#08BBF6"/>
<path d="M45.0001 54H23.0001C22.7348 54 22.4806 54.1055 22.2931 54.293L20.2931 56.293C19.9028 56.6838 19.9028 57.3163 20.2931 57.707L22.2931 59.707C22.4806 59.8945 22.7348 60 23.0001 60H45.0001C46.6566 60 48.0001 58.6565 48.0001 57C48.0001 55.3435 46.6566 54 45.0001 54ZM42.0001 58H23.4141L22.4141 57L23.4141 56H42.0001V58ZM45.0001 58H44.0001V56H45.0001C45.5526 56 46.0001 56.4475 46.0001 57C46.0001 57.5525 45.5526 58 45.0001 58Z" fill="#282828"/>
</svg>
