<svg width="110" height="110" viewBox="0 0 110 110" fill="none" xmlns="http://www.w3.org/2000/svg">
<g clip-path="url(#clip0)">
<path d="M3.66667 14.6667C3.66667 12.6413 5.30796 11 7.33333 11H95.3333C97.3587 11 99 12.6413 99 14.6667V40.3333H102.667V14.6667C102.667 10.6168 99.3832 7.33334 95.3333 7.33334H7.33333C3.2835 7.33334 0 10.6168 0 14.6667V77C0 81.0498 3.2835 84.3333 7.33333 84.3333H39.7027L35.3027 99H31.1667V102.667H71.5V99H67.364L62.964 84.3333H71.5V80.6667H7.33333C5.30796 80.6667 3.66667 79.0254 3.66667 77V73.3333H71.5V69.6667H3.66667V14.6667ZM43.5307 84.3333H59.136L63.536 99H39.1307L43.5307 84.3333Z" fill="#282828"/>
<path d="M95.334 40.3333V16.5C95.334 15.4871 94.5136 14.6666 93.5007 14.6666H9.16732C8.1544 14.6666 7.33398 15.4871 7.33398 16.5V66H11.0007V33H91.6673V40.3333H95.334ZM11.0007 29.3333V18.3333H91.6673V29.3333H11.0007Z" fill="#282828"/>
<path d="M16.5 23.8333C16.5 22.8208 17.3208 22 18.3333 22H25.6667C26.6792 22 27.5 22.8208 27.5 23.8333C27.5 24.8458 26.6792 25.6666 25.6667 25.6666H18.3333C17.3208 25.6666 16.5 24.8458 16.5 23.8333Z" fill="#08BBF6"/>
<path d="M31.166 23.8333C31.166 22.8208 31.9868 22 32.9994 22H40.3327C41.3452 22 42.166 22.8208 42.166 23.8333C42.166 24.8458 41.3452 25.6666 40.3327 25.6666H32.9994C31.9868 25.6666 31.166 24.8458 31.166 23.8333Z" fill="#08BBF6"/>
<path d="M45.834 23.8333C45.834 22.8208 46.6548 22 47.6673 22H55.0007C56.0132 22 56.834 22.8208 56.834 23.8333C56.834 24.8458 56.0132 25.6666 55.0007 25.6666H47.6673C46.6548 25.6666 45.834 24.8458 45.834 23.8333Z" fill="#08BBF6"/>
<path d="M60.5 23.8333C60.5 22.8208 61.3208 22 62.3333 22H69.6667C70.6792 22 71.5 22.8208 71.5 23.8333C71.5 24.8458 70.6792 25.6666 69.6667 25.6666H62.3333C61.3208 25.6666 60.5 24.8458 60.5 23.8333Z" fill="#08BBF6"/>
<path d="M36.666 38.5C36.666 37.4871 35.8456 36.6667 34.8327 36.6667H16.4993C15.4864 36.6667 14.666 37.4871 14.666 38.5V53.1667C14.666 54.1796 15.4864 55 16.4993 55H34.8327C35.8456 55 36.666 54.1796 36.666 53.1667V38.5ZM32.9993 51.3333H18.3327V40.3333H32.9993V51.3333Z" fill="#FF5C8B"/>
<path d="M62.334 38.5C62.334 37.4871 61.5136 36.6667 60.5007 36.6667H42.1673C41.1544 36.6667 40.334 37.4871 40.334 38.5V53.1667C40.334 54.1796 41.1544 55 42.1673 55H60.5007C61.5136 55 62.334 54.1796 62.334 53.1667V38.5ZM58.6673 51.3333H44.0007V40.3333H58.6673V51.3333Z" fill="#FF5C8B"/>
<path d="M69.6667 40.3333H88V38.5C88 37.4871 87.1796 36.6667 86.1667 36.6667H67.8333C66.8204 36.6667 66 37.4871 66 38.5V53.1667C66 54.1796 66.8204 55 67.8333 55H71.5V51.3333H69.6667V40.3333Z" fill="#FF5C8B"/>
<path d="M36.666 66V60.5C36.666 59.4871 35.8456 58.6666 34.8327 58.6666H16.4993C15.4864 58.6666 14.666 59.4871 14.666 60.5V66H18.3327V62.3333H32.9993V66H36.666Z" fill="#FF5C8B"/>
<path d="M62.334 66V60.5C62.334 59.4871 61.5136 58.6666 60.5007 58.6666H42.1673C41.1544 58.6666 40.334 59.4871 40.334 60.5V66H44.0007V62.3333H58.6673V66H62.334Z" fill="#FF5C8B"/>
<path d="M66 60.5V66H69.6667V62.3333H71.5V58.6666H67.8333C66.8204 58.6666 66 59.4871 66 60.5Z" fill="#FF5C8B"/>
<path d="M102.666 44H82.4993C78.4495 44 75.166 47.2835 75.166 51.3333V95.3333C75.166 99.3832 78.4495 102.667 82.4993 102.667H102.666C106.716 102.667 109.999 99.3832 109.999 95.3333V51.3333C109.999 47.2835 106.716 44 102.666 44ZM106.333 95.3333C106.333 97.3587 104.691 99 102.666 99H82.4993C80.474 99 78.8327 97.3587 78.8327 95.3333V93.5H106.333V95.3333ZM106.333 89.8333H78.8327V51.3333C78.8327 49.308 80.474 47.6667 82.4993 47.6667H102.666C104.691 47.6667 106.333 49.308 106.333 51.3333V89.8333Z" fill="#282828"/>
<path d="M100.833 58.6666H84.3333C83.3204 58.6666 82.5 59.4871 82.5 60.5V75.1667C82.5 76.1796 83.3204 77 84.3333 77H100.833C101.846 77 102.667 76.1796 102.667 75.1667V60.5C102.667 59.4871 101.846 58.6666 100.833 58.6666ZM99 73.3334H86.1667V62.3333H99V73.3334Z" fill="#08BBF6"/>
<path d="M100.833 80.6667H84.3333C83.3204 80.6667 82.5 81.4871 82.5 82.5V86.1667H86.1667V84.3333H99V86.1667H102.667V82.5C102.667 81.4871 101.846 80.6667 100.833 80.6667Z" fill="#08BBF6"/>
<path d="M82.5 53.1667C82.5 52.1541 83.3208 51.3333 84.3333 51.3333H100.833C101.846 51.3333 102.667 52.1541 102.667 53.1667C102.667 54.1792 101.846 55 100.833 55H84.3333C83.3208 55 82.5 54.1792 82.5 53.1667Z" fill="#08BBF6"/>
</g>
<defs>
<clipPath id="clip0">
<rect width="110" height="110" fill="white"/>
</clipPath>
</defs>
</svg>
