<svg width="110" height="110" viewBox="0 0 110 110" fill="none" xmlns="http://www.w3.org/2000/svg">
<g clip-path="url(#clip0)">
<path d="M95.6753 78.6064V78.8064H95.8753H104.166C107.273 78.8064 109.8 81.3338 109.8 84.4402V100.754C109.8 103.86 107.273 106.387 104.166 106.387H83.2872C80.181 106.387 77.6535 103.86 77.6535 100.754V84.4402C77.6535 81.3341 80.1808 78.8066 83.2872 78.8066H91.5784H91.7784V78.6066V70.0109C91.7784 68.8447 90.8299 67.8962 89.6635 67.8962H57.1484H56.9484V68.0962V78.6066V78.8066H57.1484H65.4395C68.5457 78.8066 71.0731 81.3338 71.0731 84.4402V100.754C71.0731 103.86 68.5459 106.387 65.4395 106.387H44.5605C41.4543 106.387 38.9269 103.86 38.9269 100.754V84.4402C38.9269 81.3341 41.4541 78.8066 44.5605 78.8066H52.8516H53.0516V78.6066V68.0962V67.8962H52.8516H20.3365C19.1701 67.8962 18.2216 68.8447 18.2216 70.0109V78.6066V78.8066H18.4216H26.7128C29.819 78.8066 32.3465 81.3338 32.3465 84.4402V100.754C32.3465 103.86 29.8192 106.387 26.7128 106.387H5.83365C2.72746 106.387 0.2 103.86 0.2 100.754V84.4402C0.2 81.3338 2.72747 78.8064 5.83365 78.8064H14.1247H14.3247V78.6064V70.0107C14.3247 66.6961 17.0219 63.9991 20.3365 63.9991H52.8516H53.0516V63.7991V52.5944V52.3944H52.8516H28.6666C24.7477 52.3944 21.5589 49.2056 21.5589 45.2867V10.7198C21.5589 6.8009 24.7477 3.61235 28.6666 3.61235H79.434C83.3529 3.61235 86.5415 6.8009 86.5415 10.7198V10.7405V10.7617V10.7834V10.8057V10.8285V10.8518V10.8757V10.9001V10.925V10.9504V10.9764V11.0029V11.0299V11.0575V11.0855V11.1141V11.1431V11.1727V11.2028V11.2334V11.2645V11.2961V11.3282V11.3608V11.3938V11.4274V11.4615V11.496V11.5311V11.5666V11.6026V11.6391V11.676V11.7135V11.7514V11.7897V11.8286V11.8679V11.9077V11.9479V11.9886V12.0298V12.0714V12.1135V12.156V12.1989V12.2424V12.2862V12.3305V12.3753V12.4204V12.4661V12.5121V12.5586V12.6055V12.6529V12.7007V12.7488V12.7975V12.8465V12.896V12.9458V12.9961V13.0468V13.0979V13.1495V13.2014V13.2537V13.3064V13.3596V13.4131V13.467V13.5213V13.576V13.6311V13.6866V13.7424V13.7987V13.8553V13.9123V13.9696V14.0274V14.0855V14.144V14.2029V14.2621V14.3217V14.3816V14.4419V14.5026V14.5636V14.6249V14.6867V14.7487V14.8111V14.8739V14.937V15.0004V15.0642V15.1283V15.1927V15.2575V15.3226V15.3881V15.4538V15.5199V15.5863V15.653V15.72V15.7874V15.8551V15.923V15.9913V16.0599V16.1288V16.198V16.2675V16.3372V16.4073V16.4777V16.5484V16.6193V16.6906V16.7621V16.8339V16.906V16.9784V17.051V17.1239V17.1971V17.2706V17.3443V17.4183V17.4926V17.5671V17.6419V17.7169V17.7922V17.8678V17.9436V18.0196V18.0959V18.1725V18.2492V18.3263V18.4035V18.481V18.5588V18.6367V18.7149V18.7933V18.872V18.9508V19.0299V19.1093V19.1888V19.2685V19.3485V19.4286V19.509V19.5896V19.6704V19.7514V19.8326V19.914V19.9955V20.0773V20.1593V20.2415V20.3238V20.4063V20.4891V20.572V20.655V20.7383V20.8217V20.9053V20.9891V21.073V21.1571V21.2414V21.3258V21.4104V21.4952V21.5801V21.6652V21.7504V21.8357V21.9213V22.0069V22.0927V22.1787V22.2647V22.351V22.4373V22.5238V22.6104V22.6972V22.784V22.871V22.9581V23.0454V23.1327V23.2202V23.3078V23.3955V23.4833V23.5712V23.6592V23.7474V23.8356V23.9239V24.0123V24.1008V24.1894V24.2781V24.3669V24.4558V24.5447V24.6338V24.7229V24.8121V24.9014V24.9907V25.0801V25.1696V25.2592V25.3488V25.4385V25.5282V25.618V25.7079V25.7978V25.8877V25.9778V26.0678V26.1579V26.2481V26.3383V26.4285V26.5188V26.6091V26.6994V26.7898V26.8802V26.9706V27.0611V27.1516V27.2421V27.3326V27.4231V27.5137V27.6042V27.6948V27.7854V27.876V27.9666V28.0571V28.1477V28.2383V28.3289V28.4195V28.51V28.6006V28.6911V28.7817V28.8722V28.9627V29.0532V29.1436V29.234V29.3244V29.4148V29.5051V29.5954V29.6857V29.7759V29.8661V29.9562V30.0463V30.1364V30.2264V30.3163V30.4062V30.496V30.5858V30.6755V30.7652V30.8548V30.9443V31.0338V31.1232V31.2125V31.3018V31.3909V31.48V31.569V31.658V31.7468V31.8356V31.9242V32.0128V32.1013V32.1897V32.278V32.3662V32.4542V32.5422V32.6301V32.7179V32.8055V32.8931V32.9805V33.0678V33.155V33.2421V33.3291V33.4159V33.5026V33.5892V33.6756V33.7619V33.8481V33.9342V34.02V34.1058V34.1914V34.2769V34.3622V34.4474V34.5324V34.6172V34.7019V34.7865V34.8709V34.9551V35.0391V35.123V35.2067V35.2903V35.3737V35.4569V35.5399V35.6227V35.7054V35.7879V35.8701V35.9522V36.0342V36.1159V36.1974V36.2787V36.3598V36.4408V36.5215V36.602V36.6823V36.7624V36.8423V36.922V37.0014V37.0807V37.1597V37.2385V37.3171V37.3954V37.4735V37.5514V37.6291V37.7065V37.7837V37.8606V37.9373V38.0138V38.09V38.166V38.2417V38.3172V38.3924V38.4673V38.542V38.6165V38.6906V38.7646V38.8382V38.9116V38.9847V39.0575V39.1301V39.2024V39.2744V39.3461V39.4175V39.4887V39.5595V39.6301V39.7004V39.7704V39.8401V39.9095V39.9786V40.0474V40.1158V40.184V40.2519V40.3195V40.3867V40.4536V40.5202V40.5865V40.6525V40.7182V40.7835V40.8485V40.9132V40.9775V41.0415V41.1052V41.1685V41.2315V41.2941V41.3564V41.4184V41.48V41.5412V41.6021V41.6627V41.7229V41.7827V41.8422V41.9013V41.96V42.0184V42.0764V42.134V42.1912V42.2481V42.3046V42.3607V42.4165V42.4718V42.5268V42.5814V42.6355V42.6893V42.7427V42.7957V42.8483V42.9005V42.9523V43.0037V43.0547V43.1052V43.1554V43.2051V43.2544V43.3034V43.3518V43.3999V43.4475V43.4947V43.5415V43.5879V43.6338V43.6793V43.7243V43.7689V43.8131V43.8568V43.9001V43.9429V43.9853V44.0272V44.0686V44.1097V44.1502V44.1903V44.2299V44.2691V44.3078V44.346V44.3838V44.421V44.4578V44.4942V44.53V44.5654V44.6003V44.6347V44.6686V44.702V44.7349V44.7673V44.7993V44.8307V44.8616V44.8921V44.922V44.9514V44.9803V45.0087V45.0366V45.064V45.0908V45.1171V45.1429V45.1682V45.193V45.2172V45.2409V45.2641V45.2867C86.5415 49.2056 83.3529 52.3944 79.434 52.3944H57.1484H56.9484V52.5944V63.7991V63.9991H57.1484H89.6635C92.9781 63.9991 95.6753 66.6961 95.6753 70.0107V78.6064ZM82.4446 15.7983H82.6446V15.5983V10.72C82.6446 8.94949 81.2045 7.50944 79.434 7.50944H28.6666C26.8958 7.50944 25.4558 8.94949 25.4558 10.72V15.5983V15.7983H25.6558H82.4446ZM25.6558 19.6952H25.4558V19.8952V45.2869C25.4558 47.0575 26.8958 48.4975 28.6666 48.4977H79.4337C81.2043 48.4977 82.6443 47.0577 82.6443 45.2869V19.8952V19.6952H82.4444H25.6558ZM28.4496 100.754V84.4402C28.4496 83.4823 27.6706 82.7032 26.7128 82.7035H5.83365C4.87585 82.7035 4.09688 83.4824 4.09688 84.4402V100.754C4.09688 101.712 4.87585 102.491 5.83365 102.491H26.7128C27.6706 102.491 28.4496 101.712 28.4496 100.754ZM67.1762 100.754V84.4402C67.1762 83.4823 66.3973 82.7032 65.4395 82.7035H44.5605C43.6027 82.7035 42.8237 83.4824 42.8237 84.4402V100.754C42.8237 101.712 43.6027 102.491 44.5605 102.491H65.4395C66.3973 102.491 67.1762 101.712 67.1762 100.754ZM104.166 102.49C105.124 102.49 105.903 101.711 105.903 100.754V84.44C105.903 83.4822 105.124 82.7033 104.166 82.7033H83.2872C82.3294 82.7033 81.5504 83.4822 81.5504 84.44V100.754C81.5504 101.711 82.3294 102.49 83.2872 102.49H104.166Z" fill="#282828" stroke="white" stroke-width="0.4"/>
<path d="M72.6183 45.0418H66.9409C63.8231 45.0418 61.2859 42.5047 61.2859 39.3869V28.9427C61.2859 25.8249 63.8231 23.2878 66.9409 23.2878H72.6183C75.7361 23.2878 78.2732 25.8249 78.2732 28.9427V39.3869C78.2732 42.5047 75.7361 45.0418 72.6183 45.0418ZM66.9409 27.1844C65.9712 27.1844 65.1828 27.9728 65.1828 28.9425V39.3867C65.1828 40.3563 65.9712 41.1447 66.9409 41.1447H72.6183C73.5879 41.1447 74.3764 40.3563 74.3764 39.3867V28.9425C74.3764 27.9728 73.5879 27.1844 72.6183 27.1844H66.9409Z" fill="#FF5C8B" stroke="white" stroke-width="0.4"/>
<path d="M51.2146 27.9802H31.0645C29.9883 27.9802 29.116 27.1077 29.116 26.0318C29.116 24.9558 29.9885 24.0833 31.0645 24.0833H51.2146C52.2906 24.0833 53.1631 24.9558 53.1631 26.0318C53.1631 27.1077 52.2906 27.9802 51.2146 27.9802Z" fill="#08BBF6" stroke="white" stroke-width="0.4"/>
<path d="M51.2145 35.4828C50.2908 35.4828 49.4907 34.8317 49.3027 33.9137C49.0609 32.7002 50.0001 31.5837 51.2145 31.5837C52.3074 31.5837 53.163 32.4805 53.163 33.5322C53.163 34.5941 52.3007 35.4828 51.2145 35.4828Z" fill="#08BBF6" stroke="white" stroke-width="0.4"/>
<path d="M43.8608 35.4815H31.0645C29.9883 35.4815 29.116 34.6089 29.116 33.533C29.116 32.4571 29.9885 31.5846 31.0645 31.5846H43.8608C44.9367 31.5846 45.8092 32.4571 45.8092 33.533C45.8092 34.6089 44.9367 35.4815 43.8608 35.4815Z" fill="#FF5C8B" stroke="white" stroke-width="0.4"/>
<path d="M31.0645 39.0858H51.2146C52.2906 39.0858 53.1631 39.9584 53.1631 41.0343C53.1631 42.1102 52.2906 42.9827 51.2146 42.9827H31.0645C29.9885 42.9827 29.116 42.1102 29.116 41.0343C29.116 39.9584 29.9885 39.0858 31.0645 39.0858Z" fill="#FF5C8B" stroke="white" stroke-width="0.4"/>
<path d="M13.8867 90.7504C12.8108 90.7504 11.9383 89.8779 11.9383 88.802C11.9383 87.7259 12.8106 86.8536 13.8867 86.8536H23.5063C24.5823 86.8536 25.4548 87.7261 25.4548 88.802C25.4548 89.8779 24.5823 90.7504 23.5063 90.7504H13.8867Z" fill="#FF5C8B" stroke="white" stroke-width="0.4"/>
<path d="M9.17773 94.4436H23.5078C24.5837 94.4436 25.4562 95.3161 25.4562 96.392C25.4562 97.4679 24.5837 98.3404 23.5078 98.3404H9.17773C8.10182 98.3404 7.2293 97.4679 7.2293 96.392C7.2293 95.3161 8.10182 94.4436 9.17773 94.4436Z" fill="#08BBF6" stroke="white" stroke-width="0.4"/>
<path d="M51.418 90.7504C50.3421 90.7504 49.4695 89.8779 49.4695 88.802C49.4695 87.7259 50.342 86.8536 51.418 86.8536H58.583C59.6589 86.8536 60.5315 87.7261 60.5315 88.802C60.5315 89.8779 59.6589 90.7504 58.583 90.7504H51.418Z" fill="#08BBF6" stroke="white" stroke-width="0.4"/>
<path d="M47.8359 98.3404C46.76 98.3404 45.8875 97.4679 45.8875 96.392C45.8875 95.3159 46.76 94.4436 47.8359 94.4436H62.1658C63.2417 94.4436 64.1142 95.3161 64.1142 96.392C64.1142 97.4679 63.2417 98.3404 62.1658 98.3404H47.8359Z" fill="#FF5C8B" stroke="white" stroke-width="0.4"/>
<path d="M95.9078 90.7504H86.5625C85.4866 90.7504 84.6141 89.8779 84.6141 88.802C84.6141 87.7261 85.4866 86.8536 86.5625 86.8536H95.9078C96.9837 86.8536 97.8562 87.7261 97.8562 88.802C97.8562 89.8779 96.9837 90.7504 95.9078 90.7504Z" fill="#08BBF6" stroke="white" stroke-width="0.4"/>
<path d="M86.5625 94.4436H100.893C101.969 94.4436 102.841 95.3161 102.841 96.392C102.841 97.4679 101.968 98.3404 100.893 98.3404H86.5625C85.4866 98.3404 84.6141 97.4679 84.6141 96.392C84.6141 95.3161 85.4866 94.4436 86.5625 94.4436Z" fill="#FF5C8B" stroke="white" stroke-width="0.4"/>
<path d="M76.5195 9.70555H77.997C79.0731 9.70555 79.9455 10.5781 79.9455 11.654C79.9455 12.7299 79.0729 13.6024 77.997 13.6024H76.5195C75.4436 13.6024 74.5711 12.7299 74.5711 11.654C74.5711 10.5781 75.4436 9.70555 76.5195 9.70555Z" fill="#282828" stroke="white" stroke-width="0.4"/>
</g>
<defs>
<clipPath id="clip0">
<rect width="110" height="110" fill="white"/>
</clipPath>
</defs>
</svg>
