<svg width="80" height="80" viewBox="0 0 80 80" fill="none" xmlns="http://www.w3.org/2000/svg">
<path d="M12 5.33331H0V7.99998H12V5.33331Z" fill="#282828"/>
<path d="M12 10.6667H0V13.3334H12V10.6667Z" fill="#282828"/>
<path d="M80 0H68V2.66667H80V0Z" fill="#282828"/>
<path d="M80 5.33331H68V7.99998H80V5.33331Z" fill="#282828"/>
<path d="M70.2667 14.6667L74.1333 11.76L72.5333 9.60001L68.5333 12.6267C62.5012 6.25418 54.1082 2.65084 45.3333 2.66668C44.597 2.66668 44 3.26368 44 4.00001V34.6667C44 35.403 44.597 36 45.3333 36H76C76.7363 36 77.3333 35.403 77.3333 34.6667C77.333 27.3883 74.839 20.3297 70.2667 14.6667ZM46.6667 33.3333V5.33334C54.1193 5.67434 61.1597 8.85118 66.3467 14.2133L61.8667 17.6L63.4667 19.7333L68.12 16.24C72.0803 21.0875 74.3757 27.0805 74.6667 33.3333H46.6667Z" fill="#08BBF6"/>
<path d="M80 61.3333H68V64H80V61.3333Z" fill="#282828"/>
<path d="M80 66.6667H68V69.3334H80V66.6667Z" fill="#282828"/>
<path d="M69.3325 52.6933C71.0785 48.6887 71.986 44.3688 71.9992 40C71.9992 39.2637 71.4022 38.6667 70.6658 38.6667H41.3325V9.33333C41.3325 8.597 40.7355 8 39.9992 8C29.3545 8.00483 19.4092 13.3023 13.4659 22.1333L6.15919 16.2933L4.50586 18.3733L12.0659 24.4267C2.99886 39.5967 7.94653 59.2447 23.1165 68.3115C38.2865 77.3785 57.9345 72.4308 67.0014 57.2608C67.4238 56.5538 67.819 55.8308 68.1858 55.0933L72.5325 58.4L74.1325 56.2667L69.3325 52.6933ZM18.3079 59.6955C13.4027 54.3073 10.6785 47.2865 10.6659 40C10.6637 35.1538 11.869 30.3837 14.1725 26.12L17.8392 29.04L19.4925 26.96L15.4925 23.8133C20.6665 15.9735 29.282 11.0858 38.6659 10.6667V40C38.6639 40.3543 38.803 40.695 39.0525 40.9467L59.7459 61.64C47.766 72.5458 29.2137 71.6752 18.3079 59.6955ZM67.1725 51.0267L63.4658 48.2667L61.8659 50.4L65.9992 53.5067C64.8172 55.7637 63.352 57.8607 61.6392 59.7467L43.2125 41.3333H69.3325C69.1687 44.6637 68.4382 47.9418 67.1725 51.0267Z" fill="#282828"/>
<path d="M28.0007 77.3333H25.334V80H28.0007V77.3333Z" fill="#282828"/>
<path d="M33.3327 77.3333H30.666V80H33.3327V77.3333Z" fill="#282828"/>
<path d="M38.6667 77.3333H36V80H38.6667V77.3333Z" fill="#282828"/>
<path d="M44.0007 77.3333H41.334V80H44.0007V77.3333Z" fill="#282828"/>
<path d="M49.3327 77.3333H46.666V80H49.3327V77.3333Z" fill="#282828"/>
<path d="M54.6667 77.3333H52V80H54.6667V77.3333Z" fill="#282828"/>
<path d="M12 64H0V66.6667H12V64Z" fill="#282828"/>
<path d="M9.33333 69.3333H0V72H9.33333V69.3333Z" fill="#282828"/>
<path d="M12 58.6667H0V61.3334H12V58.6667Z" fill="#282828"/>
</svg>
