<svg width="24" height="24" viewBox="0 0 24 24" fill="none" xmlns="http://www.w3.org/2000/svg">
<path d="M12 24C18.6274 24 24 18.6274 24 12C24 5.37258 18.6274 0 12 0C5.37258 0 0 5.37258 0 12C0 18.6274 5.37258 24 12 24Z" fill="#4176FA"/>
<path d="M16.3017 9.91295C12.8356 9.91295 12.8312 13.3659 12.8312 13.3837C12.8312 13.3837 12.5937 16.8409 16.3017 16.8409C16.3017 16.8409 19.394 17.0167 19.394 14.4348H17.8061C17.8061 14.4348 17.8587 15.4068 16.3545 15.4068C16.3545 15.4068 14.7666 15.5125 14.7666 13.8365H19.4468C19.4468 13.8365 19.9615 9.91295 16.3017 9.91295ZM14.7489 12.6268C14.7489 12.6268 14.9425 11.2368 16.3369 11.2368C17.7357 11.2368 17.7137 12.6268 17.7137 12.6268H14.7489ZM10.7817 11.7385C10.7817 11.7385 12.1584 11.6373 12.1584 10.0186C12.1584 8.40445 11.0324 7.61255 9.60281 7.61255H4.90039V16.6516H9.60238C9.60238 16.6516 12.4748 16.7397 12.4748 13.9818C12.475 13.9818 12.5982 11.7385 10.7817 11.7385ZM6.97234 9.21795H9.60259C9.60259 9.21795 10.2405 9.21795 10.2405 10.1592C10.2405 11.1004 9.86656 11.2368 9.4398 11.2368H6.97234V9.21795ZM9.47082 15.0462H6.97234V12.6268H9.60259C9.60259 12.6268 10.5573 12.6181 10.5528 13.8716C10.5528 14.9275 9.84474 15.0374 9.47082 15.0462ZM14.3574 8.14476V9.25774H18.0876V8.14476H14.3574Z" fill="#F1F2F2"/>
</svg>
