<svg width="22" height="22" viewBox="0 0 22 22" fill="none" xmlns="http://www.w3.org/2000/svg">
<path d="M11 22C17.0751 22 22 17.0751 22 11C22 4.92487 17.0751 0 11 0C4.92487 0 0 4.92487 0 11C0 17.0751 4.92487 22 11 22Z" fill="white" fill-opacity="0.8"/>
<path d="M14.9433 9.08697C11.7662 9.08697 11.7621 12.2522 11.7621 12.2685C11.7621 12.2685 11.5444 15.4376 14.9433 15.4376C14.9433 15.4376 17.778 15.5988 17.778 13.232H16.3224C16.3224 13.232 16.3707 14.123 14.9918 14.123C14.9918 14.123 13.5362 14.2199 13.5362 12.6836H17.8264C17.8264 12.6836 18.2982 9.08697 14.9433 9.08697ZM13.52 11.5747C13.52 11.5747 13.6974 10.3005 14.9757 10.3005C16.2579 10.3005 16.2377 11.5747 16.2377 11.5747H13.52ZM9.88336 10.7604C9.88336 10.7604 11.1454 10.6676 11.1454 9.18384C11.1454 7.70418 10.1132 6.97827 8.80273 6.97827H4.49219V15.2641H8.80234C8.80234 15.2641 11.4354 15.3448 11.4354 12.8167C11.4356 12.8167 11.5485 10.7604 9.88336 10.7604ZM6.39147 8.44989H8.80254C8.80254 8.44989 9.38726 8.44989 9.38726 9.31267C9.38726 10.1754 9.04451 10.3005 8.65332 10.3005H6.39147V8.44989ZM8.68175 13.7924H6.39147V11.5747H8.80254C8.80254 11.5747 9.67767 11.5667 9.67355 12.7157C9.67355 13.6836 9.02451 13.7844 8.68175 13.7924ZM13.1611 7.46613V8.48636H16.5805V7.46613H13.1611Z" fill="#282828"/>
</svg>
