<svg width="80" height="70" viewBox="0 0 80 70" fill="none" xmlns="http://www.w3.org/2000/svg">
<path d="M2.66667 5.66671C2.66667 4.19371 3.86033 3.00004 5.33333 3.00004H69.3333C70.8063 3.00004 72 4.19371 72 5.66671V24.3334H74.6667V5.66671C74.6667 2.72137 72.2787 0.333374 69.3333 0.333374H5.33333C2.388 0.333374 0 2.72137 0 5.66671V51C0 53.9454 2.388 56.3334 5.33333 56.3334H28.8747L25.6747 67H22.6667V69.6667H52V67H48.992L45.792 56.3334H52V53.6667H5.33333C3.86033 53.6667 2.66667 52.473 2.66667 51V48.3334H52V45.6667H2.66667V5.66671ZM31.6587 56.3334H43.008L46.208 67H28.4587L31.6587 56.3334Z" fill="white"/>
<path d="M69.3335 24.3334V7.00008C69.3335 6.26341 68.7368 5.66675 68.0002 5.66675H6.66683C5.93016 5.66675 5.3335 6.26341 5.3335 7.00008V43.0001H8.00016V19.0001H66.6668V24.3334H69.3335ZM8.00016 16.3334V8.33342H66.6668V16.3334H8.00016Z" fill="white"/>
<path d="M12 11H20V13.6667H12V11Z" fill="white"/>
<path d="M22.6665 11H30.6665V13.6667H22.6665V11Z" fill="white"/>
<path d="M33.3335 11H41.3335V13.6667H33.3335V11Z" fill="white"/>
<path d="M44 11H52V13.6667H44V11Z" fill="white"/>
<path d="M26.667 23C26.667 22.2633 26.0703 21.6666 25.3337 21.6666H12.0003C11.2637 21.6666 10.667 22.2633 10.667 23V33.6666C10.667 34.4033 11.2637 35 12.0003 35H25.3337C26.0703 35 26.667 34.4033 26.667 33.6666V23ZM24.0003 32.3333H13.3337V24.3333H24.0003V32.3333Z" fill="white"/>
<path d="M45.3335 23C45.3335 22.2633 44.7368 21.6666 44.0002 21.6666H30.6668C29.9302 21.6666 29.3335 22.2633 29.3335 23V33.6666C29.3335 34.4033 29.9302 35 30.6668 35H44.0002C44.7368 35 45.3335 34.4033 45.3335 33.6666V23ZM42.6668 32.3333H32.0002V24.3333H42.6668V32.3333Z" fill="white"/>
<path d="M50.6667 24.3333H64V23C64 22.2633 63.4034 21.6666 62.6667 21.6666H49.3333C48.5967 21.6666 48 22.2633 48 23V33.6666C48 34.4033 48.5967 35 49.3333 35H52V32.3333H50.6667V24.3333Z" fill="white"/>
<path d="M26.667 43.0001V39.0001C26.667 38.2634 26.0703 37.6667 25.3337 37.6667H12.0003C11.2637 37.6667 10.667 38.2634 10.667 39.0001V43.0001H13.3337V40.3334H24.0003V43.0001H26.667Z" fill="white"/>
<path d="M45.3335 43.0001V39.0001C45.3335 38.2634 44.7368 37.6667 44.0002 37.6667H30.6668C29.9302 37.6667 29.3335 38.2634 29.3335 39.0001V43.0001H32.0002V40.3334H42.6668V43.0001H45.3335Z" fill="white"/>
<path d="M48 39.0001V43.0001H50.6667V40.3334H52V37.6667H49.3333C48.5967 37.6667 48 38.2634 48 39.0001Z" fill="white"/>
<path d="M74.6665 27H59.9998C57.0545 27 54.6665 29.388 54.6665 32.3333V64.3333C54.6665 67.2787 57.0545 69.6667 59.9998 69.6667H74.6665C77.6118 69.6667 79.9998 67.2787 79.9998 64.3333V32.3333C79.9998 29.388 77.6118 27 74.6665 27ZM77.3332 64.3333C77.3332 65.8063 76.1395 67 74.6665 67H59.9998C58.5268 67 57.3332 65.8063 57.3332 64.3333V63H77.3332V64.3333ZM77.3332 60.3333H57.3332V32.3333C57.3332 30.8603 58.5268 29.6667 59.9998 29.6667H74.6665C76.1395 29.6667 77.3332 30.8603 77.3332 32.3333V60.3333Z" fill="white"/>
<path d="M73.3333 37.6667H61.3333C60.5967 37.6667 60 38.2634 60 39.0001V49.6668C60 50.4035 60.5967 51.0001 61.3333 51.0001H73.3333C74.07 51.0001 74.6667 50.4035 74.6667 49.6668V39.0001C74.6667 38.2634 74.07 37.6667 73.3333 37.6667ZM72 48.3334H62.6667V40.3334H72V48.3334Z" fill="white"/>
<path d="M73.3333 53.6666H61.3333C60.5967 53.6666 60 54.2633 60 55V57.6666H62.6667V56.3333H72V57.6666H74.6667V55C74.6667 54.2633 74.07 53.6666 73.3333 53.6666Z" fill="white"/>
<path d="M60 32.3334H74.6667V35H60V32.3334Z" fill="white"/>
</svg>
