<svg width="150" height="27" viewBox="0 0 150 27" fill="none" xmlns="http://www.w3.org/2000/svg">
<g clip-path="url(#clip0)">
<path d="M49.0558 14.7541H45.9653L43.8222 11.7846V19.732H40.707V7.25513H43.8099L49.0558 14.7541ZM51.1865 7.26748H54.2894V19.732H51.1742V12.0964H47.8224L51.1865 7.26748Z" fill="#646464"/>
<path d="M61.0156 7.25513V19.732H57.9004V7.25513H61.0156Z" fill="#646464"/>
<path d="M72.0909 12.121C74.2841 12.4869 75.3888 13.6308 75.4057 15.552V15.9017C75.3888 18.1896 74.2926 19.4663 72.1163 19.7318H64.2031L65.4366 17.0372H71.3431C71.983 16.9291 72.3029 16.5254 72.3029 15.8268C72.3029 15.2201 71.9621 14.8581 71.2815 14.7416H67.518C65.3248 14.3757 64.2201 13.2364 64.2031 11.3229V10.9732C64.2201 8.77715 65.3163 7.54213 67.4925 7.26733H75.4173L74.16 9.95043H68.2164C67.6012 10.0423 67.2983 10.4244 67.3067 11.0982C67.3067 11.7057 67.6475 12.0469 68.3282 12.121H72.0909Z" fill="#646464"/>
<path d="M81.6952 12.1211L86.343 7.25513H90.3308L85.2221 12.6946H85.172L90.4179 19.732H86.6297L81.6829 13.3562V19.732H78.5801V7.2806H81.6952V12.1211Z" fill="#646464"/>
<path d="M95.131 14.7417L91.6797 7.25586H94.9945L98.297 14.3055L101.313 7.26821H104.628L99.2198 19.7327H95.9797L98.1105 14.7417H95.131Z" fill="#646464"/>
<path d="M123.736 19.7443H120.434L119.425 17.4988H116.073L114.553 15.4155L112.597 19.745H109.17L114.703 7.28052H118.192L123.736 19.7443ZM118.19 14.7416L116.496 11.0234L114.838 14.7416H118.19Z" fill="#646464"/>
<path d="M126.644 9.96292L125.373 7.25513H131.092C134.83 7.5716 136.704 9.65108 136.712 13.4936C136.712 17.353 135.009 19.4325 131.603 19.732H125.497V12.196H128.588V17.0242H131.092C132.646 17.0242 133.427 15.8347 133.435 13.4557C133.41 11.1184 132.463 9.95366 130.594 9.96215H126.644V9.96292Z" fill="#646464"/>
<path d="M146.672 12.121C148.865 12.4869 149.97 13.6308 149.987 15.552V15.9017C149.97 18.1896 148.874 19.4663 146.698 19.7318H138.785L140.019 17.0372H145.925C146.565 16.9291 146.885 16.5254 146.885 15.8268C146.885 15.2201 146.544 14.8581 145.863 14.7416H142.1C139.907 14.3757 138.802 13.2364 138.785 11.3229V10.9732C138.802 8.77715 139.898 7.54213 142.075 7.26733H149.999L148.74 9.94966H142.797C142.182 10.0415 141.879 10.4236 141.887 11.0975C141.887 11.7049 142.228 12.0461 142.909 12.1202H146.672V12.121Z" fill="#646464"/>
<path d="M24.796 25.0308C21.6369 26.343 18.4886 26.9992 15.3503 26.9992C12.212 26.9992 9.08988 26.343 5.98242 25.0308V21.1096C12.2066 23.724 18.4778 23.724 24.7952 21.1096V25.0308H24.796Z" fill="#646464"/>
<path d="M14.4634 16.033H10.5619L8.48047 12.7896H12.0921L14.4634 16.033Z" fill="#646464"/>
<path d="M18.6877 12.7896H22.2985L20.2179 16.033H16.3164L18.6877 12.7896Z" fill="#646464"/>
<path d="M11.0718 0L17.178 8.72855H13.581L11.0864 5.27202L7.46094 0H11.0718ZM19.7073 0L15.7912 5.62014H19.6927L23.3182 0H19.7073Z" fill="#646464"/>
<path d="M5.98289 19.2757H2.08141L0 16.033H3.98859L5.98289 19.2757Z" fill="#646464"/>
<path d="M9.09883 4.35656L11.0715 0H7.01048L0 16.033H3.98859L6.83626 9.4688L9.09883 4.35656Z" fill="#646464"/>
<path d="M26.7892 16.033H30.7778L28.6964 19.2757H24.7949L26.7892 16.033Z" fill="#646464"/>
<path d="M21.6797 4.35656L19.707 0H23.7681L30.7793 16.033H26.7907L23.9423 9.4688L21.6797 4.35656Z" fill="#646464"/>
<path d="M15.3895 21.1097L17.5973 18.5208H13.1816L15.3895 21.1097Z" fill="#646464"/>
</g>
<defs>
<clipPath id="clip0">
<rect width="150" height="27" fill="white"/>
</clipPath>
</defs>
</svg>
