<svg width="164" height="35" viewBox="0 0 164 35" fill="none" xmlns="http://www.w3.org/2000/svg">
<path d="M49.2373 6.17963H54.8743C56.7535 6.17963 58.0061 6.67451 58.883 7.66426C59.7599 8.53029 60.261 10.0149 60.261 11.747V23.2529C60.261 25.1087 59.8852 26.4697 58.883 27.4593C58.0061 28.3255 56.6282 28.8203 54.8743 28.8203H49.2373V6.17963ZM117.885 28.8203H117.509C117.509 26.717 117.509 24.6139 117.509 22.5106C117.509 21.3971 117.384 20.6548 116.883 20.2836C116.507 19.9125 115.881 19.665 115.129 19.665H113.877V28.8203H110.244V6.17963H115.756C117.635 6.17963 119.013 6.67451 119.764 7.54054C120.641 8.40658 121.017 9.64378 121.017 11.3759V13.1079C121.017 15.4586 120.265 16.9432 118.637 17.6855C119.514 18.0567 120.14 18.6753 120.516 19.5413C120.892 20.4074 121.017 21.3971 121.017 22.5106C121.017 24.6139 121.017 26.5933 121.017 28.6966H117.885V28.8203ZM52.8701 9.39634V25.6035H54.8743C55.3755 25.6035 55.8766 25.4799 56.2524 25.1087C56.6282 24.7376 56.7535 24.2427 56.7535 23.3766V11.6233C56.7535 10.7573 56.6282 10.2624 56.2524 9.89121C55.8766 9.52005 55.5007 9.39634 54.8743 9.39634H52.8701ZM65.3971 23.6241C65.3971 24.4901 65.5224 24.9851 65.8982 25.3562C66.2739 25.7274 66.6497 25.851 67.2761 25.851C67.9025 25.851 68.2783 25.7274 68.6541 25.3562C69.0299 24.9851 69.1552 24.4901 69.1552 23.6241V11.3759C69.1552 10.5098 69.0299 10.0149 68.6541 9.64378C68.2783 9.27262 67.9025 9.14889 67.2761 9.14889C66.6497 9.14889 66.2739 9.27262 65.8982 9.64378C65.5224 10.0149 65.3971 10.5098 65.3971 11.3759V23.6241ZM61.8894 11.6233C61.8894 9.76749 62.3905 8.40658 63.2675 7.41682C64.1444 6.42707 65.5224 5.93219 67.2761 5.93219C69.0299 5.93219 70.4078 6.42707 71.2847 7.41682C72.1616 8.40658 72.6628 9.76749 72.6628 11.6233V23.3766C72.6628 25.2324 72.1616 26.5933 71.2847 27.5832C70.4078 28.5728 69.0299 29.0678 67.2761 29.0678C65.5224 29.0678 64.1444 28.5728 63.2675 27.5832C62.3905 26.5933 61.8894 25.2324 61.8894 23.3766V11.6233ZM84.9392 20.4074V23.3766C84.9392 25.2324 84.4381 26.5933 83.5612 27.5832C82.6843 28.5728 81.3064 29.0678 79.5526 29.0678C77.7989 29.0678 76.4208 28.5728 75.5439 27.5832C74.667 26.5933 74.1661 25.2324 74.1661 23.3766V11.6233C74.2912 9.76749 74.667 8.40658 75.5439 7.41682C76.5461 6.42707 77.9242 5.93219 79.6778 5.93219C81.4317 5.93219 82.8095 6.42707 83.6865 7.41682C84.5634 8.40658 85.0645 9.76749 85.0645 11.6233V13.8502H81.6822V11.3759C81.6822 10.5098 81.557 10.0149 81.1811 9.64378C80.8053 9.27262 80.4295 9.14889 79.8031 9.14889C79.1767 9.14889 78.6756 9.27262 78.4251 9.64378C78.0494 10.0149 77.9241 10.5098 77.9241 11.3759V23.6241C77.9241 24.4901 78.0494 24.9851 78.4251 25.3562C78.8009 25.7274 79.1767 25.851 79.8031 25.851C80.4295 25.851 80.8053 25.7274 81.1811 25.3562C81.557 24.9851 81.6822 24.4901 81.6822 23.6241V20.4074H84.9392ZM86.0667 6.17963H97.2157V9.39634H93.4576V28.8203H89.8248V9.39634H86.0667V6.17963ZM101.475 23.6241C101.475 24.4901 101.6 24.9851 101.976 25.3562C102.352 25.7274 102.727 25.851 103.354 25.851C103.98 25.851 104.356 25.7274 104.732 25.3562C105.108 24.9851 105.233 24.4901 105.233 23.6241V11.3759C105.233 10.5098 105.108 10.0149 104.732 9.64378C104.356 9.27262 103.98 9.14889 103.354 9.14889C102.727 9.14889 102.352 9.27262 101.976 9.64378C101.6 10.0149 101.475 10.5098 101.475 11.3759V23.6241ZM97.9673 11.6233C97.9673 9.76749 98.4684 8.40658 99.3452 7.41682C100.222 6.42707 101.6 5.93219 103.354 5.93219C105.108 5.93219 106.486 6.42707 107.362 7.41682C108.239 8.40658 108.741 9.76749 108.741 11.6233V23.3766C108.741 25.2324 108.239 26.5933 107.362 27.5832C106.486 28.5728 105.108 29.0678 103.354 29.0678C101.6 29.0678 100.222 28.5728 99.3452 27.5832C98.4684 26.5933 97.9673 25.2324 97.9673 23.3766V11.6233ZM114.002 9.39634V16.3246H115.38C116.006 16.3246 116.507 16.2009 117.008 15.8297C117.384 15.4586 117.635 14.84 117.635 13.974V11.747C117.635 10.881 117.509 10.3861 117.259 10.0149C116.883 9.64378 116.507 9.52005 115.881 9.52005H114.002V9.39634Z" fill="#007CD9"/>
<path d="M33.3866 0C34.2555 0 35 0.744682 35 1.61348V5.08866C35 14.5213 35 23.9539 35 33.3866C35 34.2553 34.2555 35 33.3866 35C22.8369 35 12.1631 35 1.61348 35C0.744683 35 0 34.2553 0 33.3866C0 22.8368 0 12.1631 0 1.61348C0 0.744682 0.744683 0 1.61348 0C12.2873 0 22.8369 0 33.3866 0ZM31.4007 6.82625H29.7873C28.9185 6.82625 28.1738 6.08157 28.1738 5.21277V3.72341H6.95037V5.21277C6.95037 6.08157 6.20569 6.82625 5.33689 6.82625H3.72341V28.2979H5.33689C6.20569 28.2979 6.95037 29.0426 6.95037 29.9115V31.4008C14.0248 31.4008 21.0994 31.4008 28.1738 31.4008V29.9115C28.1738 29.0426 28.9185 28.2979 29.7873 28.2979H31.4007V6.82625Z" fill="#007CD9"/>
<path d="M22.745 20.5068H25.0901C25.9541 20.5068 26.6945 21.2745 26.6945 22.1701C26.6945 23.0659 25.9541 23.8336 25.0901 23.8336H22.745V25.6247C22.745 26.5205 22.1279 27.2882 21.1406 27.2882C20.1532 27.2882 19.5361 26.5205 19.5361 25.6247V22.1701V9.37524C19.5361 8.47961 20.1532 7.71191 21.1406 7.71191C22.1279 7.71191 22.745 8.47961 22.745 9.37524V20.5068ZM12.1308 9.37524C12.1308 8.47961 12.8713 7.71191 13.7353 7.71191C14.5992 7.71191 15.3398 8.47961 15.3398 9.37524V22.1701V25.6247C15.3398 26.5205 14.5992 27.2882 13.7353 27.2882C12.8713 27.2882 12.1308 26.5205 12.1308 25.6247V23.8336H9.90917C9.04522 23.8336 8.30469 23.0659 8.30469 22.1701C8.30469 21.2745 9.04522 20.5068 9.90917 20.5068H12.1308V9.37524Z" fill="#007CD9"/>
<path d="M129.322 6.52545H140.392V9.72919H136.622V28.8349H133.032V9.72919H129.322V6.52545ZM145.239 15.9035H150.146V19.049H145.239V25.5729H151.462V28.7766H141.649V6.52545H151.462V9.72919H145.239V15.9035ZM156.549 6.52545V23.7089C156.549 24.5244 156.728 25.0487 157.087 25.3982C157.386 25.6894 157.865 25.8642 158.463 25.8642C159.062 25.8642 159.481 25.6894 159.84 25.3982C160.199 25.1069 160.318 24.5244 160.318 23.7089V6.52545H163.729V23.4759C163.729 25.2816 163.31 26.6796 162.353 27.6116C161.455 28.5436 160.139 29.0678 158.344 29.0678C156.608 29.0678 155.232 28.6018 154.335 27.6116C153.437 26.6214 152.958 25.2816 152.958 23.4759V6.52545H156.549Z" fill="#007CD9"/>
</svg>
