<svg width="139" height="29" viewBox="0 0 139 29" fill="none" xmlns="http://www.w3.org/2000/svg">
<path d="M62.7652 4.97186C59.7797 4.97186 58.287 6.01794 58.287 8.11009C58.287 9.19143 58.6396 9.96717 59.3448 10.4373C60.0501 10.884 61.6016 11.4481 63.9993 12.1298C66.4206 12.7881 68.1248 13.5873 69.1121 14.5276C70.0994 15.4444 70.5931 16.9018 70.5931 18.9C70.5931 21.4387 69.8644 23.3428 68.4069 24.6122C66.973 25.8581 65.0101 26.4811 62.5183 26.4811C60.5202 26.4811 58.3105 26.246 55.8893 25.7759L54.6199 25.529L55.0077 22.3908C58.1812 22.8139 60.6025 23.0255 62.2715 23.0255C65.1864 23.0255 66.6439 21.7326 66.6439 19.1468C66.6439 18.136 66.3148 17.3955 65.6566 16.9253C64.9984 16.4317 63.5174 15.9028 61.2137 15.3386C58.91 14.7509 57.1939 13.9517 56.0656 12.9408C54.9372 11.93 54.373 10.3315 54.373 8.14535C54.373 5.95917 55.0783 4.31366 56.4887 3.20881C57.9227 2.08046 59.8973 1.51629 62.4126 1.51629C64.2226 1.51629 66.3618 1.72785 68.8301 2.15099L70.0642 2.36255L69.7468 5.53604C66.4558 5.15992 64.1286 4.97186 62.7652 4.97186Z" fill="#818181"/>
<path d="M78.2084 26.0932H74.3649V1.12842H78.2084V9.37949C79.9479 8.50972 81.5582 8.07483 83.0391 8.07483C85.3899 8.07483 86.9884 8.74479 87.8346 10.0847C88.7044 11.4011 89.1393 13.5873 89.1393 16.6433V26.0932H85.2958V16.749C85.2958 14.8449 85.096 13.4933 84.6964 12.694C84.2968 11.8948 83.4505 11.4951 82.1576 11.4951C81.0293 11.4951 79.9009 11.6832 78.7726 12.0593L78.2084 12.2709V26.0932Z" fill="#818181"/>
<path d="M106.66 13.8929V21.9324C106.684 22.4496 106.813 22.8374 107.048 23.096C107.307 23.3311 107.695 23.4839 108.212 23.5544L108.106 26.4811C106.084 26.4811 104.521 26.0462 103.416 25.1764C101.536 26.0462 99.6435 26.4811 97.7394 26.4811C94.2368 26.4811 92.4855 24.6122 92.4855 20.8746C92.4855 19.088 92.9556 17.7951 93.8959 16.9959C94.8597 16.1966 96.3289 15.7147 98.3036 15.5502L102.852 15.1623V13.8929C102.852 12.9526 102.641 12.2944 102.218 11.9183C101.818 11.5422 101.218 11.3541 100.419 11.3541C98.9147 11.3541 97.0342 11.4481 94.7775 11.6362L93.6491 11.7067L93.5081 8.99162C96.0704 8.38043 98.4211 8.07483 100.56 8.07483C102.723 8.07483 104.274 8.54498 105.215 9.48527C106.179 10.4021 106.66 11.8713 106.66 13.8929ZM98.762 18.2653C97.1399 18.4063 96.3289 19.2878 96.3289 20.9098C96.3289 22.5318 97.0459 23.3428 98.4799 23.3428C99.6552 23.3428 100.901 23.1548 102.218 22.7787L102.852 22.5671V17.8774L98.762 18.2653Z" fill="#818181"/>
<path d="M111.485 26.0932V8.4627H115.294V10.5784C117.292 9.28546 119.29 8.45095 121.288 8.07483V11.9183C119.266 12.3179 117.539 12.8351 116.105 13.4698L115.329 13.7871V26.0932H111.485Z" fill="#818181"/>
<path d="M128.07 26.0932H124.226V1.12842H128.07V15.5502L130.256 15.3386L134.417 8.4627H138.718L133.641 16.7138L139.001 26.0932H134.663L130.362 18.6531L128.07 18.9V26.0932Z" fill="#818181"/>
<path d="M38.1368 11.5591C36.1551 12.8689 34.2828 13.9419 32.5433 14.7768C29.4956 5.98504 21.842 0 13.3443 0C11.348 0 9.36879 0.323516 7.46212 0.962252C6.81136 1.18083 6.35512 1.76855 6.30659 2.45291C6.25848 3.13769 6.62596 3.78431 7.24022 4.09165C9.91669 5.43382 11.6463 8.49603 11.6463 11.8921C11.6463 11.9199 11.6421 11.9456 11.6421 11.9726C9.88808 11.3392 7.9673 10.9975 5.72509 11.2915C3.1971 11.6246 2.13448 12.7245 1.35804 13.5271C1.11665 13.7768 0.908436 13.9925 0.675754 14.1675C-0.0733101 14.7332 -0.22221 15.7988 0.342698 16.5478C0.909266 17.2961 1.97396 17.4441 2.7222 16.8809C3.16724 16.5445 3.50361 16.1961 3.80183 15.8888C4.43476 15.2339 4.81676 14.8386 6.16847 14.6602C9.34432 14.2426 11.7338 15.5947 14.4986 17.16C16.1672 18.1049 17.8922 19.0816 19.8868 19.6959C21.3621 20.1509 22.8544 20.3803 24.3965 20.3803C26.9013 20.3803 29.5379 19.7755 32.4438 18.5549C34.7594 17.5823 37.3052 16.1824 40.0116 14.3936C40.7946 13.8763 41.0095 12.822 40.4923 12.0398C39.9751 11.2575 38.9199 11.0418 38.1368 11.5591ZM20.8864 16.4491C19.2435 15.9423 17.7512 15.0978 16.1713 14.2032C15.7636 13.9722 15.3534 13.7411 14.9387 13.5134C15.0042 12.9846 15.0432 12.4442 15.0432 11.8913C15.0432 8.67603 13.8752 5.65904 11.903 3.4666C12.3812 3.42056 12.8628 3.39775 13.3443 3.39775C20.4463 3.39775 26.864 8.53999 29.3986 16.0754C25.3256 17.445 22.7317 17.0182 20.8864 16.4491Z" fill="#646464"/>
<path d="M38.1372 20.0526C35.6051 21.7258 33.2455 23.0256 31.1269 23.9165C26.0361 26.0555 22.9801 25.5893 20.8868 24.9435C19.2439 24.4367 17.7516 23.5922 16.1717 22.6975C13.151 20.9871 10.0287 19.2227 5.72426 19.7851C3.19669 20.1181 2.13323 21.2181 1.35762 22.0215C1.11623 22.2712 0.908019 22.4868 0.675336 22.6627C-0.0728978 23.2276 -0.222628 24.2931 0.343111 25.0422C0.908849 25.7904 1.97355 25.9373 2.72261 25.3753C3.16682 25.0389 3.50403 24.6905 3.80141 24.3831C4.43434 23.7282 4.81551 23.333 6.16806 23.1554C9.3439 22.7378 11.7334 24.0899 14.4982 25.6544C16.1668 26.5992 17.8918 27.576 19.8864 28.1903C21.3617 28.6453 22.854 28.8746 24.3961 28.8746C26.9009 28.8746 29.5375 28.2699 32.4434 27.0493C34.7573 26.0766 37.3031 24.6776 40.0111 22.8888C40.7942 22.3715 41.0091 21.3172 40.4918 20.535C39.9755 19.7519 38.9228 19.5379 38.1372 20.0526Z" fill="#D3D3D3"/>
</svg>
