<svg width="189" height="29" viewBox="0 0 189 29" fill="none" xmlns="http://www.w3.org/2000/svg">
<path d="M138.215 14.8223C138.215 9.83943 142.244 5.80005 147.215 5.80005H180.001C184.971 5.80005 189.001 9.83943 189.001 14.8223C189.001 19.8051 184.971 23.8445 180.001 23.8445H147.215C142.244 23.8445 138.215 19.8051 138.215 14.8223Z" fill="#646464"/>
<path fill-rule="evenodd" clip-rule="evenodd" d="M146.572 17.4001C147.992 17.4001 149.143 16.246 149.143 14.8223C149.143 13.3987 147.992 12.2445 146.572 12.2445C145.152 12.2445 144 13.3987 144 14.8223C144 16.246 145.152 17.4001 146.572 17.4001ZM146.572 18.0445C148.347 18.0445 149.786 16.6019 149.786 14.8223C149.786 13.0428 148.347 11.6001 146.572 11.6001C144.797 11.6001 143.357 13.0428 143.357 14.8223C143.357 16.6019 144.797 18.0445 146.572 18.0445Z" fill="white"/>
<path d="M148.5 14.8222C148.5 15.89 147.636 16.7556 146.571 16.7556C145.506 16.7556 144.643 15.89 144.643 14.8222C144.643 13.7545 145.506 12.8889 146.571 12.8889C147.636 12.8889 148.5 13.7545 148.5 14.8222Z" fill="white"/>
<path d="M160.996 18.6888H155.639V11.0178H157.17V17.1536H160.996V18.6888Z" fill="white"/>
<path d="M164.42 18.6888H162.889V11.0178H164.42V18.6888Z" fill="white"/>
<path d="M172.786 11.0178L170.273 18.6888H168.741L166.238 11.0178H167.978L169.504 16.1372L171.036 11.0178H172.786Z" fill="white"/>
<path d="M179.861 18.6888H174.615V11.0178H179.861V12.5531H176.147V14.0883H178.66V15.6237H176.147V17.1536H179.861V18.6888Z" fill="white"/>
<path d="M0.552734 11.1822C0.552734 10.51 0.680806 9.87941 0.936939 9.29032C1.19308 8.7013 1.53962 8.18774 1.97656 7.74971C2.42104 7.30414 2.93708 6.95299 3.5247 6.69617C4.11231 6.43942 4.74135 6.31104 5.41183 6.31104H12.8474V9.56221H5.41183C5.18583 9.56221 4.97489 9.60371 4.77902 9.68678C4.58315 9.76992 4.40988 9.88695 4.25921 10.038C4.11607 10.1815 4.00307 10.3514 3.9202 10.5478C3.83733 10.7441 3.7959 10.9556 3.7959 11.1822C3.7959 11.4087 3.83733 11.6239 3.9202 11.8278C4.00307 12.0242 4.11607 12.1979 4.25921 12.3489C4.40988 12.4924 4.58315 12.6057 4.77902 12.6888C4.97489 12.7719 5.18583 12.8134 5.41183 12.8134H8.65497C9.32547 12.8134 9.9545 12.9417 10.5421 13.1986C11.1373 13.4478 11.6533 13.7951 12.0903 14.2408C12.5347 14.6787 12.8813 15.1961 13.1299 15.7927C13.386 16.3817 13.5141 17.0123 13.5141 17.6845C13.5141 18.3566 13.386 18.9872 13.1299 19.5763C12.8813 20.1653 12.5347 20.6827 12.0903 21.1283C11.6533 21.5662 11.1373 21.9136 10.5421 22.1704C9.9545 22.4272 9.32547 22.5556 8.65497 22.5556H1.45675V19.3044H8.65497C8.88099 19.3044 9.09192 19.2628 9.28779 19.1798C9.48367 19.0967 9.65319 18.9834 9.7963 18.84C9.94698 18.6889 10.0637 18.5152 10.1467 18.3189C10.2295 18.1225 10.2709 17.9111 10.2709 17.6845C10.2709 17.4579 10.2295 17.2464 10.1467 17.0501C10.0637 16.8537 9.94698 16.6838 9.7963 16.5403C9.65319 16.3893 9.48367 16.2722 9.28779 16.1892C9.09192 16.1061 8.88099 16.0645 8.65497 16.0645H5.41183C4.74135 16.0645 4.11231 15.9362 3.5247 15.6794C2.93708 15.4226 2.42104 15.0752 1.97656 14.6372C1.53962 14.1916 1.19308 13.6743 0.936939 13.0853C0.680806 12.4886 0.552734 11.8542 0.552734 11.1822Z" fill="#646464"/>
<path d="M19.5655 22.5556H16.4805V5.59741H19.5655V10.9556C19.9346 10.6762 20.315 10.4798 20.7068 10.3665C21.0985 10.2457 21.4978 10.1853 21.9046 10.1853C22.6504 10.1853 23.351 10.3288 24.0065 10.6158C24.6619 10.8952 25.2307 11.2842 25.7128 11.7826C26.2025 12.2734 26.5866 12.8512 26.8654 13.5158C27.1516 14.1728 27.2948 14.8751 27.2948 15.6228V22.5556H24.1872V15.6228H24.2099C24.2099 15.3056 24.1496 15.0073 24.029 14.7279C23.9085 14.4409 23.7428 14.1917 23.5318 13.9802C23.3209 13.7687 23.0761 13.6026 22.7973 13.4818C22.5186 13.3609 22.221 13.3006 21.9046 13.3006C21.5806 13.3006 21.2755 13.3609 20.9893 13.4818C20.703 13.6026 20.4544 13.7687 20.2435 13.9802C20.0325 14.1917 19.8668 14.4409 19.7462 14.7279C19.6257 15.0073 19.5655 15.3056 19.5655 15.6228V22.5556Z" fill="#646464"/>
<path d="M42.3507 16.3818C42.3507 17.2881 42.1887 18.1339 41.8648 18.9193C41.5409 19.6972 41.1002 20.3731 40.5427 20.947C39.9852 21.5134 39.3298 21.9628 38.5765 22.2951C37.8306 22.6198 37.0283 22.7822 36.1695 22.7822C35.3182 22.7822 34.5159 22.6198 33.7626 22.2951C33.0168 21.9628 32.3613 21.5134 31.7963 20.947C31.2388 20.3731 30.7982 19.6972 30.4742 18.9193C30.1503 18.1339 29.9883 17.2881 29.9883 16.3818C29.9883 15.4604 30.1503 14.6071 30.4742 13.8217C30.7982 13.0362 31.2388 12.3603 31.7963 11.7939C32.3613 11.22 33.0168 10.7706 33.7626 10.4459C34.5159 10.1211 35.3182 9.95874 36.1695 9.95874C37.0283 9.95874 37.8306 10.1136 38.5765 10.4232C39.3298 10.7253 39.9852 11.1595 40.5427 11.7259C41.1002 12.2848 41.5409 12.9607 41.8648 13.7537C42.1887 14.5391 42.3507 15.4151 42.3507 16.3818ZM39.2432 16.3818C39.2432 15.8834 39.1603 15.434 38.9946 15.0337C38.8364 14.6259 38.6179 14.2785 38.3392 13.9915C38.0604 13.697 37.7327 13.4742 37.3561 13.3232C36.9869 13.1646 36.5914 13.0853 36.1695 13.0853C35.7476 13.0853 35.3484 13.1646 34.9717 13.3232C34.6026 13.4742 34.2786 13.697 33.9999 13.9915C33.7287 14.2785 33.514 14.6259 33.3558 15.0337C33.1976 15.434 33.1185 15.8834 33.1185 16.3818C33.1185 16.85 33.1976 17.2843 33.3558 17.6845C33.514 18.0848 33.7287 18.4322 33.9999 18.7267C34.2786 19.0212 34.6026 19.2554 34.9717 19.429C35.3484 19.5952 35.7476 19.6783 36.1695 19.6783C36.5914 19.6783 36.9869 19.599 37.3561 19.4404C37.7327 19.2818 38.0604 19.059 38.3392 18.772C38.6179 18.4851 38.8364 18.1376 38.9946 17.7298C39.1603 17.322 39.2432 16.8727 39.2432 16.3818Z" fill="#646464"/>
<path d="M48.3224 27.1775H45.2148V10.4232H45.9606L47.1924 11.8846C47.4711 11.6202 47.7762 11.371 48.1077 11.1369C48.4392 10.9028 48.7819 10.7026 49.136 10.5365C49.4976 10.3628 49.8705 10.2268 50.2547 10.1287C50.6389 10.0306 51.0269 9.98145 51.4187 9.98145C52.2699 9.98145 53.0685 10.1362 53.8143 10.4459C54.5676 10.7479 55.223 11.1784 55.7805 11.7373C56.3455 12.2962 56.79 12.9721 57.114 13.765C57.4379 14.5504 57.5999 15.4227 57.5999 16.3818C57.5999 17.3787 57.4379 18.2774 57.114 19.0779C56.79 19.8709 56.3455 20.5468 55.7805 21.1057C55.223 21.657 54.5676 22.0799 53.8143 22.3744C53.0685 22.6689 52.2699 22.8162 51.4187 22.8162C51.1474 22.8162 50.8762 22.786 50.6051 22.7256C50.3414 22.6651 50.0777 22.5859 49.814 22.4877C49.5579 22.382 49.3017 22.2649 49.0456 22.1365C48.797 22.0081 48.556 21.876 48.3224 21.74V27.1775ZM54.5036 16.3818C54.5036 15.8683 54.4208 15.4076 54.255 14.9998C54.0968 14.592 53.8784 14.2484 53.5996 13.9689C53.3209 13.682 52.9932 13.4629 52.6165 13.3119C52.2398 13.1609 51.8405 13.0853 51.4187 13.0853C50.9968 13.0853 50.5975 13.1609 50.2208 13.3119C49.8517 13.4629 49.5278 13.682 49.249 13.9689C48.9703 14.2484 48.748 14.592 48.5823 14.9998C48.4241 15.4076 48.345 15.8683 48.345 16.3818C48.345 16.8727 48.4241 17.3221 48.5823 17.7299C48.748 18.1377 48.9703 18.4851 49.249 18.7721C49.5278 19.059 49.8517 19.2818 50.2208 19.4404C50.5975 19.599 50.9968 19.6783 51.4187 19.6783C51.8405 19.6783 52.2398 19.599 52.6165 19.4404C52.9932 19.2818 53.3209 19.059 53.5996 18.7721C53.8784 18.4851 54.0968 18.1377 54.255 17.7299C54.4208 17.3221 54.5036 16.8727 54.5036 16.3818Z" fill="#646464"/>
<path d="M72.1928 22.5556H71.4464L70.2488 20.8904C69.955 21.1547 69.6426 21.4039 69.3109 21.6381C68.9869 21.8646 68.6442 22.0648 68.2829 22.2384C67.921 22.4046 67.5482 22.5368 67.1637 22.6349C66.787 22.7331 66.4032 22.7822 66.0111 22.7822C65.1599 22.7822 64.3577 22.6387 63.6044 22.3517C62.8586 22.0648 62.2031 21.6494 61.6381 21.1056C61.0807 20.5543 60.6399 19.8822 60.316 19.0892C59.9921 18.2962 59.8301 17.3938 59.8301 16.3818C59.8301 15.4378 59.9921 14.5731 60.316 13.7876C60.6399 12.9947 61.0807 12.315 61.6381 11.7486C62.2031 11.1822 62.8586 10.7442 63.6044 10.4345C64.3577 10.1173 65.1599 9.95874 66.0111 9.95874C66.4032 9.95874 66.7909 10.0078 67.1753 10.106C67.5597 10.2042 67.9326 10.3401 68.2939 10.5139C68.6558 10.6875 68.9984 10.8914 69.3224 11.1256C69.6535 11.3597 69.9627 11.6126 70.2488 11.8845L71.4464 10.4459H72.1928V22.5556ZM69.0852 16.3818C69.0852 15.9589 69.0023 15.5511 68.8364 15.1584C68.6783 14.7581 68.4597 14.407 68.1807 14.1048C67.9024 13.7952 67.5745 13.5498 67.1978 13.3685C66.8288 13.1797 66.4334 13.0853 66.0111 13.0853C65.5894 13.0853 65.1902 13.1571 64.8134 13.3006C64.4444 13.444 64.1204 13.6555 63.8417 13.9349C63.5705 14.2143 63.3558 14.5617 63.1976 14.9771C63.0394 15.3849 62.9603 15.8532 62.9603 16.3818C62.9603 16.9104 63.0394 17.3825 63.1976 17.7978C63.3558 18.2056 63.5705 18.5493 63.8417 18.8287C64.1204 19.1081 64.4444 19.3196 64.8134 19.4631C65.1902 19.6065 65.5894 19.6783 66.0111 19.6783C66.4334 19.6783 66.8288 19.5876 67.1978 19.4064C67.5745 19.2176 67.9024 18.9722 68.1807 18.6701C68.4597 18.3604 68.6783 18.0093 68.8364 17.6165C69.0023 17.2163 69.0852 16.8047 69.0852 16.3818Z" fill="#646464"/>
<path d="M78.796 22.5556H75.7109V5.59741H78.796V10.9556C79.165 10.6762 79.5456 10.4798 79.9377 10.3665C80.3292 10.2457 80.7284 10.1853 81.1354 10.1853C81.8811 10.1853 82.5818 10.3288 83.2369 10.6158C83.8926 10.8952 84.4615 11.2842 84.9436 11.7826C85.4329 12.2734 85.8173 12.8512 86.0963 13.5158C86.3824 14.1728 86.5257 14.8751 86.5257 15.6228V22.5556H83.4181V15.6228H83.4406C83.4406 15.3056 83.3802 15.0073 83.26 14.7279C83.1392 14.4409 82.9733 14.1917 82.7624 13.9802C82.5516 13.7687 82.3066 13.6026 82.0283 13.4818C81.7493 13.3609 81.4516 13.3006 81.1354 13.3006C80.8114 13.3006 80.506 13.3609 80.2199 13.4818C79.9339 13.6026 79.6851 13.7687 79.4742 13.9802C79.2634 14.1917 79.0975 14.4409 78.9773 14.7279C78.8564 15.0073 78.796 15.3056 78.796 15.6228V22.5556Z" fill="#646464"/>
<path d="M101.582 16.3818C101.582 17.2881 101.42 18.1339 101.096 18.9193C100.772 19.6972 100.331 20.3731 99.7732 20.947C99.2158 21.5134 98.5607 21.9628 97.8073 22.2951C97.0616 22.6198 96.2587 22.7822 95.4005 22.7822C94.5487 22.7822 93.7464 22.6198 92.993 22.2951C92.2473 21.9628 91.5922 21.5134 91.0271 20.947C90.4698 20.3731 90.0288 19.6972 89.7048 18.9193C89.3808 18.1339 89.2188 17.2881 89.2188 16.3818C89.2188 15.4604 89.3808 14.6071 89.7048 13.8217C90.0288 13.0362 90.4698 12.3603 91.0271 11.7939C91.5922 11.22 92.2473 10.7706 92.993 10.4459C93.7464 10.1211 94.5487 9.95874 95.4005 9.95874C96.2587 9.95874 97.0616 10.1136 97.8073 10.4232C98.5607 10.7253 99.2158 11.1595 99.7732 11.7259C100.331 12.2848 100.772 12.9607 101.096 13.7537C101.42 14.5391 101.582 15.4151 101.582 16.3818ZM98.474 16.3818C98.474 15.8834 98.391 15.434 98.2252 15.0337C98.067 14.6259 97.8485 14.2785 97.5701 13.9915C97.2911 13.697 96.9632 13.4742 96.5865 13.3232C96.2175 13.1646 95.8222 13.0853 95.4005 13.0853C94.9781 13.0853 94.5789 13.1646 94.2022 13.3232C93.8332 13.4742 93.5092 13.697 93.2308 13.9915C92.9595 14.2785 92.7448 14.6259 92.5867 15.0337C92.4285 15.434 92.3488 15.8834 92.3488 16.3818C92.3488 16.85 92.4285 17.2843 92.5867 17.6845C92.7448 18.0848 92.9595 18.4322 93.2308 18.7267C93.5092 19.0212 93.8332 19.2554 94.2022 19.429C94.5789 19.5952 94.9781 19.6783 95.4005 19.6783C95.8222 19.6783 96.2175 19.599 96.5865 19.4404C96.9632 19.2818 97.2911 19.059 97.5701 18.772C97.8485 18.4851 98.067 18.1376 98.2252 17.7298C98.391 17.322 98.474 16.8727 98.474 16.3818Z" fill="#646464"/>
<path d="M107.553 22.5556H104.445V5.59741H107.553V22.5556Z" fill="#646464"/>
<path d="M114.712 7.12666C114.712 7.41363 114.655 7.68172 114.542 7.93093C114.436 8.1802 114.29 8.39918 114.101 8.588C113.913 8.76922 113.691 8.91648 113.435 9.02977C113.186 9.13552 112.919 9.18837 112.633 9.18837C112.346 9.18837 112.075 9.13552 111.819 9.02977C111.57 8.91648 111.351 8.76922 111.164 8.588C110.982 8.39918 110.836 8.1802 110.723 7.93093C110.617 7.68172 110.564 7.41363 110.564 7.12666C110.564 6.84723 110.617 6.58288 110.723 6.33369C110.836 6.07692 110.982 5.8579 111.164 5.67665C111.351 5.48785 111.57 5.34059 111.819 5.23486C112.075 5.12158 112.346 5.06494 112.633 5.06494C112.919 5.06494 113.186 5.12158 113.435 5.23486C113.691 5.34059 113.913 5.48785 114.101 5.67665C114.29 5.8579 114.436 6.07692 114.542 6.33369C114.655 6.58288 114.712 6.84723 114.712 7.12666ZM114.181 22.5556H111.073V10.4231H114.181V22.5556Z" fill="#646464"/>
<path d="M128.275 12.8361L126.015 15.1131C125.901 14.7959 125.747 14.5126 125.552 14.2634C125.356 14.0067 125.133 13.7914 124.884 13.6178C124.643 13.444 124.38 13.3118 124.094 13.2212C123.808 13.1306 123.514 13.0853 123.212 13.0853C122.791 13.0853 122.391 13.1722 122.015 13.3459C121.645 13.5196 121.321 13.765 121.043 14.0822C120.771 14.3918 120.557 14.7618 120.399 15.1923C120.24 15.6228 120.161 16.0986 120.161 16.6197C120.161 17.0426 120.24 17.4391 120.399 17.8092C120.557 18.1792 120.771 18.5039 121.043 18.7834C121.321 19.0628 121.645 19.2818 122.015 19.4404C122.391 19.599 122.791 19.6783 123.212 19.6783C123.514 19.6783 123.804 19.6368 124.082 19.5537C124.361 19.4706 124.621 19.3535 124.862 19.2025C125.111 19.0439 125.329 18.8551 125.518 18.6361C125.713 18.4095 125.872 18.1603 125.992 17.8884L128.252 20.1654C127.966 20.5732 127.635 20.9395 127.258 21.2642C126.889 21.589 126.486 21.8646 126.049 22.0912C125.619 22.3178 125.163 22.4876 124.681 22.6009C124.207 22.7218 123.717 22.7822 123.212 22.7822C122.361 22.7822 121.559 22.6236 120.805 22.3064C120.06 21.9817 119.404 21.5399 118.839 20.981C118.282 20.4222 117.841 19.7689 117.517 19.0212C117.193 18.2736 117.031 17.4731 117.031 16.6197C117.031 15.6908 117.193 14.8223 117.517 14.0142C117.841 13.2062 118.282 12.5038 118.839 11.9072C119.404 11.3031 120.06 10.8273 120.805 10.4798C121.559 10.1325 122.361 9.95874 123.212 9.95874C123.717 9.95874 124.211 10.0229 124.693 10.1514C125.182 10.2797 125.646 10.4685 126.083 10.7178C126.527 10.9594 126.934 11.2577 127.303 11.6126C127.68 11.9676 128.004 12.3754 128.275 12.8361Z" fill="#646464"/>
</svg>
