<svg width="22" height="22" viewBox="0 0 22 22" fill="none" xmlns="http://www.w3.org/2000/svg">
<path opacity="0.8" d="M11 22C17.0751 22 22 17.0751 22 11C22 4.92487 17.0751 0 11 0C4.92487 0 0 4.92487 0 11C0 17.0751 4.92487 22 11 22Z" fill="white"/>
<path d="M11.0004 4.01416C7.14362 4.01416 4.00586 7.14819 4.00586 11.0001C4.00586 14.852 7.14362 17.9858 11.0004 17.9858C14.8574 17.9858 17.9954 14.8522 17.9954 11.0001C17.9954 7.14819 14.8574 4.01416 11.0004 4.01416ZM15.6031 7.31134C16.401 8.3002 16.8859 9.54906 16.9083 10.9099C16.6428 10.8554 15.5184 10.6458 14.1748 10.6458C13.7413 10.6458 13.285 10.6675 12.8275 10.724C12.7889 10.6301 12.7503 10.5365 12.7097 10.442C12.5911 10.163 12.4632 9.88613 12.3309 9.61338C14.3988 8.76139 15.3963 7.57899 15.6031 7.31134ZM11.0004 5.10773C12.4909 5.10773 13.8533 5.66147 14.8939 6.57347C14.7292 6.79818 13.8358 7.91489 11.8418 8.66825C10.9188 6.98113 9.90862 5.58402 9.66822 5.25969C10.0967 5.16048 10.5426 5.10773 11.0004 5.10773ZM8.4621 5.6803C8.66583 5.9609 9.67763 7.37291 10.6243 9.0465C8.08365 9.71436 5.82749 9.75789 5.28296 9.75789H5.22512C5.61631 7.95509 6.83439 6.45699 8.4621 5.6803ZM5.091 11.0093C5.091 10.9607 5.09178 10.9121 5.09335 10.8636C5.12864 10.864 5.1808 10.864 5.24845 10.864C5.98181 10.864 8.52739 10.8034 11.1506 10.025C11.3098 10.3363 11.4614 10.6524 11.6024 10.9683C11.5361 10.9874 11.4708 11.0064 11.4059 11.0275C8.45229 11.9815 6.8289 14.5069 6.57909 14.9196C5.65356 13.8769 5.091 12.5078 5.091 11.0093ZM11.0004 16.9105C9.64508 16.9105 8.39425 16.4515 7.39618 15.6818C7.56501 15.3508 8.79034 13.1447 12.0271 12.0182C12.0291 12.0174 12.0312 12.0166 12.0336 12.016C12.8452 14.129 13.1889 15.9024 13.2832 16.4521C12.5809 16.7474 11.8095 16.9105 11.0004 16.9105ZM14.3476 15.8703C14.2684 15.4155 13.9499 13.7535 13.215 11.7264C13.6272 11.6623 14.0282 11.637 14.4043 11.637C15.6394 11.637 16.6055 11.9074 16.83 11.976C16.5632 13.5857 15.6416 14.9787 14.3476 15.8703Z" fill="#282828"/>
</svg>
