<svg width="24" height="24" viewBox="0 0 24 24" fill="none" xmlns="http://www.w3.org/2000/svg">
<path d="M12 24C18.6274 24 24 18.6274 24 12C24 5.37258 18.6274 0 12 0C5.37258 0 0 5.37258 0 12C0 18.6274 5.37258 24 12 24Z" fill="#F26798"/>
<path d="M11.9996 4.37939C7.79215 4.37939 4.36914 7.79834 4.36914 12.0004C4.36914 16.2025 7.79215 19.6212 11.9996 19.6212C16.2072 19.6212 19.6304 16.2027 19.6304 12.0004C19.6304 7.79834 16.2072 4.37939 11.9996 4.37939ZM17.0207 7.97631C17.8911 9.05507 18.4201 10.4175 18.4445 11.902C18.1549 11.8425 16.9283 11.6139 15.4626 11.6139C14.9896 11.6139 14.4919 11.6376 13.9928 11.6992C13.9507 11.5968 13.9085 11.4947 13.8642 11.3916C13.7348 11.0872 13.5954 10.7852 13.451 10.4876C15.7069 9.55819 16.795 8.2683 17.0207 7.97631ZM11.9996 5.57238C13.6255 5.57238 15.1118 6.17646 16.247 7.17137C16.0673 7.41651 15.0927 8.63473 12.9175 9.45658C11.9106 7.61609 10.8085 6.09197 10.5463 5.73816C11.0137 5.62992 11.5001 5.57238 11.9996 5.57238ZM9.23049 6.197C9.45274 6.50311 10.5565 8.04348 11.5893 9.86922C8.81764 10.5978 6.35638 10.6453 5.76235 10.6453H5.69924C6.12599 8.67859 7.45481 7.0443 9.23049 6.197ZM5.55293 12.0105C5.55293 11.9574 5.55378 11.9044 5.55549 11.8515C5.594 11.852 5.6509 11.852 5.7247 11.852C6.52473 11.852 9.30172 11.7859 12.1634 10.9366C12.3371 11.2763 12.5025 11.6212 12.6563 11.9658C12.584 11.9865 12.5127 12.0073 12.4419 12.0304C9.21979 13.071 7.44882 15.826 7.1763 16.2763C6.16664 15.1387 5.55293 13.6452 5.55293 12.0105ZM11.9996 18.4481C10.521 18.4481 9.15648 17.9474 8.06767 17.1078C8.25185 16.7467 9.58858 14.34 13.1196 13.111C13.1218 13.1102 13.1241 13.1093 13.1267 13.1087C14.0121 15.4138 14.387 17.3484 14.4899 17.948C13.7237 18.2702 12.8822 18.4481 11.9996 18.4481ZM15.651 17.3133C15.5646 16.8173 15.2172 15.0042 14.4155 12.7927C14.8651 12.7228 15.3026 12.6952 15.7129 12.6952C17.0603 12.6952 18.1142 12.9902 18.3592 13.0651C18.068 14.8211 17.0626 16.3407 15.651 17.3133Z" fill="#F1F2F2"/>
</svg>
