<svg width="60" height="60" viewBox="0 0 60 60" fill="none" xmlns="http://www.w3.org/2000/svg">
<path d="M58.9909 51.9873H56.9912V49.9876H54.9915V51.9873H52.9918V49.9876H50.9921V51.9873H36.1126C35.0454 51.982 34.0685 52.5844 33.5949 53.5403C33.4597 53.8152 33.1785 53.989 32.8719 53.987H27.114C26.8069 53.989 26.5262 53.8152 26.3909 53.5403C25.9179 52.5859 24.9434 51.9834 23.8781 51.9873H8.99861V33.9901H6.99892V51.9873H4.99923V33.9901H2.99954V51.9873H0.999845C0.447684 51.9873 0 52.435 0 52.9872V55.9867C0 58.1953 1.79074 59.9861 3.99938 59.9861H55.9913C58.2 59.9861 59.9907 58.1953 59.9907 55.9867V52.9872C59.9907 52.435 59.543 51.9873 58.9909 51.9873ZM57.991 55.9867C57.991 57.091 57.0956 57.9864 55.9913 57.9864H3.99938C2.89506 57.9864 1.99969 57.091 1.99969 55.9867V53.987H23.8781C24.1852 53.9851 24.4659 54.1589 24.6012 54.4337C25.0742 55.3882 26.0487 55.9906 27.114 55.9867H32.8767C33.944 55.9926 34.9209 55.3896 35.3944 54.4337C35.5292 54.1603 35.8074 53.987 36.1126 53.987H57.991V55.9867Z" fill="#282828"/>
<path d="M25.9961 15.993V13.9933H7.99886C5.23903 13.9967 3.00305 16.2327 2.99963 18.9925V19.9924H4.99932V18.9925C4.99932 17.336 6.34238 15.993 7.99886 15.993H25.9961Z" fill="#282828"/>
<path d="M6.99902 19.9922H27.9958V17.9926H8.99871C7.89439 17.9926 6.99902 18.8879 6.99902 19.9922Z" fill="#282828"/>
<path d="M53.5525 15.4287L54.4525 12.5919C54.5166 12.3909 54.4932 12.1719 54.3881 11.9892C54.2826 11.8065 54.105 11.6765 53.8992 11.6311L50.99 10.995L50.3572 8.08904C50.3125 7.88325 50.1836 7.70529 50.0013 7.59946C49.8189 7.49327 49.6007 7.46874 49.3997 7.53209L46.5625 8.43178L44.554 6.23399C44.4087 6.08422 44.2087 6 44 6C43.7913 6 43.5913 6.08422 43.446 6.23399L41.4404 8.43581L38.6003 7.53209C38.3993 7.46764 38.1807 7.49144 37.9976 7.5969C37.8149 7.70236 37.6849 7.87996 37.6399 8.08611L37.0038 10.995L34.1008 11.6311C33.8946 11.6761 33.717 11.8061 33.6115 11.9888C33.5061 12.1719 33.4827 12.3905 33.5467 12.5919L34.4468 15.4287L32.245 17.4343C32.089 17.5763 32 17.7774 32 17.9883C32 18.1992 32.089 18.4002 32.245 18.5423L34.4468 20.5479L33.5467 23.3846C33.4827 23.586 33.5061 23.8046 33.6115 23.9877C33.717 24.1705 33.8946 24.3005 34.1008 24.3455L37.01 24.9815L37.6457 27.8905C37.6908 28.0966 37.8208 28.2742 38.0038 28.3797C38.1866 28.4851 38.4055 28.5089 38.6066 28.4445L41.4433 27.5408L43.4489 29.7426C43.591 29.8986 43.792 29.9876 44.0029 29.9876C44.2138 29.9876 44.4152 29.8986 44.5573 29.7426L46.5625 27.5408L49.3997 28.4445C49.6007 28.5089 49.8193 28.4851 50.0024 28.3797C50.1851 28.2742 50.3151 28.0966 50.3601 27.8905L50.9962 24.9815L53.9051 24.3455C54.1113 24.3005 54.2889 24.1705 54.3943 23.9877C54.4998 23.8046 54.5236 23.586 54.4591 23.3846L53.5594 20.5479L55.7613 18.5423C55.9169 18.4002 56.0059 18.1992 56.0059 17.9883C56.0059 17.7774 55.9169 17.5763 55.7613 17.4343L53.5525 15.4287ZM52.187 19.7628C51.9706 19.9601 51.8886 20.2655 51.9779 20.5449L52.7743 23.0562L50.1997 23.6194C49.9141 23.6823 49.6911 23.9053 49.6281 24.191L49.0679 26.7626L46.5567 25.9629C46.2773 25.875 45.9722 25.9567 45.7745 26.1723L44 28.1237L42.2255 26.1738C42.0834 26.0178 41.8824 25.9292 41.6715 25.9292C41.5949 25.9296 41.5191 25.9413 41.4466 25.9647L38.9321 26.7626L38.3689 24.188C38.3059 23.9024 38.0829 23.6794 37.7973 23.6164L35.2257 23.0562L36.0254 20.5449C36.1144 20.2655 36.0327 19.9601 35.8159 19.7628L33.8646 17.9883L35.8145 16.2138C36.0312 16.0164 36.1129 15.711 36.0236 15.4316L35.2257 12.9204L37.8003 12.3572C38.0859 12.2942 38.3089 12.0712 38.3719 11.7856L38.9321 9.21394L41.4433 10.0137C41.7227 10.1027 42.0281 10.021 42.2255 9.80422L44 7.85286L45.7745 9.80275C45.9719 10.0195 46.2773 10.1012 46.5567 10.0118L49.0679 9.21394L49.6311 11.7885C49.6941 12.0742 49.9171 12.2972 50.2027 12.3601L52.7773 12.9233L51.9779 15.4349C51.8886 15.714 51.9706 16.0193 52.187 16.2171L54.1354 17.9883L52.187 19.7628Z" fill="#08BBF6"/>
<path d="M40.2503 21.7379C39.9575 21.4451 39.9575 20.9703 40.2503 20.6775L46.6888 14.2386C46.9817 13.9458 47.4565 13.9457 47.7494 14.2385C48.0423 14.5314 48.0424 15.0063 47.7495 15.2992L41.3108 21.7379C41.0179 22.0307 40.5432 22.0307 40.2503 21.7379Z" fill="#FF5C8B"/>
<path d="M42.5007 15.7388C42.5007 14.4961 41.4932 13.4886 40.2506 13.4886C39.008 13.4886 38.0005 14.4961 38.0005 15.7388C38.0005 16.9814 39.008 17.9889 40.2506 17.9889C41.4932 17.9889 42.5007 16.9814 42.5007 15.7388ZM39.5006 15.7388C39.5006 15.3246 39.8364 14.9887 40.2506 14.9887C40.6648 14.9887 41.0006 15.3246 41.0006 15.7388C41.0006 16.153 40.6648 16.4888 40.2506 16.4888C39.8364 16.4888 39.5006 16.153 39.5006 15.7388Z" fill="#08BBF6"/>
<path d="M47.75 17.9883C46.5074 17.9883 45.4999 18.9958 45.4999 20.2384C45.4999 21.481 46.5074 22.4885 47.75 22.4885C48.9926 22.4885 50.0001 21.481 50.0001 20.2384C50.0001 18.9958 48.9926 17.9883 47.75 17.9883ZM47.75 20.9884C47.3358 20.9884 47 20.6526 47 20.2384C47 19.8242 47.3358 19.4884 47.75 19.4884C48.1642 19.4884 48.5 19.8242 48.5 20.2384C48.5 20.6526 48.1642 20.9884 47.75 20.9884Z" fill="#08BBF6"/>
<path d="M25.9598 26.7582C25.6254 26.6781 25.2729 26.7772 25.0293 27.0199L15.2706 36.6776L12.8979 38.0895C11.323 39.0053 10.6121 40.9044 11.1985 42.6298C11.6574 44.0285 12.8837 45.0356 14.3449 45.2153L16.4276 49.4295C16.5966 49.7717 16.9456 49.988 17.3274 49.9865H21.2609C21.5982 49.987 21.9131 49.8171 22.0981 49.5349C22.2832 49.2528 22.3134 48.8959 22.1787 48.5869L20.1087 43.8083L30.9781 43.9884H30.9952C31.3184 43.9884 31.6216 43.8322 31.809 43.5691C31.9965 43.3059 32.0453 42.9681 31.9399 42.6625L26.678 27.4051C26.5657 27.0804 26.2948 26.8363 25.9598 26.7582ZM13.0981 41.9888C12.8169 41.1578 13.1601 40.2444 13.9187 39.804L15.4805 38.8774L17.2293 42.3359L15.7485 43.0687C15.252 43.3152 14.6725 43.3338 14.1609 43.1204C13.658 42.9168 13.2694 42.5033 13.0981 41.9888ZM17.9494 47.9878L16.4374 44.9341C16.5004 44.9063 16.5682 44.8955 16.6312 44.8643L18.0734 44.1505L19.7347 47.9878H17.9494ZM19.1972 41.7979L17.1136 37.6725L25.312 29.5595L29.5906 41.9658L19.1972 41.7979Z" fill="#FF5C8B"/>
<path d="M31.4833 35.1889C31.3022 34.6675 31.5779 34.0981 32.0992 33.9169L33.5178 33.4238C34.0392 33.2426 34.6087 33.5185 34.7898 34.0399C34.9708 34.5611 34.6951 35.1304 34.1739 35.3116L32.7554 35.8047C32.2341 35.9859 31.6645 35.7102 31.4833 35.1889Z" fill="#08BBF6"/>
<path d="M29.2783 28.2902C28.8799 27.9079 28.8668 27.2751 29.2491 26.8767L30.07 26.0211C30.4523 25.6226 31.0853 25.6095 31.4837 25.9918C31.8823 26.3741 31.8953 27.0072 31.513 27.4056L30.692 28.2612C30.3096 28.6596 29.6767 28.6726 29.2783 28.2902Z" fill="#FF5C8B"/>
<path d="M33.9946 41.9889C33.9946 41.4367 34.4423 40.989 34.9945 40.989H35.9943C36.5465 40.989 36.9942 41.4367 36.9942 41.9889C36.9942 42.5411 36.5465 42.9887 35.9943 42.9887H34.9945C34.4423 42.9887 33.9946 42.5411 33.9946 41.9889Z" fill="#FF5C8B"/>
<path d="M58.9908 33.9901H56.9911V26.9912H54.9914V33.9901H52.9917V31.9904H50.992V33.9901H39.9937C39.4416 33.9901 38.9939 34.4378 38.9939 34.99V46.9881C38.9939 47.5403 39.4416 47.988 39.9937 47.988H58.9908C59.543 47.988 59.9906 47.5403 59.9906 46.9881V34.99C59.9906 34.4378 59.543 33.9901 58.9908 33.9901ZM57.991 45.9883H40.9936V35.9898H57.991V45.9883Z" fill="#282828"/>
<path d="M42.9933 38.9894C42.9933 38.4372 43.4409 37.9895 43.9931 37.9895H45.9928C46.545 37.9895 46.9927 38.4372 46.9927 38.9894C46.9927 39.5416 46.545 39.9892 45.9928 39.9892H43.9931C43.4409 39.9892 42.9933 39.5416 42.9933 38.9894Z" fill="#FF5C8B"/>
<path d="M48.9923 38.9894C48.9923 38.4372 49.44 37.9895 49.9922 37.9895H54.9914C55.5436 37.9895 55.9912 38.4372 55.9912 38.9894C55.9912 39.5416 55.5436 39.9892 54.9914 39.9892H49.9922C49.44 39.9892 48.9923 39.5416 48.9923 38.9894Z" fill="#08BBF6"/>
<path d="M42.9933 42.9887C42.9933 42.4365 43.4409 41.9889 43.9931 41.9889H54.9914C55.5436 41.9889 55.9913 42.4365 55.9913 42.9887C55.9913 43.5409 55.5436 43.9886 54.9914 43.9886H43.9931C43.4409 43.9886 42.9933 43.5409 42.9933 42.9887Z" fill="#08BBF6"/>
<path d="M0.999845 31.9904H15.9975C16.5497 31.9904 16.9974 31.5427 16.9974 30.9906V22.9918C16.9974 22.4396 16.5497 21.9919 15.9975 21.9919H0.999845C0.447684 21.9919 0 22.4396 0 22.9918V30.9906C0 31.5427 0.447684 31.9904 0.999845 31.9904ZM1.99969 23.9916H14.9977V29.9907H1.99969V23.9916Z" fill="#282828"/>
<path d="M3.99939 26.9913C3.99939 26.4391 4.44704 25.9915 4.99924 25.9915C5.55143 25.9915 5.99908 26.4391 5.99908 26.9913C5.99908 27.5435 5.55143 27.9911 4.99924 27.9911C4.44704 27.9911 3.99939 27.5435 3.99939 26.9913Z" fill="#08BBF6"/>
<path d="M7.99866 26.9913C7.99866 26.4391 8.4463 25.9915 8.9985 25.9915H11.998C12.5502 25.9915 12.9979 26.4391 12.9979 26.9913C12.9979 27.5435 12.5502 27.9911 11.998 27.9911H8.9985C8.4463 27.9911 7.99866 27.5435 7.99866 26.9913Z" fill="#FF5C8B"/>
</svg>
