<svg width="60" height="52" viewBox="0 0 60 52" fill="none" xmlns="http://www.w3.org/2000/svg">
<path d="M2 4C2 2.89525 2.89525 2 4 2H52C53.1047 2 54 2.89525 54 4V18H56V4C56 1.791 54.209 0 52 0H4C1.791 0 0 1.791 0 4V38C0 40.209 1.791 42 4 42H21.656L19.256 50H17V52H39V50H36.744L34.344 42H39V40H4C2.89525 40 2 39.1048 2 38V36H39V34H2V4ZM23.744 42H32.256L34.656 50H21.344L23.744 42Z" fill="#282828"/>
<path d="M52 18V5C52 4.4475 51.5525 4 51 4H5C4.4475 4 4 4.4475 4 5V32H6V14H50V18H52ZM6 12V6H50V12H6Z" fill="#282828"/>
<path d="M9.00024 9C9.00024 8.44772 9.44796 8 10.0002 8H14.0002C14.5525 8 15.0002 8.44772 15.0002 9C15.0002 9.55229 14.5525 10 14.0002 10H10.0002C9.44796 10 9.00024 9.55229 9.00024 9Z" fill="#08BBF6"/>
<path d="M17 9C17 8.44772 17.4477 8 18 8H22C22.5523 8 23 8.44772 23 9C23 9.55229 22.5523 10 22 10H18C17.4477 10 17 9.55229 17 9Z" fill="#08BBF6"/>
<path d="M25 9C25 8.44772 25.4477 8 26 8H30C30.5523 8 31 8.44772 31 9C31 9.55229 30.5523 10 30 10H26C25.4477 10 25 9.55229 25 9Z" fill="#08BBF6"/>
<path d="M32.9999 9C32.9999 8.44772 33.4476 8 33.9999 8H37.9999C38.5522 8 38.9999 8.44772 38.9999 9C38.9999 9.55229 38.5522 10 37.9999 10H33.9999C33.4476 10 32.9999 9.55229 32.9999 9Z" fill="#08BBF6"/>
<path d="M20 17C20 16.4475 19.5525 16 19 16H9C8.4475 16 8 16.4475 8 17V25C8 25.5525 8.4475 26 9 26H19C19.5525 26 20 25.5525 20 25V17ZM18 24H10V18H18V24Z" fill="#FF5C8B"/>
<path d="M34.0001 17C34.0001 16.4475 33.5526 16 33.0001 16H23.0001C22.4476 16 22.0001 16.4475 22.0001 17V25C22.0001 25.5525 22.4476 26 23.0001 26H33.0001C33.5526 26 34.0001 25.5525 34.0001 25V17ZM32.0001 24H24.0001V18H32.0001V24Z" fill="#FF5C8B"/>
<path d="M37.9998 18H47.9998V17C47.9998 16.4475 47.5523 16 46.9998 16H36.9998C36.4473 16 35.9998 16.4475 35.9998 17V25C35.9998 25.5525 36.4473 26 36.9998 26H38.9998V24H37.9998V18Z" fill="#FF5C8B"/>
<path d="M20 32V29C20 28.4475 19.5525 28 19 28H9C8.4475 28 8 28.4475 8 29V32H10V30H18V32H20Z" fill="#FF5C8B"/>
<path d="M34.0001 32V29C34.0001 28.4475 33.5526 28 33.0001 28H23.0001C22.4476 28 22.0001 28.4475 22.0001 29V32H24.0001V30H32.0001V32H34.0001Z" fill="#FF5C8B"/>
<path d="M35.9998 29V32H37.9998V30H38.9998V28H36.9998C36.4473 28 35.9998 28.4475 35.9998 29Z" fill="#FF5C8B"/>
<path d="M56 20H45C42.791 20 41 21.791 41 24V48C41 50.209 42.791 52 45 52H56C58.209 52 60 50.209 60 48V24C60 21.791 58.209 20 56 20ZM58 48C58 49.1048 57.1047 50 56 50H45C43.8952 50 43 49.1048 43 48V47H58V48ZM58 45H43V24C43 22.8953 43.8952 22 45 22H56C57.1047 22 58 22.8953 58 24V45Z" fill="#282828"/>
<path d="M55 28H46C45.4475 28 45 28.4475 45 29V37C45 37.5525 45.4475 38 46 38H55C55.5525 38 56 37.5525 56 37V29C56 28.4475 55.5525 28 55 28ZM54 36H47V30H54V36Z" fill="#08BBF6"/>
<path d="M55 40H46C45.4475 40 45 40.4475 45 41V43H47V42H54V43H56V41C56 40.4475 55.5525 40 55 40Z" fill="#08BBF6"/>
<path d="M45 25C45 24.4477 45.4477 24 46 24H55C55.5523 24 56 24.4477 56 25C56 25.5523 55.5523 26 55 26H46C45.4477 26 45 25.5523 45 25Z" fill="#08BBF6"/>
</svg>
