<svg width="110" height="110" viewBox="0 0 110 110" fill="none" xmlns="http://www.w3.org/2000/svg">
<path d="M11 7.33333V25.6667H14.6667V7.33333C14.6667 5.30796 16.308 3.66667 18.3333 3.66667H91.6667C93.692 3.66667 95.3333 5.30796 95.3333 7.33333H99C99 3.2835 95.7165 0 91.6667 0H18.3333C14.2835 0 11 3.2835 11 7.33333Z" fill="#282828"/>
<path d="M7.33333 110H91.6667C95.7165 110 99 106.716 99 102.667V95.3333H95.3333V102.667C95.3333 104.692 93.692 106.333 91.6667 106.333C89.6413 106.333 88 104.692 88 102.667V97.1667C88 96.1537 87.1796 95.3333 86.1667 95.3333H14.6667V58.6666H11V95.3333H1.83333C0.820417 95.3333 0 96.1537 0 97.1667V102.667C0 106.716 3.2835 110 7.33333 110ZM3.66667 99H84.3333V102.667C84.3324 103.955 84.6707 105.22 85.3183 106.333H7.33333C5.30796 106.333 3.66667 104.692 3.66667 102.667V99Z" fill="#282828"/>
<path d="M1.83333 55H38.5C39.5129 55 40.3333 54.1796 40.3333 53.1667V31.1666C40.3333 30.1537 39.5129 29.3333 38.5 29.3333H1.83333C0.820417 29.3333 0 30.1537 0 31.1666V53.1667C0 54.1796 0.820417 55 1.83333 55ZM3.66667 33H36.6667V51.3333H3.66667V33Z" fill="#FF5C8B"/>
<path d="M11.5372 37.2038L7.87058 40.8705C7.15512 41.5869 7.15512 42.7465 7.87058 43.4628L11.5372 47.1295L14.1296 44.5372L11.7591 42.1667L14.1296 39.7962L11.5372 37.2038Z" fill="#FF5C8B"/>
<path d="M28.7955 37.2038L26.2031 39.7962L28.5736 42.1667L26.2031 44.5372L28.7955 47.1295L32.4621 43.4628C33.1776 42.7465 33.1776 41.5869 32.4621 40.8705L28.7955 37.2038Z" fill="#FF5C8B"/>
<path d="M16.5918 47.0869L20.2603 36.0855L23.74 37.246L20.0696 48.2465L16.5918 47.0869Z" fill="#FF5C8B"/>
<path d="M108.167 11H45.8333C44.8204 11 44 11.8204 44 12.8333V49.5C44 50.5129 44.8204 51.3333 45.8333 51.3333H108.167C109.18 51.3333 110 50.5129 110 49.5V12.8333C110 11.8204 109.18 11 108.167 11ZM106.333 47.6667H47.6667V43.2043L64.13 33.3263L80.1804 43.7067C80.7318 44.0619 81.4316 44.0962 82.0137 43.7947L95.2866 36.9197L106.333 43.23V47.6667ZM106.333 39.0078L96.25 33.242C95.7101 32.9322 95.0496 32.9198 94.4969 33.2053L81.2845 40.0496L65.1695 29.6267C64.5819 29.2472 63.8293 29.2348 63.2294 29.5955L47.6667 38.929V14.6667H106.333V39.0078Z" fill="#08BBF6"/>
<path d="M87.0827 31.1667C90.6265 31.1667 93.4993 28.2938 93.4993 24.75C93.4993 21.2062 90.6265 18.3333 87.0827 18.3333C83.5388 18.3333 80.666 21.2062 80.666 24.75C80.666 28.2938 83.5388 31.1667 87.0827 31.1667ZM87.0827 22C88.6016 22 89.8327 23.2311 89.8327 24.75C89.8327 26.2689 88.6016 27.5 87.0827 27.5C85.5638 27.5 84.3327 26.2689 84.3327 24.75C84.3327 23.2311 85.5638 22 87.0827 22Z" fill="#08BBF6"/>
<path d="M18.334 60.5V82.5C18.334 83.5129 19.1544 84.3333 20.1673 84.3333H66.0006C67.0136 84.3333 67.834 83.5129 67.834 82.5V60.5C67.834 59.4871 67.0136 58.6666 66.0006 58.6666H20.1673C19.1544 58.6666 18.334 59.4871 18.334 60.5ZM22.0007 62.3333H64.1673V80.6667H22.0007V62.3333Z" fill="#282828"/>
<path d="M25.666 67.8333C25.666 66.8208 26.4868 66 27.4993 66H31.166C32.1785 66 32.9993 66.8208 32.9993 67.8333C32.9993 68.8459 32.1785 69.6667 31.166 69.6667H27.4993C26.4868 69.6667 25.666 68.8459 25.666 67.8333Z" fill="#282828"/>
<path d="M36.666 67.8333C36.666 66.8208 37.4868 66 38.4993 66H51.3327C52.3452 66 53.166 66.8208 53.166 67.8333C53.166 68.8459 52.3452 69.6667 51.3327 69.6667H38.4993C37.4868 69.6667 36.666 68.8459 36.666 67.8333Z" fill="#282828"/>
<path d="M56.834 67.8333C56.834 66.8208 57.6548 66 58.6673 66C59.6798 66 60.5007 66.8208 60.5007 67.8333C60.5007 68.8459 59.6798 69.6667 58.6673 69.6667C57.6548 69.6667 56.834 68.8459 56.834 67.8333Z" fill="#282828"/>
<path d="M25.666 75.1667C25.666 74.1542 26.4868 73.3333 27.4993 73.3333H45.8327C46.8452 73.3333 47.666 74.1542 47.666 75.1667C47.666 76.1792 46.8452 77 45.8327 77H27.4993C26.4868 77 25.666 76.1792 25.666 75.1667Z" fill="#282828"/>
<path d="M51.334 75.1667C51.334 74.1542 52.1548 73.3333 53.1673 73.3333H58.6673C59.6798 73.3333 60.5006 74.1542 60.5006 75.1667C60.5006 76.1792 59.6798 77 58.6673 77H53.1673C52.1548 77 51.334 76.1792 51.334 75.1667Z" fill="#282828"/>
<path d="M18.334 9.16668C18.334 8.15416 19.1548 7.33334 20.1673 7.33334C21.1798 7.33334 22.0006 8.15416 22.0006 9.16668C22.0006 10.1792 21.1798 11 20.1673 11C19.1548 11 18.334 10.1792 18.334 9.16668Z" fill="#282828"/>
<path d="M25.666 9.16668C25.666 8.15416 26.4868 7.33334 27.4993 7.33334C28.5119 7.33334 29.3327 8.15416 29.3327 9.16668C29.3327 10.1792 28.5119 11 27.4993 11C26.4868 11 25.666 10.1792 25.666 9.16668Z" fill="#282828"/>
<path d="M33 9.16668C33 8.15416 33.8208 7.33334 34.8333 7.33334C35.8459 7.33334 36.6667 8.15416 36.6667 9.16668C36.6667 10.1792 35.8459 11 34.8333 11C33.8208 11 33 10.1792 33 9.16668Z" fill="#282828"/>
<path d="M18.334 14.6667H40.334V18.3333H18.334V14.6667Z" fill="#282828"/>
<path d="M108.167 66H73.3333C72.3204 66 71.5 66.8204 71.5 67.8333V89.8333C71.5 90.8462 72.3204 91.6667 73.3333 91.6667H108.167C109.18 91.6667 110 90.8462 110 89.8333V67.8333C110 66.8204 109.18 66 108.167 66ZM106.333 88H75.1667V69.6667H106.333V88Z" fill="#FF5C8B"/>
<path d="M78.834 75.1667C78.834 74.1542 79.6548 73.3333 80.6673 73.3333C81.6798 73.3333 82.5007 74.1542 82.5007 75.1667C82.5007 76.1792 81.6798 77 80.6673 77C79.6548 77 78.834 76.1792 78.834 75.1667Z" fill="#FF5C8B"/>
<path d="M78.834 82.5C78.834 81.4875 79.6548 80.6667 80.6673 80.6667C81.6798 80.6667 82.5007 81.4875 82.5007 82.5C82.5007 83.5125 81.6798 84.3333 80.6673 84.3333C79.6548 84.3333 78.834 83.5125 78.834 82.5Z" fill="#FF5C8B"/>
<path d="M86.166 75.1667C86.166 74.1542 86.9868 73.3333 87.9993 73.3333H100.833C101.845 73.3333 102.666 74.1542 102.666 75.1667C102.666 76.1792 101.845 77 100.833 77H87.9993C86.9868 77 86.166 76.1792 86.166 75.1667Z" fill="#FF5C8B"/>
<path d="M86.166 82.5C86.166 81.4875 86.9868 80.6667 87.9993 80.6667H100.833C101.845 80.6667 102.666 81.4875 102.666 82.5C102.666 83.5125 101.845 84.3333 100.833 84.3333H87.9993C86.9868 84.3333 86.166 83.5125 86.166 82.5Z" fill="#FF5C8B"/>
<path d="M95.334 56.8333C95.334 55.8208 96.1548 55 97.1673 55C98.1798 55 99.0006 55.8208 99.0006 56.8333V60.5C99.0006 61.5125 98.1798 62.3333 97.1673 62.3333C96.1548 62.3333 95.334 61.5125 95.334 60.5V56.8333Z" fill="#282828"/>
</svg>
